<svg width="314" height="332" viewBox="0 0 314 332" fill="none" xmlns="http://www.w3.org/2000/svg">
<path d="M29.7301 330H3.28125L37.6349 228.182H70.3977L104.751 330H78.3026L54.3892 253.835H53.5938L29.7301 330ZM26.2003 289.929H81.4844V308.622H26.2003V289.929ZM138.205 228.182V330H113.894V228.182H138.205ZM187.555 331.442C179.567 331.442 172.673 329.867 166.873 326.719C161.106 323.537 156.665 319.013 153.549 313.146C150.467 307.247 148.926 300.237 148.926 292.116C148.926 284.228 150.483 277.334 153.599 271.435C156.715 265.502 161.106 260.895 166.774 257.614C172.441 254.299 179.12 252.642 186.809 252.642C192.245 252.642 197.216 253.487 201.724 255.178C206.232 256.868 210.126 259.37 213.407 262.685C216.688 265.999 219.241 270.092 221.063 274.964C222.886 279.804 223.798 285.355 223.798 291.619V297.685H157.427V283.565H201.177C201.144 280.98 200.531 278.677 199.338 276.655C198.144 274.633 196.504 273.059 194.416 271.932C192.361 270.772 189.991 270.192 187.306 270.192C184.589 270.192 182.152 270.805 179.998 272.031C177.844 273.224 176.137 274.865 174.877 276.953C173.618 279.008 172.955 281.345 172.889 283.963V298.331C172.889 301.446 173.502 304.181 174.728 306.534C175.955 308.854 177.695 310.661 179.948 311.953C182.202 313.246 184.887 313.892 188.002 313.892C190.157 313.892 192.112 313.594 193.869 312.997C195.626 312.401 197.134 311.522 198.393 310.362C199.652 309.202 200.597 307.777 201.227 306.087L223.549 306.733C222.621 311.738 220.583 316.096 217.434 319.808C214.319 323.487 210.225 326.354 205.154 328.409C200.083 330.431 194.217 331.442 187.555 331.442ZM270.041 331.442C262.02 331.442 255.126 329.801 249.359 326.52C243.625 323.205 239.2 318.598 236.085 312.699C233.002 306.766 231.461 299.889 231.461 292.067C231.461 284.212 233.002 277.334 236.085 271.435C239.2 265.502 243.625 260.895 249.359 257.614C255.126 254.299 262.02 252.642 270.041 252.642C278.062 252.642 284.939 254.299 290.673 257.614C296.44 260.895 300.865 265.502 303.947 271.435C307.062 277.334 308.62 284.212 308.62 292.067C308.62 299.889 307.062 306.766 303.947 312.699C300.865 318.598 296.44 323.205 290.673 326.52C284.939 329.801 278.062 331.442 270.041 331.442ZM270.19 313.097C273.107 313.097 275.576 312.202 277.598 310.412C279.619 308.622 281.16 306.136 282.221 302.955C283.315 299.773 283.862 296.094 283.862 291.918C283.862 287.675 283.315 283.963 282.221 280.781C281.16 277.599 279.619 275.114 277.598 273.324C275.576 271.534 273.107 270.639 270.19 270.639C267.174 270.639 264.622 271.534 262.534 273.324C260.479 275.114 258.904 277.599 257.811 280.781C256.75 283.963 256.22 287.675 256.22 291.918C256.22 296.094 256.75 299.773 257.811 302.955C258.904 306.136 260.479 308.622 262.534 310.412C264.622 312.202 267.174 313.097 270.19 313.097Z" fill="white"/>
<rect x="148.002" y="0.111084" width="48.6323" height="188.138" rx="24.3162" transform="rotate(30.3285 148.002 0.111084)" fill="url(#paint0_linear_26_15)"/>
<rect x="124" y="24.3162" width="48.6323" height="188.138" rx="24.3162" transform="rotate(-30 124 24.3162)" fill="url(#paint1_linear_26_15)"/>
<defs>
<linearGradient id="paint0_linear_26_15" x1="172.318" y1="0.111084" x2="172.318" y2="188.249" gradientUnits="userSpaceOnUse">
<stop stop-color="#00B7FB"/>
<stop offset="1" stop-color="#1150FA"/>
</linearGradient>
<linearGradient id="paint1_linear_26_15" x1="148.316" y1="24.3162" x2="148.316" y2="212.455" gradientUnits="userSpaceOnUse">
<stop stop-color="#00C1FA"/>
<stop offset="1" stop-color="#00E9EF"/>
</linearGradient>
</defs>
</svg>
