<svg width="36" height="36" viewBox="0 0 36 36" fill="none" xmlns="http://www.w3.org/2000/svg">
<path d="M28.6522 7.99507C26.6572 7.06507 24.4972 6.39007 22.2472 6.00007C22.2275 5.99944 22.2079 6.00314 22.1898 6.01092C22.1716 6.01869 22.1554 6.03035 22.1422 6.04507C21.8722 6.54007 21.5572 7.18507 21.3472 7.68007C18.9607 7.32007 16.5337 7.32007 14.1472 7.68007C13.9372 7.17007 13.6222 6.54007 13.3372 6.04507C13.3222 6.01507 13.2772 6.00007 13.2322 6.00007C10.9822 6.39007 8.83725 7.06507 6.82725 7.99507C6.81225 7.99507 6.79725 8.01007 6.78225 8.02507C2.70225 14.1301 1.57725 20.0701 2.13225 25.9501C2.13225 25.9801 2.14725 26.0101 2.17725 26.0251C4.87725 28.0051 7.47225 29.2051 10.0372 30.0001C10.0822 30.0151 10.1272 30.0001 10.1422 29.9701C10.7422 29.1451 11.2822 28.2751 11.7472 27.3601C11.7772 27.3001 11.7472 27.2401 11.6872 27.2251C10.8322 26.8951 10.0222 26.5051 9.22725 26.0551C9.16725 26.0251 9.16725 25.9351 9.21225 25.8901C9.37725 25.7701 9.54225 25.6351 9.70725 25.5151C9.73725 25.4851 9.78225 25.4851 9.81225 25.5001C14.9722 27.8551 20.5372 27.8551 25.6372 25.5001C25.6672 25.4851 25.7122 25.4851 25.7422 25.5151C25.9072 25.6501 26.0722 25.7701 26.2372 25.9051C26.2972 25.9501 26.2972 26.0401 26.2222 26.0701C25.4422 26.5351 24.6172 26.9101 23.7622 27.2401C23.7022 27.2551 23.6872 27.3301 23.7022 27.3751C24.1822 28.2901 24.7222 29.1601 25.3072 29.9851C25.3522 30.0001 25.3972 30.0151 25.4422 30.0001C28.0222 29.2051 30.6172 28.0051 33.3172 26.0251C33.3472 26.0101 33.3622 25.9801 33.3622 25.9501C34.0222 19.1551 32.2672 13.2601 28.7122 8.02507C28.6972 8.01007 28.6822 7.99507 28.6522 7.99507ZM12.5272 22.3651C10.9822 22.3651 9.69225 20.9401 9.69225 19.1851C9.69225 17.4301 10.9522 16.0051 12.5272 16.0051C14.1172 16.0051 15.3772 17.4451 15.3622 19.1851C15.3622 20.9401 14.1022 22.3651 12.5272 22.3651ZM22.9822 22.3651C21.4372 22.3651 20.1472 20.9401 20.1472 19.1851C20.1472 17.4301 21.4072 16.0051 22.9822 16.0051C24.5722 16.0051 25.8322 17.4451 25.8172 19.1851C25.8172 20.9401 24.5722 22.3651 22.9822 22.3651Z" fill="#0C6BFA"/>
</svg>
