<svg width="155" height="59" viewBox="0 0 155 59" fill="none" xmlns="http://www.w3.org/2000/svg">
<path d="M15.4293 20.5159C13.9249 15.6008 16.044 10.3011 20.5224 7.77833C26.1141 4.62845 33.2036 6.94441 35.8574 12.7879L45.9461 35.0026C47.6611 38.7789 46.4819 43.2407 43.125 45.6765L37.7194 49.5989C33.5727 52.6078 27.8367 49.2048 28.4899 44.1232C28.7857 41.8225 27.6928 39.5647 25.705 38.3693L23.1999 36.8629C21.0165 35.5499 19.396 33.4756 18.6503 31.0394L15.4293 20.5159Z" fill="url(#paint0_linear_1005_31)"/>
<path d="M35.7253 20.6115C37.2531 15.7036 35.1593 10.3939 30.6928 7.84979C25.1162 4.67333 18.0157 6.95552 15.3341 12.7863L5.13977 34.9527C3.40678 38.7208 4.56478 43.1881 7.91008 45.6399L13.297 49.588C17.4293 52.6167 23.1815 49.241 22.5524 44.1563C22.2677 41.8543 23.3712 39.6016 25.3648 38.4157L27.8769 36.9213C30.0666 35.6187 31.697 33.5521 32.4542 31.1195L35.7253 20.6115Z" fill="url(#paint1_linear_1005_31)"/>
<path d="M15.4293 20.5159C13.9249 15.6008 16.044 10.3011 20.5224 7.77833C26.1141 4.62845 33.2036 6.94441 35.8574 12.7879L45.9461 35.0026C47.6611 38.7789 46.4819 43.2407 43.125 45.6765L37.7194 49.5989C33.5727 52.6078 27.8367 49.2048 28.4899 44.1232C28.7857 41.8225 27.6928 39.5647 25.705 38.3693L23.1999 36.8629C21.0165 35.5499 19.396 33.4756 18.6503 31.0394L15.4293 20.5159Z" fill="url(#paint2_linear_1005_31)" fill-opacity="0.1"/>
<path d="M35.7253 20.6115C37.2531 15.7036 35.1593 10.3939 30.6928 7.84979C25.1162 4.67333 18.0157 6.95552 15.3341 12.7863L5.13977 34.9527C3.40678 38.7208 4.56478 43.1881 7.91008 45.6399L13.297 49.588C17.4293 52.6167 23.1815 49.241 22.5524 44.1563C22.2677 41.8543 23.3712 39.6016 25.3648 38.4157L27.8769 36.9213C30.0666 35.6187 31.697 33.5521 32.4542 31.1195L35.7253 20.6115Z" fill="url(#paint3_linear_1005_31)" fill-opacity="0.1"/>
<path opacity="0.06" d="M36.8365 19.3222C38.0023 20.2133 38.5282 22.3452 37.6933 23.4393C36.8585 24.5334 34.9785 24.173 33.8127 23.2877C32.6468 22.4023 32.3786 20.7897 33.2167 19.6948C34.0548 18.5999 35.6706 18.4336 36.8365 19.3222Z" fill="#12100B"/>
<path opacity="0.06" d="M19.4808 17.7958C20.4377 18.5258 20.3105 21.0078 19.0659 22.6399C17.8212 24.272 15.9308 24.4333 14.9739 23.7032C14.017 22.9732 14.2505 21.0593 15.4945 19.4279C16.7385 17.7964 18.5239 17.0657 19.4808 17.7958Z" fill="#12100B"/>
<path d="M42.6015 6.17886C42.8284 9.0043 42.9817 18.0641 36.3543 23.118C36.0034 23.384 35.5765 23.5306 35.1361 23.5362C34.6958 23.5418 34.2653 23.4061 33.9077 23.149C32.9204 22.438 31.7468 21.0036 31.4922 18.1566C31.4723 17.9286 31.5287 17.7004 31.6525 17.5079C31.7763 17.3154 31.9605 17.1695 32.1763 17.093C33.8517 16.5041 38.1357 14.2608 42.1382 6.08972C42.1618 6.04155 42.2007 6.00249 42.2487 5.97856C42.2967 5.95462 42.3512 5.94715 42.4039 5.95728C42.4566 5.96742 42.5045 5.99461 42.5402 6.03465C42.5759 6.07469 42.5974 6.12537 42.6015 6.17886Z" fill="url(#paint4_linear_1005_31)"/>
<path d="M8.44557 6.18007C8.21867 9.0055 8.06537 18.0653 14.6927 23.1192C15.0436 23.3852 15.4706 23.5318 15.9109 23.5374C16.3512 23.543 16.7818 23.4073 17.1393 23.1502C18.1266 22.4392 19.3003 21.0048 19.5549 18.1578C19.5747 17.9298 19.5184 17.7016 19.3945 17.5091C19.2707 17.3166 19.0865 17.1707 18.8708 17.0942C17.1954 16.5053 12.9113 14.262 8.90949 6.09093C8.88605 6.04243 8.84724 6.00304 8.7991 5.97887C8.75096 5.9547 8.69618 5.94711 8.64329 5.95727C8.59039 5.96744 8.54233 5.99479 8.50657 6.03508C8.47082 6.07537 8.44937 6.12634 8.44557 6.18007Z" fill="url(#paint5_linear_1005_31)"/>
<path d="M24.5452 28.9967C24.9844 28.3121 25.985 28.3121 26.4242 28.9967L28.4097 32.0919C28.8863 32.8347 28.3528 33.8107 27.4702 33.8107H23.4992C22.6166 33.8107 22.0832 32.8347 22.5597 32.0919L24.5452 28.9967Z" fill="#171922"/>
<path d="M68.8958 25.0786H64.6394L70.1679 8.69309H75.4404L80.9689 25.0786H76.7125L72.8641 12.8215H72.7361L68.8958 25.0786ZM68.3277 18.63H77.2246V21.6383H68.3277V18.63ZM86.316 8.69309V25.0786H82.4036V8.69309H86.316ZM94.2213 25.3106C92.9358 25.3106 91.8264 25.0573 90.893 24.5506C89.9649 24.0385 89.2501 23.3104 88.7488 22.3664C88.2527 21.4169 88.0047 20.2888 88.0047 18.982C88.0047 17.7126 88.2554 16.6032 88.7568 15.6537C89.2581 14.699 89.9649 13.9576 90.877 13.4295C91.7891 12.8961 92.8638 12.6295 94.1013 12.6295C94.976 12.6295 95.7761 12.7655 96.5015 13.0375C97.2269 13.3095 97.8536 13.7122 98.3817 14.2456C98.9097 14.779 99.3204 15.4377 99.6138 16.2218C99.9071 17.0005 100.054 17.8939 100.054 18.902V19.8781H89.3728V17.6059H96.4135C96.4081 17.1899 96.3095 16.8192 96.1175 16.4938C95.9254 16.1684 95.6614 15.9151 95.3254 15.7337C94.9947 15.5471 94.6133 15.4537 94.1813 15.4537C93.7439 15.4537 93.3519 15.5524 93.0052 15.7497C92.6585 15.9418 92.3838 16.2058 92.1811 16.5418C91.9784 16.8725 91.8717 17.2485 91.8611 17.6699V19.9821C91.8611 20.4835 91.9597 20.9236 92.1571 21.3023C92.3544 21.6756 92.6345 21.9663 92.9972 22.1743C93.3599 22.3824 93.7919 22.4864 94.2933 22.4864C94.64 22.4864 94.9547 22.4384 95.2374 22.3424C95.5201 22.2463 95.7628 22.105 95.9654 21.9183C96.1681 21.7316 96.3201 21.5023 96.4215 21.2303L100.014 21.3343C99.8645 22.1397 99.5364 22.8411 99.0297 23.4385C98.5283 24.0305 97.8696 24.4919 97.0535 24.8226C96.2375 25.148 95.2934 25.3106 94.2213 25.3106ZM107.459 25.3106C106.168 25.3106 105.059 25.0466 104.131 24.5186C103.208 23.9852 102.496 23.2438 101.995 22.2944C101.499 21.3396 101.251 20.2328 101.251 18.974C101.251 17.7099 101.499 16.6032 101.995 15.6537C102.496 14.699 103.208 13.9576 104.131 13.4295C105.059 12.8961 106.168 12.6295 107.459 12.6295C108.75 12.6295 109.857 12.8961 110.779 13.4295C111.707 13.9576 112.42 14.699 112.916 15.6537C113.417 16.6032 113.668 17.7099 113.668 18.974C113.668 20.2328 113.417 21.3396 112.916 22.2944C112.42 23.2438 111.707 23.9852 110.779 24.5186C109.857 25.0466 108.75 25.3106 107.459 25.3106ZM107.483 22.3584C107.952 22.3584 108.35 22.2143 108.675 21.9263C109.001 21.6383 109.249 21.2383 109.419 20.7262C109.595 20.2142 109.683 19.6221 109.683 18.95C109.683 18.2673 109.595 17.6699 109.419 17.1579C109.249 16.6458 109.001 16.2458 108.675 15.9578C108.35 15.6697 107.952 15.5257 107.483 15.5257C106.998 15.5257 106.587 15.6697 106.251 15.9578C105.92 16.2458 105.667 16.6458 105.491 17.1579C105.32 17.6699 105.235 18.2673 105.235 18.95C105.235 19.6221 105.32 20.2142 105.491 20.7262C105.667 21.2383 105.92 21.6383 106.251 21.9263C106.587 22.2143 106.998 22.3584 107.483 22.3584ZM71.08 50.9431C69.9119 50.9431 68.9118 50.7804 68.0797 50.455C67.2476 50.1297 66.5942 49.6843 66.1195 49.1189C65.6448 48.5535 65.3594 47.9135 65.2634 47.1987L68.9678 46.9907C69.0371 47.2414 69.1651 47.4601 69.3518 47.6468C69.5438 47.8334 69.7919 47.9775 70.0959 48.0788C70.4052 48.1801 70.7679 48.2308 71.184 48.2308C71.84 48.2308 72.3814 48.0708 72.8081 47.7508C73.2402 47.4361 73.4562 46.884 73.4562 46.0946V43.9344H73.3202C73.1655 44.3131 72.9308 44.6518 72.6161 44.9505C72.3014 45.2492 71.9094 45.4839 71.44 45.6546C70.976 45.8253 70.4426 45.9106 69.8399 45.9106C68.9438 45.9106 68.1224 45.7026 67.3756 45.2865C66.6342 44.8652 66.0395 44.2144 65.5915 43.3344C65.1488 42.4489 64.9274 41.3102 64.9274 39.918C64.9274 38.4832 65.1568 37.3018 65.6155 36.3737C66.0742 35.4403 66.6742 34.7496 67.4156 34.3015C68.1624 33.8535 68.9651 33.6295 69.8239 33.6295C70.4693 33.6295 71.0213 33.7415 71.48 33.9655C71.9441 34.1842 72.3254 34.4669 72.6241 34.8136C72.9228 35.1603 73.1495 35.5203 73.3042 35.8937H73.4162V33.7895H77.3126V46.1266C77.3126 47.1667 77.0512 48.0441 76.5285 48.7589C76.0058 49.4736 75.275 50.015 74.3363 50.383C73.3975 50.7564 72.3121 50.9431 71.08 50.9431ZM71.2 43.0623C71.6747 43.0623 72.0801 42.937 72.4161 42.6863C72.7521 42.4356 73.0108 42.0756 73.1922 41.6062C73.3735 41.1368 73.4642 40.5741 73.4642 39.918C73.4642 39.2513 73.3735 38.6779 73.1922 38.1979C73.0162 37.7125 72.7575 37.3391 72.4161 37.0778C72.0801 36.8164 71.6747 36.6857 71.2 36.6857C70.7146 36.6857 70.3039 36.8191 69.9679 37.0858C69.6318 37.3525 69.3758 37.7285 69.1998 38.2139C69.0291 38.6939 68.9438 39.262 68.9438 39.918C68.9438 40.5741 69.0318 41.1368 69.2078 41.6062C69.3838 42.0756 69.6372 42.4356 69.9679 42.6863C70.3039 42.937 70.7146 43.0623 71.2 43.0623ZM82.9417 46.2866C82.1576 46.2866 81.4615 46.156 80.8535 45.8946C80.2507 45.6279 79.7734 45.2279 79.4213 44.6945C79.0746 44.1558 78.9013 43.481 78.9013 42.6703C78.9013 41.9876 79.0213 41.4115 79.2613 40.9421C79.5013 40.4728 79.832 40.0914 80.2534 39.798C80.6748 39.5047 81.1602 39.2833 81.7095 39.134C82.2589 38.9793 82.8456 38.8753 83.4697 38.8219C84.1684 38.7579 84.7312 38.6913 85.1579 38.6219C85.5846 38.5472 85.8939 38.4432 86.0859 38.3099C86.2833 38.1712 86.382 37.9765 86.382 37.7258V37.6858C86.382 37.2751 86.2406 36.9578 85.9579 36.7337C85.6752 36.5097 85.2939 36.3977 84.8138 36.3977C84.2964 36.3977 83.8804 36.5097 83.5657 36.7337C83.251 36.9578 83.051 37.2671 82.9657 37.6618L79.3573 37.5338C79.464 36.7871 79.7387 36.1204 80.1814 35.5336C80.6294 34.9416 81.2428 34.4775 82.0216 34.1415C82.8056 33.8001 83.7471 33.6295 84.8458 33.6295C85.6299 33.6295 86.3526 33.7228 87.014 33.9095C87.6754 34.0908 88.2515 34.3575 88.7422 34.7096C89.2329 35.0563 89.6116 35.483 89.8783 35.9897C90.1503 36.4964 90.2863 37.0751 90.2863 37.7258V46.0786H86.606V44.3665H86.51C86.2913 44.7825 86.0113 45.1345 85.6699 45.4226C85.3339 45.7106 84.9365 45.9266 84.4778 46.0706C84.0244 46.2146 83.5124 46.2866 82.9417 46.2866ZM84.1498 43.7264C84.5711 43.7264 84.9498 43.6411 85.2859 43.4704C85.6272 43.2997 85.8993 43.065 86.1019 42.7663C86.3046 42.4623 86.406 42.1102 86.406 41.7102V40.5421C86.294 40.6008 86.158 40.6541 85.9979 40.7021C85.8433 40.7501 85.6726 40.7955 85.4859 40.8381C85.2992 40.8808 85.1072 40.9181 84.9098 40.9501C84.7125 40.9821 84.5231 41.0115 84.3418 41.0381C83.9738 41.0968 83.6591 41.1875 83.3977 41.3102C83.1417 41.4328 82.9443 41.5929 82.8056 41.7902C82.6723 41.9822 82.6056 42.2116 82.6056 42.4783C82.6056 42.8836 82.7496 43.193 83.0377 43.4064C83.331 43.6197 83.7017 43.7264 84.1498 43.7264ZM92.3491 46.0786V33.7895H96.0695V36.0457H96.2055C96.4615 35.2989 96.8935 34.7096 97.5016 34.2775C98.1096 33.8455 98.835 33.6295 99.6778 33.6295C100.531 33.6295 101.262 33.8481 101.87 34.2855C102.478 34.7229 102.865 35.3096 103.03 36.0457H103.158C103.387 35.3149 103.836 34.7309 104.502 34.2935C105.169 33.8508 105.956 33.6295 106.862 33.6295C108.025 33.6295 108.969 34.0028 109.695 34.7496C110.42 35.491 110.783 36.5097 110.783 37.8058V46.0786H106.87V38.7019C106.87 38.0885 106.713 37.6218 106.398 37.3018C106.084 36.9764 105.676 36.8137 105.174 36.8137C104.636 36.8137 104.212 36.9898 103.902 37.3418C103.598 37.6885 103.446 38.1552 103.446 38.7419V46.0786H99.6858V38.6619C99.6858 38.0912 99.5311 37.6405 99.2217 37.3098C98.9124 36.9791 98.5043 36.8137 97.9976 36.8137C97.6563 36.8137 97.3549 36.8964 97.0935 37.0618C96.8322 37.2218 96.6268 37.4511 96.4775 37.7498C96.3335 38.0485 96.2615 38.4006 96.2615 38.8059V46.0786H92.3491ZM118.622 46.3106C117.337 46.3106 116.227 46.0573 115.294 45.5506C114.366 45.0385 113.651 44.3104 113.15 43.3664C112.654 42.4169 112.406 41.2888 112.406 39.982C112.406 38.7126 112.656 37.6032 113.158 36.6537C113.659 35.699 114.366 34.9576 115.278 34.4295C116.19 33.8961 117.265 33.6295 118.502 33.6295C119.377 33.6295 120.177 33.7655 120.902 34.0375C121.628 34.3095 122.254 34.7122 122.783 35.2456C123.311 35.779 123.721 36.4377 124.015 37.2218C124.308 38.0005 124.455 38.8939 124.455 39.902V40.8781H113.774V38.6059H120.814C120.809 38.1899 120.71 37.8192 120.518 37.4938C120.326 37.1684 120.062 36.9151 119.726 36.7337C119.396 36.5471 119.014 36.4537 118.582 36.4537C118.145 36.4537 117.753 36.5524 117.406 36.7497C117.059 36.9418 116.785 37.2058 116.582 37.5418C116.379 37.8725 116.273 38.2485 116.262 38.6699V40.9821C116.262 41.4835 116.361 41.9236 116.558 42.3023C116.755 42.6756 117.035 42.9663 117.398 43.1743C117.761 43.3824 118.193 43.4864 118.694 43.4864C119.041 43.4864 119.356 43.4384 119.638 43.3424C119.921 43.2463 120.164 43.105 120.366 42.9183C120.569 42.7316 120.721 42.5023 120.822 42.2303L124.415 42.3343C124.265 43.1397 123.937 43.8411 123.431 44.4385C122.929 45.0305 122.27 45.4919 121.454 45.8226C120.638 46.148 119.694 46.3106 118.622 46.3106ZM136.852 37.5418L133.26 37.6378C133.223 37.3818 133.121 37.1551 132.956 36.9578C132.791 36.7551 132.575 36.5977 132.308 36.4857C132.047 36.3684 131.743 36.3097 131.396 36.3097C130.943 36.3097 130.556 36.4004 130.236 36.5817C129.921 36.7631 129.766 37.0084 129.772 37.3178C129.766 37.5578 129.862 37.7658 130.06 37.9419C130.262 38.1179 130.622 38.2592 131.14 38.3659L133.508 38.8139C134.735 39.0486 135.647 39.438 136.244 39.982C136.847 40.5261 137.151 41.2462 137.156 42.1422C137.151 42.985 136.9 43.7184 136.404 44.3425C135.914 44.9665 135.242 45.4519 134.388 45.7986C133.535 46.14 132.559 46.3106 131.46 46.3106C129.705 46.3106 128.321 45.9506 127.308 45.2305C126.299 44.5051 125.723 43.5344 125.579 42.3183L129.444 42.2223C129.529 42.6703 129.75 43.0117 130.108 43.2463C130.465 43.481 130.921 43.5984 131.476 43.5984C131.977 43.5984 132.385 43.505 132.7 43.3184C133.015 43.1317 133.175 42.8836 133.18 42.5743C133.175 42.2969 133.052 42.0756 132.812 41.9102C132.572 41.7395 132.196 41.6062 131.684 41.5102L129.54 41.1021C128.308 40.8781 127.39 40.4648 126.787 39.862C126.185 39.254 125.886 38.4806 125.891 37.5418C125.886 36.7204 126.105 36.019 126.547 35.4376C126.99 34.8509 127.62 34.4029 128.436 34.0935C129.252 33.7841 130.214 33.6295 131.324 33.6295C132.988 33.6295 134.3 33.9788 135.26 34.6776C136.22 35.3709 136.751 36.3257 136.852 37.5418Z" fill="white"/>
<defs>
<linearGradient id="paint0_linear_1005_31" x1="24.0524" y1="3.15849" x2="33.6339" y2="56.3098" gradientUnits="userSpaceOnUse">
<stop stop-color="#00B7FB"/>
<stop offset="1" stop-color="#184DDC"/>
</linearGradient>
<linearGradient id="paint1_linear_1005_31" x1="27.1849" y1="3.21321" x2="17.3505" y2="56.3183" gradientUnits="userSpaceOnUse">
<stop stop-color="#00B7FB"/>
<stop offset="1" stop-color="#1150FA"/>
</linearGradient>
<linearGradient id="paint2_linear_1005_31" x1="24.0524" y1="3.15849" x2="33.6339" y2="56.3098" gradientUnits="userSpaceOnUse">
<stop stop-color="white"/>
<stop offset="1" stop-color="#1150FA"/>
</linearGradient>
<linearGradient id="paint3_linear_1005_31" x1="27.1849" y1="3.21321" x2="17.3505" y2="56.3183" gradientUnits="userSpaceOnUse">
<stop stop-color="white"/>
<stop offset="1" stop-color="#1150FA"/>
</linearGradient>
<linearGradient id="paint4_linear_1005_31" x1="33.3017" y1="19.8757" x2="42.7892" y2="14.7599" gradientUnits="userSpaceOnUse">
<stop stop-color="#3ADEFD"/>
<stop offset="1" stop-color="#16C6E7"/>
</linearGradient>
<linearGradient id="paint5_linear_1005_31" x1="8.36914" y1="11.9317" x2="19.8013" y2="11.9772" gradientUnits="userSpaceOnUse">
<stop stop-color="#1056FA"/>
<stop offset="1" stop-color="#00C7F8"/>
</linearGradient>
</defs>
</svg>
