<svg width="29" height="29" viewBox="0 0 29 29" fill="none" xmlns="http://www.w3.org/2000/svg">
<path d="M10.2616 20.9693L14.5001 16.5077L18.7385 20.9693V29H10.2616V20.9693Z" fill="url(#paint0_linear_72_59)"/>
<path d="M20.9692 18.7384L16.5077 14.5L20.9692 10.2615L29 10.2615L29 18.7384L20.9692 18.7384Z" fill="url(#paint1_linear_72_59)"/>
<path d="M18.7384 8.03074L14.4999 12.4923L10.2615 8.03074L10.2615 -2.83976e-05L18.7384 -2.76566e-05L18.7384 8.03074Z" fill="url(#paint2_linear_72_59)"/>
<path d="M8.03077 10.2616L12.4923 14.5L8.03077 18.7385L2.49048e-06 18.7385L2.86102e-06 10.2616L8.03077 10.2616Z" fill="url(#paint3_linear_72_59)"/>
<defs>
<linearGradient id="paint0_linear_72_59" x1="14.5001" y1="16.5077" x2="14.5001" y2="29" gradientUnits="userSpaceOnUse">
<stop stop-color="#02C1F6"/>
<stop offset="1" stop-color="#0C6BFA"/>
</linearGradient>
<linearGradient id="paint1_linear_72_59" x1="16.5077" y1="14.5" x2="29" y2="14.5" gradientUnits="userSpaceOnUse">
<stop stop-color="#02C1F6"/>
<stop offset="1" stop-color="#0C6BFA"/>
</linearGradient>
<linearGradient id="paint2_linear_72_59" x1="14.4999" y1="12.4923" x2="14.4999" y2="-2.80271e-05" gradientUnits="userSpaceOnUse">
<stop stop-color="#02C1F6"/>
<stop offset="1" stop-color="#0C6BFA"/>
</linearGradient>
<linearGradient id="paint3_linear_72_59" x1="12.4923" y1="14.5" x2="2.67575e-06" y2="14.5" gradientUnits="userSpaceOnUse">
<stop stop-color="#02C1F6"/>
<stop offset="1" stop-color="#0C6BFA"/>
</linearGradient>
</defs>
</svg>
