<svg width="28" height="28" viewBox="0 0 28 28" fill="none" xmlns="http://www.w3.org/2000/svg">
<path d="M10.1528 20.1792L14.1898 15.9298L18.2267 20.1792V27.8281H10.1528V20.1792Z" fill="url(#paint0_linear_134_372)"/>
<path d="M20.3514 18.0545L16.1021 14.0175L20.3514 9.98062L28.0004 9.98062L28.0004 18.0545L20.3514 18.0545Z" fill="url(#paint1_linear_134_372)"/>
<path d="M18.2261 7.85595L14.1891 12.1053L10.1522 7.85595L10.1522 0.20703L18.2261 0.20703L18.2261 7.85595Z" fill="url(#paint2_linear_134_372)"/>
<path d="M8.02746 9.98068L12.2769 14.0176L8.02746 18.0545L0.378539 18.0545L0.378539 9.98068L8.02746 9.98068Z" fill="url(#paint3_linear_134_372)"/>
<defs>
<linearGradient id="paint0_linear_134_372" x1="14.1898" y1="15.9298" x2="14.1898" y2="27.8281" gradientUnits="userSpaceOnUse">
<stop stop-color="#02C1F6"/>
<stop offset="1" stop-color="#0C6BFA"/>
</linearGradient>
<linearGradient id="paint1_linear_134_372" x1="16.1021" y1="14.0175" x2="28.0004" y2="14.0175" gradientUnits="userSpaceOnUse">
<stop stop-color="#02C1F6"/>
<stop offset="1" stop-color="#0C6BFA"/>
</linearGradient>
<linearGradient id="paint2_linear_134_372" x1="14.1891" y1="12.1053" x2="14.1891" y2="0.20703" gradientUnits="userSpaceOnUse">
<stop stop-color="#02C1F6"/>
<stop offset="1" stop-color="#0C6BFA"/>
</linearGradient>
<linearGradient id="paint3_linear_134_372" x1="12.2769" y1="14.0176" x2="0.378539" y2="14.0176" gradientUnits="userSpaceOnUse">
<stop stop-color="#02C1F6"/>
<stop offset="1" stop-color="#0C6BFA"/>
</linearGradient>
</defs>
</svg>
