<svg width="24" height="25" viewBox="0 0 24 25" fill="none" xmlns="http://www.w3.org/2000/svg">
<g clip-path="url(#clip0_72_988)">
<path d="M12 0.937012C5.37 0.937012 0 6.31001 0 12.937C0 18.24 3.438 22.737 8.205 24.322C8.805 24.435 9.025 24.064 9.025 23.745C9.025 23.46 9.015 22.705 9.01 21.705C5.672 22.429 4.968 20.095 4.968 20.095C4.422 18.71 3.633 18.34 3.633 18.34C2.546 17.596 3.717 17.611 3.717 17.611C4.922 17.695 5.555 18.847 5.555 18.847C6.625 20.682 8.364 20.152 9.05 19.845C9.158 19.069 9.467 18.54 9.81 18.24C7.145 17.94 4.344 16.908 4.344 12.31C4.344 11 4.809 9.93001 5.579 9.09001C5.444 8.78701 5.039 7.56701 5.684 5.91401C5.684 5.91401 6.689 5.59201 8.984 7.14401C9.944 6.87701 10.964 6.74501 11.984 6.73901C13.004 6.74501 14.024 6.87701 14.984 7.14401C17.264 5.59201 18.269 5.91401 18.269 5.91401C18.914 7.56701 18.509 8.78701 18.389 9.09001C19.154 9.93001 19.619 11 19.619 12.31C19.619 16.92 16.814 17.935 14.144 18.23C14.564 18.59 14.954 19.326 14.954 20.45C14.954 22.056 14.939 23.346 14.939 23.736C14.939 24.051 15.149 24.426 15.764 24.306C20.565 22.732 24 18.232 24 12.937C24 6.31001 18.627 0.937012 12 0.937012Z" fill="white"/>
</g>
<defs>
<clipPath id="clip0_72_988">
<rect width="24" height="24" fill="white" transform="translate(0 0.640137)"/>
</clipPath>
</defs>
</svg>
