<svg width="399" height="146" viewBox="0 0 399 146" fill="none" xmlns="http://www.w3.org/2000/svg">
<path d="M172.17 57.3535H160.865L175.549 13.8302H189.554L204.239 57.3535H192.933L182.711 24.796H182.371L172.17 57.3535ZM170.662 40.2247H194.293V48.2153H170.662V40.2247ZM218.442 13.8302V57.3535H208.05V13.8302H218.442ZM239.44 57.9698C236.026 57.9698 233.079 57.2968 230.599 55.9509C228.134 54.5908 226.236 52.6569 224.904 50.1492C223.586 47.6274 222.928 44.6309 222.928 41.1598C222.928 37.7879 223.593 34.841 224.925 32.3191C226.257 29.7831 228.134 27.8138 230.557 26.4112C232.98 24.9944 235.834 24.286 239.121 24.286C241.445 24.286 243.57 24.6473 245.497 25.3698C247.424 26.0924 249.088 27.1621 250.491 28.5788C251.894 29.9956 252.984 31.7453 253.764 33.828C254.543 35.8965 254.933 38.2696 254.933 40.9473V43.54H226.562V37.5045H245.263C245.249 36.3994 244.987 35.4148 244.477 34.5505C243.967 33.6863 243.265 33.0133 242.373 32.5316C241.494 32.0358 240.481 31.7878 239.334 31.7878C238.172 31.7878 237.131 32.0499 236.21 32.5741C235.289 33.0842 234.559 33.7855 234.021 34.678C233.483 35.5564 233.199 36.5553 233.171 37.6745V43.8162C233.171 45.148 233.433 46.3168 233.957 47.3228C234.481 48.3145 235.225 49.0866 236.189 49.6392C237.152 50.1917 238.3 50.468 239.631 50.468C240.552 50.468 241.388 50.3405 242.139 50.0855C242.89 49.8304 243.535 49.455 244.073 48.9591C244.611 48.4633 245.015 47.854 245.284 47.1315L254.826 47.4078C254.43 49.5471 253.558 51.4101 252.212 52.9969C250.881 54.5696 249.131 55.7951 246.963 56.6735C244.795 57.5377 242.288 57.9698 239.44 57.9698ZM274.602 57.9698C271.174 57.9698 268.227 57.2685 265.762 55.8659C263.311 54.4491 261.419 52.4798 260.088 49.958C258.77 47.4219 258.111 44.4821 258.111 41.1385C258.111 37.7808 258.77 34.841 260.088 32.3191C261.419 29.7831 263.311 27.8138 265.762 26.4112C268.227 24.9944 271.174 24.286 274.602 24.286C278.031 24.286 280.971 24.9944 283.422 26.4112C285.887 27.8138 287.778 29.7831 289.096 32.3191C290.428 34.841 291.094 37.7808 291.094 41.1385C291.094 44.4821 290.428 47.4219 289.096 49.958C287.778 52.4798 285.887 54.4491 283.422 55.8659C280.971 57.2685 278.031 57.9698 274.602 57.9698ZM274.666 50.128C275.913 50.128 276.968 49.7454 277.833 48.9804C278.697 48.2153 279.356 47.1527 279.809 45.7926C280.277 44.4325 280.51 42.8599 280.51 41.0748C280.51 39.2613 280.277 37.6745 279.809 36.3144C279.356 34.9543 278.697 33.8917 277.833 33.1267C276.968 32.3616 275.913 31.9791 274.666 31.9791C273.377 31.9791 272.286 32.3616 271.393 33.1267C270.515 33.8917 269.842 34.9543 269.375 36.3144C268.921 37.6745 268.694 39.2613 268.694 41.0748C268.694 42.8599 268.921 44.4325 269.375 45.7926C269.842 47.1527 270.515 48.2153 271.393 48.9804C272.286 49.7454 273.377 50.128 274.666 50.128ZM177.972 126.274C174.869 126.274 172.213 125.842 170.003 124.978C167.793 124.114 166.057 122.931 164.796 121.429C163.535 119.927 162.777 118.227 162.522 116.329L172.362 115.776C172.546 116.442 172.886 117.023 173.382 117.519C173.892 118.015 174.551 118.397 175.358 118.666C176.18 118.936 177.143 119.07 178.248 119.07C179.991 119.07 181.429 118.645 182.562 117.795C183.71 116.959 184.284 115.493 184.284 113.396V107.658H183.923C183.512 108.664 182.888 109.564 182.052 110.357C181.216 111.15 180.175 111.774 178.928 112.227C177.696 112.681 176.279 112.907 174.678 112.907C172.298 112.907 170.116 112.355 168.133 111.25C166.163 110.13 164.584 108.402 163.393 106.064C162.218 103.712 161.63 100.688 161.63 96.9898C161.63 93.1786 162.239 90.0405 163.457 87.5753C164.676 85.096 166.27 83.2612 168.239 82.0711C170.222 80.881 172.355 80.286 174.636 80.286C176.35 80.286 177.816 80.5835 179.035 81.1786C180.267 81.7594 181.28 82.5103 182.074 83.4312C182.867 84.3521 183.469 85.3085 183.88 86.3002H184.178V80.711H194.527V113.481C194.527 116.244 193.833 118.574 192.444 120.473C191.056 122.371 189.115 123.809 186.621 124.787C184.128 125.779 181.245 126.274 177.972 126.274ZM178.291 105.342C179.552 105.342 180.629 105.009 181.521 104.343C182.414 103.677 183.101 102.721 183.582 101.474C184.064 100.227 184.305 98.7324 184.305 96.9898C184.305 95.2188 184.064 93.6958 183.582 92.4207C183.115 91.1314 182.428 90.1397 181.521 89.4454C180.629 88.7512 179.552 88.4041 178.291 88.4041C177.002 88.4041 175.911 88.7583 175.018 89.4667C174.126 90.1751 173.445 91.1739 172.978 92.4632C172.525 93.7383 172.298 95.2471 172.298 96.9898C172.298 98.7324 172.532 100.227 172.999 101.474C173.467 102.721 174.14 103.677 175.018 104.343C175.911 105.009 177.002 105.342 178.291 105.342ZM209.479 113.906C207.396 113.906 205.548 113.559 203.932 112.865C202.331 112.156 201.063 111.094 200.128 109.677C199.207 108.246 198.747 106.454 198.747 104.3C198.747 102.487 199.066 100.957 199.703 99.71C200.341 98.4632 201.219 97.4502 202.339 96.671C203.458 95.8918 204.747 95.3038 206.206 94.9071C207.666 94.4962 209.224 94.22 210.882 94.0783C212.738 93.9083 214.232 93.7312 215.366 93.547C216.499 93.3487 217.321 93.0724 217.831 92.7182C218.355 92.3498 218.617 91.8327 218.617 91.1668V91.0606C218.617 89.9697 218.242 89.1267 217.491 88.5316C216.74 87.9366 215.727 87.6391 214.452 87.6391C213.078 87.6391 211.973 87.9366 211.137 88.5316C210.301 89.1267 209.77 89.9484 209.543 90.9968L199.958 90.6568C200.242 88.6733 200.971 86.9023 202.147 85.3439C203.337 83.7713 204.967 82.5387 207.035 81.6461C209.118 80.7394 211.618 80.286 214.537 80.286C216.62 80.286 218.539 80.5339 220.296 81.0298C222.053 81.5115 223.583 82.2199 224.887 83.155C226.19 84.0759 227.196 85.2093 227.904 86.5552C228.627 87.9012 228.988 89.4384 228.988 91.1668V113.354H219.212V108.806H218.957C218.376 109.911 217.633 110.846 216.726 111.611C215.833 112.376 214.778 112.95 213.559 113.332C212.355 113.715 210.995 113.906 209.479 113.906ZM212.688 107.106C213.807 107.106 214.813 106.879 215.706 106.425C216.613 105.972 217.335 105.349 217.873 104.555C218.412 103.748 218.681 102.813 218.681 101.75V98.6474C218.384 98.8032 218.022 98.9449 217.597 99.0724C217.186 99.1999 216.733 99.3204 216.237 99.4337C215.741 99.547 215.231 99.6462 214.707 99.7312C214.183 99.8162 213.68 99.8942 213.198 99.965C212.221 100.121 211.385 100.362 210.69 100.688C210.01 101.013 209.486 101.438 209.118 101.963C208.764 102.473 208.587 103.082 208.587 103.79C208.587 104.867 208.969 105.689 209.734 106.255C210.513 106.822 211.498 107.106 212.688 107.106ZM234.467 113.354V80.711H244.349V86.704H244.71C245.391 84.7205 246.538 83.155 248.153 82.0074C249.768 80.8598 251.695 80.286 253.934 80.286C256.201 80.286 258.142 80.8669 259.757 82.0286C261.372 83.1904 262.399 84.7488 262.838 86.704H263.178C263.787 84.763 264.977 83.2116 266.748 82.0499C268.519 80.874 270.609 80.286 273.018 80.286C276.106 80.286 278.614 81.2777 280.541 83.2612C282.468 85.2305 283.431 87.9366 283.431 91.3793V113.354H273.039V93.7595C273.039 92.1302 272.621 90.8906 271.785 90.0405C270.949 89.1763 269.865 88.7441 268.534 88.7441C267.103 88.7441 265.976 89.2117 265.155 90.1468C264.347 91.0677 263.943 92.3073 263.943 93.8658V113.354H253.955V93.6533C253.955 92.1373 253.544 90.9401 252.722 90.0617C251.901 89.1833 250.817 88.7441 249.471 88.7441C248.564 88.7441 247.764 88.9637 247.069 89.4029C246.375 89.828 245.83 90.4372 245.433 91.2306C245.051 92.024 244.859 92.959 244.859 94.0358V113.354H234.467ZM304.254 113.97C300.839 113.97 297.892 113.297 295.413 111.951C292.948 110.591 291.049 108.657 289.718 106.149C288.4 103.627 287.741 100.631 287.741 97.1598C287.741 93.7879 288.407 90.841 289.739 88.3191C291.071 85.7831 292.948 83.8138 295.371 82.4112C297.793 80.9944 300.648 80.286 303.935 80.286C306.258 80.286 308.384 80.6473 310.31 81.3698C312.237 82.0924 313.902 83.1621 315.305 84.5788C316.707 85.9956 317.798 87.7453 318.577 89.828C319.357 91.8965 319.746 94.2696 319.746 96.9473V99.54H291.375V93.5045H310.077C310.062 92.3994 309.8 91.4148 309.29 90.5505C308.78 89.6863 308.079 89.0133 307.186 88.5316C306.308 88.0358 305.295 87.7878 304.147 87.7878C302.986 87.7878 301.944 88.0499 301.023 88.5741C300.103 89.0842 299.373 89.7855 298.835 90.678C298.296 91.5564 298.013 92.5553 297.984 93.6745V99.8162C297.984 101.148 298.247 102.317 298.771 103.323C299.295 104.314 300.039 105.087 301.002 105.639C301.966 106.192 303.113 106.468 304.445 106.468C305.366 106.468 306.202 106.34 306.953 106.085C307.704 105.83 308.348 105.455 308.887 104.959C309.425 104.463 309.829 103.854 310.098 103.131L319.64 103.408C319.243 105.547 318.372 107.41 317.026 108.997C315.694 110.57 313.944 111.795 311.777 112.673C309.609 113.538 307.101 113.97 304.254 113.97ZM352.677 90.678L343.135 90.9331C343.036 90.253 342.767 89.6509 342.328 89.1267C341.888 88.5883 341.315 88.1704 340.606 87.8728C339.912 87.5611 339.104 87.4053 338.183 87.4053C336.979 87.4053 335.952 87.6461 335.102 88.1278C334.266 88.6096 333.855 89.2613 333.869 90.083C333.855 90.7205 334.11 91.2731 334.634 91.7406C335.173 92.2082 336.129 92.5836 337.503 92.867L343.794 94.057C347.052 94.6804 349.475 95.7147 351.062 97.1598C352.663 98.6049 353.47 100.518 353.485 102.898C353.47 105.136 352.805 107.084 351.487 108.742C350.184 110.4 348.398 111.689 346.132 112.61C343.865 113.516 341.272 113.97 338.353 113.97C333.692 113.97 330.016 113.013 327.324 111.101C324.646 109.174 323.116 106.596 322.734 103.365L332.998 103.11C333.225 104.3 333.813 105.207 334.762 105.83C335.711 106.454 336.923 106.766 338.396 106.766C339.728 106.766 340.812 106.518 341.647 106.022C342.483 105.526 342.908 104.867 342.923 104.045C342.908 103.309 342.583 102.721 341.945 102.281C341.307 101.828 340.309 101.474 338.949 101.219L333.253 100.135C329.98 99.54 327.543 98.442 325.943 96.841C324.342 95.2259 323.548 93.1716 323.562 90.678C323.548 88.4962 324.129 86.6332 325.305 85.0889C326.481 83.5304 328.153 82.3403 330.32 81.5186C332.488 80.6969 335.045 80.286 337.992 80.286C342.413 80.286 345.898 81.214 348.448 83.07C350.998 84.9118 352.408 87.4478 352.677 90.678Z" fill="white"/>
<path d="M38.3473 50.9918C34.6083 38.7762 39.875 25.6048 51.0055 19.3348C64.9027 11.5063 82.5225 17.2623 89.118 31.7852L114.192 86.9961C118.454 96.3816 115.523 107.471 107.18 113.524L93.7457 123.273C83.4398 130.751 69.1839 122.293 70.8073 109.664C71.5423 103.946 68.8263 98.3345 63.8858 95.3635L57.66 91.6196C52.2335 88.3563 48.2059 83.2011 46.3527 77.1463L38.3473 50.9918Z" fill="url(#paint0_linear_1213_2)"/>
<path d="M88.7908 51.2261C92.5879 39.0283 87.3839 25.8319 76.2833 19.509C62.4234 11.6144 44.7764 17.2864 38.1118 31.7779L12.7755 86.8686C8.46843 96.2338 11.3465 107.337 19.6606 113.43L33.0489 123.242C43.3191 130.77 57.6151 122.38 56.0518 109.743C55.344 104.021 58.0867 98.4229 63.0413 95.4755L69.2849 91.7612C74.7269 88.5239 78.7789 83.3879 80.661 77.342L88.7908 51.2261Z" fill="url(#paint1_linear_1213_2)"/>
<path d="M38.3473 50.9918C34.6083 38.7762 39.875 25.6048 51.0055 19.3348C64.9027 11.5063 82.5225 17.2623 89.118 31.7852L114.192 86.9961C118.454 96.3816 115.523 107.471 107.18 113.524L93.7457 123.273C83.4398 130.751 69.1839 122.293 70.8073 109.664C71.5423 103.946 68.8263 98.3345 63.8858 95.3635L57.66 91.6196C52.2335 88.3563 48.2059 83.2011 46.3527 77.1463L38.3473 50.9918Z" fill="url(#paint2_linear_1213_2)" fill-opacity="0.1"/>
<path d="M88.7908 51.2261C92.5879 39.0283 87.3839 25.8319 76.2833 19.509C62.4234 11.6144 44.7764 17.2864 38.1118 31.7779L12.7755 86.8686C8.46843 96.2338 11.3465 107.337 19.6606 113.43L33.0489 123.242C43.3191 130.77 57.6151 122.38 56.0518 109.743C55.344 104.021 58.0867 98.4229 63.0413 95.4755L69.2849 91.7612C74.7269 88.5239 78.7789 83.3879 80.661 77.342L88.7908 51.2261Z" fill="url(#paint3_linear_1213_2)" fill-opacity="0.1"/>
<path opacity="0.06" d="M91.5519 48.0232C94.4494 50.2379 95.7563 55.5364 93.6815 58.2556C91.6066 60.9748 86.9342 60.0792 84.0367 57.8787C81.1392 55.6782 80.4726 51.6704 82.5556 48.9492C84.6385 46.228 88.6545 45.8146 91.5519 48.0232Z" fill="#12100B"/>
<path opacity="0.06" d="M48.4182 44.2289C50.7965 46.0434 50.4805 52.2119 47.3871 56.2682C44.2937 60.3245 39.5954 60.7253 37.2172 58.9109C34.8389 57.0964 35.4193 52.3399 38.5111 48.2853C41.6028 44.2306 46.04 42.4145 48.4182 44.2289Z" fill="#12100B"/>
<path d="M105.886 15.3585C106.45 22.3807 106.831 44.8972 90.3598 57.4579C89.4877 58.1191 88.4266 58.4833 87.3322 58.4972C86.2379 58.5111 85.1679 58.1739 84.2792 57.5351C81.8255 55.7678 78.9086 52.203 78.2758 45.1271C78.2264 44.5604 78.3665 43.9934 78.6743 43.515C78.982 43.0365 79.4398 42.6738 79.976 42.4838C84.1399 41.0202 94.7873 35.4448 104.735 15.137C104.793 15.0173 104.89 14.9202 105.009 14.8607C105.129 14.8012 105.264 14.7826 105.395 14.8078C105.526 14.833 105.645 14.9006 105.734 15.0001C105.822 15.0996 105.876 15.2256 105.886 15.3585Z" fill="url(#paint4_linear_1213_2)"/>
<path d="M20.9956 15.3615C20.4317 22.3837 20.0507 44.9002 36.5219 57.4608C37.394 58.1221 38.4551 58.4863 39.5495 58.5002C40.6438 58.5141 41.7138 58.1769 42.6025 57.5381C45.0562 55.7708 47.9732 52.206 48.6059 45.1301C48.6553 44.5634 48.5152 43.9964 48.2075 43.518C47.8997 43.0395 47.4419 42.6768 46.9057 42.4868C42.7418 41.0232 32.0944 35.4478 22.1486 15.14C22.0903 15.0194 21.9939 14.9215 21.8743 14.8615C21.7546 14.8014 21.6185 14.7825 21.487 14.8078C21.3555 14.833 21.2361 14.901 21.1472 15.0012C21.0584 15.1013 21.0051 15.228 20.9956 15.3615Z" fill="url(#paint5_linear_1213_2)"/>
<path d="M61.0064 72.0675C62.098 70.3659 64.5847 70.3659 65.6763 72.0675L70.6109 79.7599C71.7953 81.6062 70.4696 84.0319 68.276 84.0319H58.4066C56.2131 84.0319 54.8873 81.6062 56.0717 79.7599L61.0064 72.0675Z" fill="#171922"/>
<defs>
<linearGradient id="paint0_linear_1213_2" x1="59.7786" y1="7.85297" x2="83.5918" y2="139.952" gradientUnits="userSpaceOnUse">
<stop stop-color="#00B7FB"/>
<stop offset="1" stop-color="#184DDC"/>
</linearGradient>
<linearGradient id="paint1_linear_1213_2" x1="67.565" y1="7.98552" x2="43.1232" y2="139.969" gradientUnits="userSpaceOnUse">
<stop stop-color="#00B7FB"/>
<stop offset="1" stop-color="#1150FA"/>
</linearGradient>
<linearGradient id="paint2_linear_1213_2" x1="59.7786" y1="7.85297" x2="83.5918" y2="139.952" gradientUnits="userSpaceOnUse">
<stop stop-color="white"/>
<stop offset="1" stop-color="#1150FA"/>
</linearGradient>
<linearGradient id="paint3_linear_1213_2" x1="67.565" y1="7.98552" x2="43.1232" y2="139.969" gradientUnits="userSpaceOnUse">
<stop stop-color="white"/>
<stop offset="1" stop-color="#1150FA"/>
</linearGradient>
<linearGradient id="paint4_linear_1213_2" x1="82.7731" y1="49.3998" x2="106.353" y2="36.6853" gradientUnits="userSpaceOnUse">
<stop stop-color="#3ADEFD"/>
<stop offset="1" stop-color="#16C6E7"/>
</linearGradient>
<linearGradient id="paint5_linear_1213_2" x1="20.8057" y1="29.6562" x2="49.2184" y2="29.7694" gradientUnits="userSpaceOnUse">
<stop stop-color="#1056FA"/>
<stop offset="1" stop-color="#00C7F8"/>
</linearGradient>
</defs>
</svg>
