<svg width="100" height="30" viewBox="0 0 100 30" fill="none" xmlns="http://www.w3.org/2000/svg">
<path d="M44.1081 12H41.343L44.9346 1.35537H48.3598L51.9513 12H49.1862L46.6861 4.03732H46.603L44.1081 12ZM43.7391 7.81076H49.5188V9.76504H43.7391V7.81076ZM55.4249 1.35537V12H52.8833V1.35537H55.4249ZM60.5605 12.1507C59.7254 12.1507 59.0047 11.9861 58.3983 11.657C57.7954 11.3243 57.3311 10.8513 57.0054 10.238C56.6831 9.62124 56.522 8.88839 56.522 8.03945C56.522 7.21477 56.6849 6.49404 57.0106 5.87726C57.3363 5.25702 57.7954 4.77537 58.3879 4.43233C58.9804 4.08583 59.6787 3.91258 60.4825 3.91258C61.0508 3.91258 61.5706 4.00094 62.0418 4.17765C62.5131 4.35437 62.9202 4.61598 63.2632 4.96249C63.6063 5.30899 63.8731 5.73692 64.0637 6.24629C64.2543 6.75218 64.3495 7.33258 64.3495 7.98747V8.62158H57.4108V7.14547H61.9846C61.9812 6.87519 61.9171 6.63437 61.7923 6.423C61.6676 6.21164 61.4961 6.04705 61.2778 5.92923C61.0629 5.80796 60.8152 5.74732 60.5345 5.74732C60.2504 5.74732 59.9957 5.81142 59.7705 5.93963C59.5452 6.06437 59.3668 6.23589 59.2351 6.45419C59.1035 6.66902 59.0342 6.91331 59.0272 7.18705V8.68915C59.0272 9.01486 59.0913 9.30073 59.2195 9.54675C59.3477 9.7893 59.5297 9.97814 59.7653 10.1133C60.0009 10.2484 60.2816 10.316 60.6073 10.316C60.8325 10.316 61.037 10.2848 61.2206 10.2224C61.4042 10.1601 61.5619 10.0682 61.6936 9.94696C61.8253 9.82568 61.924 9.67668 61.9898 9.49997L64.3236 9.56754C64.2265 10.0908 64.0134 10.5464 63.6842 10.9345C63.3585 11.3191 62.9306 11.6188 62.4004 11.8337C61.8703 12.045 61.257 12.1507 60.5605 12.1507ZM69.1603 12.1507C68.3217 12.1507 67.601 11.9792 66.9981 11.6362C66.3986 11.2897 65.936 10.808 65.6103 10.1912C65.2881 9.571 65.1269 8.852 65.1269 8.03425C65.1269 7.21304 65.2881 6.49404 65.6103 5.87726C65.936 5.25702 66.3986 4.77537 66.9981 4.43233C67.601 4.08583 68.3217 3.91258 69.1603 3.91258C69.9988 3.91258 70.7178 4.08583 71.3173 4.43233C71.9202 4.77537 72.3828 5.25702 72.705 5.87726C73.0307 6.49404 73.1936 7.21304 73.1936 8.03425C73.1936 8.852 73.0307 9.571 72.705 10.1912C72.3828 10.808 71.9202 11.2897 71.3173 11.6362C70.7178 11.9792 69.9988 12.1507 69.1603 12.1507ZM69.1759 10.2328C69.4808 10.2328 69.7389 10.1393 69.9503 9.95216C70.1617 9.76504 70.3228 9.50517 70.4337 9.17252C70.548 8.83988 70.6052 8.45526 70.6052 8.01866C70.6052 7.57513 70.548 7.18705 70.4337 6.8544C70.3228 6.52176 70.1617 6.26188 69.9503 6.07477C69.7389 5.88765 69.4808 5.7941 69.1759 5.7941C68.8605 5.7941 68.5937 5.88765 68.3754 6.07477C68.1606 6.26188 67.996 6.52176 67.8817 6.8544C67.7708 7.18705 67.7153 7.57513 67.7153 8.01866C67.7153 8.45526 67.7708 8.83988 67.8817 9.17252C67.996 9.50517 68.1606 9.76504 68.3754 9.95216C68.5937 10.1393 68.8605 10.2328 69.1759 10.2328ZM45.5271 29.1601C44.7682 29.1601 44.1185 29.0544 43.578 28.8431C43.0374 28.6317 42.613 28.3424 42.3046 27.9751C41.9962 27.6078 41.8108 27.192 41.7485 26.7277L44.1549 26.5925C44.2 26.7554 44.2831 26.8974 44.4044 27.0187C44.5292 27.14 44.6903 27.2336 44.8878 27.2994C45.0888 27.3652 45.3244 27.3981 45.5947 27.3981C46.0209 27.3981 46.3726 27.2942 46.6498 27.0863C46.9304 26.8819 47.0708 26.5232 47.0708 26.0104V24.6071H46.9824C46.8819 24.8531 46.7295 25.0731 46.525 25.2671C46.3206 25.4612 46.0659 25.6136 45.761 25.7245C45.4595 25.8354 45.113 25.8909 44.7215 25.8909C44.1393 25.8909 43.6057 25.7557 43.1206 25.4854C42.639 25.2117 42.2526 24.789 41.9616 24.2172C41.674 23.642 41.5302 22.9022 41.5302 21.9979C41.5302 21.0658 41.6791 20.2983 41.9771 19.6953C42.2751 19.089 42.665 18.6402 43.1466 18.3492C43.6317 18.0581 44.1532 17.9126 44.7111 17.9126C45.1303 17.9126 45.489 17.9853 45.787 18.1309C46.0884 18.2729 46.3362 18.4566 46.5302 18.6818C46.7243 18.907 46.8715 19.1409 46.972 19.3835H47.0448V18.0165H49.576V26.0312C49.576 26.7069 49.4062 27.2769 49.0666 27.7412C48.7271 28.2055 48.2523 28.5572 47.6425 28.7963C47.0326 29.0388 46.3275 29.1601 45.5271 29.1601ZM45.605 24.0405C45.9134 24.0405 46.1768 23.9591 46.3951 23.7962C46.6134 23.6334 46.7814 23.3995 46.8992 23.0946C47.0171 22.7896 47.076 22.4241 47.076 21.9979C47.076 21.5647 47.0171 21.1922 46.8992 20.8804C46.7849 20.5651 46.6168 20.3225 46.3951 20.1527C46.1768 19.9829 45.9134 19.898 45.605 19.898C45.2897 19.898 45.0229 19.9847 44.8046 20.1579C44.5863 20.3312 44.42 20.5755 44.3057 20.8908C44.1948 21.2026 44.1393 21.5717 44.1393 21.9979C44.1393 22.4241 44.1965 22.7896 44.3109 23.0946C44.4252 23.3995 44.5898 23.6334 44.8046 23.7962C45.0229 23.9591 45.2897 24.0405 45.605 24.0405ZM53.2329 26.1351C52.7235 26.1351 52.2713 26.0502 51.8763 25.8805C51.4847 25.7072 51.1746 25.4473 50.9459 25.1008C50.7207 24.7508 50.6081 24.3125 50.6081 23.7858C50.6081 23.3423 50.686 22.9681 50.842 22.6632C50.9979 22.3582 51.2127 22.1105 51.4865 21.9199C51.7602 21.7293 52.0755 21.5855 52.4324 21.4885C52.7893 21.388 53.1705 21.3205 53.5759 21.2858C54.0298 21.2442 54.3954 21.2009 54.6726 21.1559C54.9498 21.1074 55.1508 21.0398 55.2755 20.9532C55.4037 20.8631 55.4678 20.7366 55.4678 20.5737V20.5477C55.4678 20.2809 55.376 20.0748 55.1923 19.9292C55.0087 19.7837 54.7609 19.7109 54.4491 19.7109C54.113 19.7109 53.8427 19.7837 53.6383 19.9292C53.4338 20.0748 53.3039 20.2757 53.2485 20.5322L50.9043 20.449C50.9736 19.9639 51.1521 19.5308 51.4397 19.1496C51.7308 18.765 52.1292 18.4635 52.6351 18.2452C53.1445 18.0235 53.7561 17.9126 54.4699 17.9126C54.9792 17.9126 55.4488 17.9732 55.8784 18.0945C56.3081 18.2123 56.6823 18.3856 57.0011 18.6142C57.3199 18.8395 57.5659 19.1167 57.7392 19.4459C57.9159 19.775 58.0042 20.151 58.0042 20.5737V26H55.6133V24.8877H55.551C55.4089 25.158 55.227 25.3867 55.0052 25.5738C54.7869 25.7609 54.5288 25.9012 54.2308 25.9948C53.9363 26.0884 53.6036 26.1351 53.2329 26.1351ZM54.0177 24.4719C54.2914 24.4719 54.5375 24.4165 54.7557 24.3056C54.9775 24.1947 55.1542 24.0422 55.2859 23.8482C55.4176 23.6507 55.4834 23.422 55.4834 23.1621V22.4033C55.4106 22.4414 55.3223 22.476 55.2183 22.5072C55.1178 22.5384 55.007 22.5679 54.8857 22.5956C54.7644 22.6233 54.6397 22.6476 54.5115 22.6684C54.3833 22.6891 54.2602 22.7082 54.1424 22.7255C53.9033 22.7636 53.6989 22.8226 53.5291 22.9022C53.3628 22.9819 53.2346 23.0859 53.1445 23.2141C53.0579 23.3388 53.0146 23.4878 53.0146 23.6611C53.0146 23.9244 53.1081 24.1254 53.2952 24.264C53.4858 24.4026 53.7266 24.4719 54.0177 24.4719ZM59.3443 26V18.0165H61.7611V19.4822H61.8495C62.0158 18.9971 62.2965 18.6142 62.6915 18.3336C63.0865 18.0529 63.5578 17.9126 64.1053 17.9126C64.6597 17.9126 65.1344 18.0546 65.5294 18.3388C65.9244 18.6229 66.1756 19.0041 66.283 19.4822H66.3662C66.5152 19.0075 66.8063 18.6281 67.2394 18.344C67.6725 18.0564 68.1836 17.9126 68.7727 17.9126C69.5281 17.9126 70.1414 18.1551 70.6126 18.6402C71.0839 19.1219 71.3195 19.7837 71.3195 20.6257V26H68.7779V21.2078C68.7779 20.8094 68.6757 20.5062 68.4712 20.2983C68.2668 20.0869 68.0017 19.9812 67.676 19.9812C67.326 19.9812 67.0505 20.0956 66.8496 20.3243C66.6521 20.5495 66.5533 20.8527 66.5533 21.2338V26H64.1105V21.1818C64.1105 20.8111 64.01 20.5183 63.809 20.3035C63.608 20.0886 63.3429 19.9812 63.0138 19.9812C62.792 19.9812 62.5962 20.0349 62.4264 20.1423C62.2566 20.2463 62.1232 20.3953 62.0262 20.5893C61.9327 20.7834 61.8859 21.0121 61.8859 21.2754V26H59.3443ZM76.4122 26.1507C75.5771 26.1507 74.8564 25.9861 74.25 25.657C73.6471 25.3243 73.1828 24.8513 72.857 24.238C72.5348 23.6212 72.3737 22.8884 72.3737 22.0394C72.3737 21.2148 72.5365 20.494 72.8622 19.8773C73.188 19.257 73.6471 18.7754 74.2396 18.4323C74.8321 18.0858 75.5303 17.9126 76.3342 17.9126C76.9025 17.9126 77.4222 18.0009 77.8935 18.1777C78.3647 18.3544 78.7719 18.616 79.1149 18.9625C79.458 19.309 79.7248 19.7369 79.9153 20.2463C80.1059 20.7522 80.2012 21.3326 80.2012 21.9875V22.6216H73.2624V21.1455H77.8363C77.8328 20.8752 77.7687 20.6344 77.644 20.423C77.5193 20.2116 77.3477 20.047 77.1294 19.9292C76.9146 19.808 76.6669 19.7473 76.3862 19.7473C76.1021 19.7473 75.8474 19.8114 75.6221 19.9396C75.3969 20.0644 75.2185 20.2359 75.0868 20.4542C74.9551 20.669 74.8858 20.9133 74.8789 21.187V22.6891C74.8789 23.0149 74.943 23.3007 75.0712 23.5467C75.1994 23.7893 75.3813 23.9781 75.6169 24.1133C75.8526 24.2484 76.1332 24.316 76.459 24.316C76.6842 24.316 76.8886 24.2848 77.0723 24.2224C77.2559 24.1601 77.4136 24.0682 77.5452 23.947C77.6769 23.8257 77.7757 23.6767 77.8415 23.5L80.1752 23.5675C80.0782 24.0908 79.8651 24.5464 79.5359 24.9345C79.2102 25.3191 78.7823 25.6188 78.2521 25.8337C77.722 26.045 77.1087 26.1507 76.4122 26.1507ZM88.2552 20.4542L85.9215 20.5166C85.8973 20.3502 85.8314 20.203 85.724 20.0748C85.6166 19.9431 85.4762 19.8409 85.303 19.7681C85.1332 19.6919 84.9357 19.6538 84.7105 19.6538C84.4159 19.6538 84.1647 19.7127 83.9568 19.8305C83.7524 19.9483 83.6519 20.1077 83.6554 20.3087C83.6519 20.4646 83.7143 20.5997 83.8425 20.7141C83.9742 20.8284 84.208 20.9202 84.5442 20.9895L86.0826 21.2806C86.8796 21.4331 87.4721 21.686 87.8602 22.0394C88.2518 22.3929 88.4493 22.8607 88.4527 23.4428C88.4493 23.9903 88.2864 24.4667 87.9642 24.8721C87.6454 25.2775 87.2088 25.5929 86.6544 25.8181C86.1 26.0398 85.4659 26.1507 84.7521 26.1507C83.6121 26.1507 82.7129 25.9168 82.0545 25.4491C81.3996 24.9778 81.0254 24.3472 80.9318 23.5571L83.4423 23.4948C83.4977 23.7858 83.6415 24.0076 83.8737 24.1601C84.1058 24.3125 84.4021 24.3888 84.7624 24.3888C85.0882 24.3888 85.3532 24.3281 85.5577 24.2068C85.7621 24.0856 85.8661 23.9244 85.8695 23.7235C85.8661 23.5433 85.7864 23.3995 85.6304 23.2921C85.4745 23.1812 85.2302 23.0946 84.8976 23.0322L83.5046 22.7671C82.7042 22.6216 82.1082 22.353 81.7167 21.9615C81.3251 21.5665 81.1311 21.064 81.1345 20.4542C81.1311 19.9206 81.2731 19.4649 81.5607 19.0872C81.8483 18.7061 82.2572 18.415 82.7874 18.214C83.3175 18.0131 83.943 17.9126 84.6637 17.9126C85.7448 17.9126 86.5972 18.1395 87.2209 18.5935C87.8446 19.0439 88.1894 19.6642 88.2552 20.4542Z" fill="white"/>
<rect width="7.4493" height="28.7535" rx="3.72465" transform="matrix(0.864152 0.503231 -0.506684 0.862132 14.5688 0.0169296)" fill="url(#paint0_linear_601_2)"/>
<rect width="7.44947" height="28.7528" rx="3.72473" transform="matrix(0.867016 -0.49828 0.501722 0.865029 11.1152 3.71191)" fill="url(#paint1_linear_601_2)"/>
<path opacity="0.06" d="M24.068 10.8753C24.9399 11.5387 25.3332 13.1259 24.7088 13.9404C24.0844 14.7549 22.6784 14.4867 21.8064 13.8275C20.9345 13.1684 20.7339 11.9678 21.3607 11.1527C21.9875 10.3376 23.196 10.2137 24.068 10.8753Z" fill="#12100B"/>
<path opacity="0.06" d="M11.0877 10.0461C11.8034 10.5896 11.7083 12.4374 10.7774 13.6524C9.84651 14.8675 8.43267 14.9876 7.71699 14.4441C7.00131 13.9005 7.17598 12.4757 8.10636 11.2612C9.03674 10.0466 10.372 9.50257 11.0877 10.0461Z" fill="#12100B"/>
<path d="M28.3814 1.0903C28.5511 3.19378 28.6658 9.93859 23.7091 13.7011C23.4467 13.8992 23.1274 14.0083 22.7981 14.0125C22.4687 14.0166 22.1467 13.9156 21.8793 13.7242C21.1409 13.1949 20.2632 12.127 20.0727 10.0075C20.0579 9.83771 20.1 9.66785 20.1926 9.52454C20.2852 9.38122 20.423 9.27257 20.5844 9.21564C21.8374 8.77725 25.0415 7.10713 28.035 1.02394C28.0526 0.98808 28.0816 0.958998 28.1175 0.94118C28.1535 0.923362 28.1943 0.917798 28.2337 0.925344C28.2731 0.932891 28.3089 0.95313 28.3356 0.982941C28.3623 1.01275 28.3784 1.05048 28.3814 1.0903Z" fill="url(#paint2_linear_601_2)"/>
<path d="M2.83548 1.39856C2.66578 3.50204 2.55113 10.2468 7.50775 14.0094C7.7702 14.2074 8.08951 14.3166 8.41884 14.3207C8.74816 14.3249 9.07015 14.2239 9.33757 14.0325C10.076 13.5031 10.9537 12.4353 11.1442 10.3157C11.159 10.146 11.1169 9.9761 11.0243 9.83279C10.9317 9.68948 10.7939 9.58083 10.6325 9.52389C9.37949 9.0855 6.17541 7.41539 3.18245 1.3322C3.16492 1.29609 3.13589 1.26677 3.09989 1.24877C3.06388 1.23078 3.02292 1.22513 2.98335 1.23269C2.94379 1.24026 2.90785 1.26062 2.88111 1.29062C2.85436 1.32061 2.83833 1.35856 2.83548 1.39856Z" fill="url(#paint3_linear_601_2)"/>
<defs>
<linearGradient id="paint0_linear_601_2" x1="3.72465" y1="0" x2="3.72465" y2="28.7535" gradientUnits="userSpaceOnUse">
<stop stop-color="#00B7FB"/>
<stop offset="1" stop-color="#1150FA"/>
</linearGradient>
<linearGradient id="paint1_linear_601_2" x1="3.72473" y1="0" x2="3.72473" y2="28.7528" gradientUnits="userSpaceOnUse">
<stop stop-color="#00C1FA"/>
<stop offset="1" stop-color="#00E9EF"/>
</linearGradient>
<linearGradient id="paint2_linear_601_2" x1="21.4261" y1="11.2873" x2="28.5071" y2="7.45157" gradientUnits="userSpaceOnUse">
<stop stop-color="#3ADEFD"/>
<stop offset="1" stop-color="#16C6E7"/>
</linearGradient>
<linearGradient id="paint3_linear_601_2" x1="2.77832" y1="5.68051" x2="11.3285" y2="5.71475" gradientUnits="userSpaceOnUse">
<stop stop-color="#1056FA"/>
<stop offset="1" stop-color="#00C7F8"/>
</linearGradient>
</defs>
</svg>
