<svg width="61" height="18" viewBox="0 0 61 18" fill="none" xmlns="http://www.w3.org/2000/svg">
<rect x="8.72559" y="0.697342" width="4.30872" height="16.6687" rx="2.15436" transform="rotate(30.3285 8.72559 0.697342)" fill="url(#paint0_linear_134_390)"/>
<rect x="6.73047" y="2.84186" width="4.30872" height="16.6687" rx="2.15436" transform="rotate(-30 6.73047 2.84186)" fill="url(#paint1_linear_134_390)"/>
<path d="M28.5625 14.3633H25.5874L29.4516 2.91026H33.137L37.0012 14.3633H34.0261L31.3362 5.79588H31.2468L28.5625 14.3633ZM28.1654 9.85589H34.384V11.9586H28.1654V9.85589ZM40.7642 2.91026V14.3633H38.0296V2.91026H40.7642ZM46.3154 14.5255C45.4169 14.5255 44.6414 14.3484 43.989 13.9942C43.3403 13.6363 42.8407 13.1274 42.4903 12.4675C42.1435 11.8039 41.9702 11.0154 41.9702 10.102C41.9702 9.21464 42.1454 8.43917 42.4959 7.77556C42.8463 7.10821 43.3403 6.58999 43.9778 6.2209C44.6153 5.84808 45.3666 5.66167 46.2315 5.66167C46.8429 5.66167 47.4022 5.75674 47.9092 5.94687C48.4162 6.13701 48.8543 6.41849 49.2234 6.79131C49.5925 7.16413 49.8796 7.62456 50.0846 8.17261C50.2897 8.71693 50.3922 9.3414 50.3922 10.046V10.7283H42.9265V9.14008H47.8477C47.844 8.84928 47.775 8.59017 47.6408 8.36275C47.5066 8.13533 47.322 7.95824 47.0871 7.83148C46.856 7.70099 46.5894 7.63575 46.2874 7.63575C45.9817 7.63575 45.7077 7.70472 45.4654 7.84266C45.223 7.97688 45.031 8.16142 44.8894 8.3963C44.7477 8.62745 44.6731 8.89029 44.6657 9.18481V10.801C44.6657 11.1514 44.7346 11.459 44.8726 11.7237C45.0105 11.9847 45.2063 12.1879 45.4598 12.3333C45.7133 12.4787 46.0153 12.5514 46.3657 12.5514C46.6081 12.5514 46.828 12.5178 47.0256 12.4507C47.2232 12.3836 47.3928 12.2848 47.5345 12.1543C47.6762 12.0238 47.7824 11.8635 47.8533 11.6734L50.3642 11.7461C50.2598 12.309 50.0305 12.7993 49.6764 13.2169C49.3259 13.6307 48.8655 13.9532 48.2951 14.1843C47.7247 14.4117 47.0648 14.5255 46.3154 14.5255ZM55.5938 14.5255C54.6916 14.5255 53.9161 14.3409 53.2674 13.9718C52.6224 13.599 52.1247 13.0808 51.7743 12.4172C51.4275 11.7498 51.2542 10.9762 51.2542 10.0964C51.2542 9.21278 51.4275 8.43917 51.7743 7.77556C52.1247 7.10821 52.6224 6.58999 53.2674 6.2209C53.9161 5.84808 54.6916 5.66167 55.5938 5.66167C56.496 5.66167 57.2696 5.84808 57.9146 6.2209C58.5633 6.58999 59.061 7.10821 59.4078 7.77556C59.7582 8.43917 59.9334 9.21278 59.9334 10.0964C59.9334 10.9762 59.7582 11.7498 59.4078 12.4172C59.061 13.0808 58.5633 13.599 57.9146 13.9718C57.2696 14.3409 56.496 14.5255 55.5938 14.5255ZM55.6106 12.4619C55.9387 12.4619 56.2164 12.3612 56.4438 12.1599C56.6713 11.9586 56.8446 11.679 56.9639 11.3211C57.087 10.9632 57.1485 10.5493 57.1485 10.0796C57.1485 9.60237 57.087 9.18481 56.9639 8.82691C56.8446 8.469 56.6713 8.18939 56.4438 7.98806C56.2164 7.78674 55.9387 7.68608 55.6106 7.68608C55.2713 7.68608 54.9842 7.78674 54.7494 7.98806C54.5182 8.18939 54.3411 8.469 54.2181 8.82691C54.0988 9.18481 54.0391 9.60237 54.0391 10.0796C54.0391 10.5493 54.0988 10.9632 54.2181 11.3211C54.3411 11.679 54.5182 11.9586 54.7494 12.1599C54.9842 12.3612 55.2713 12.4619 55.6106 12.4619Z" fill="white"/>
<defs>
<linearGradient id="paint0_linear_134_390" x1="10.8799" y1="0.697342" x2="10.8799" y2="17.366" gradientUnits="userSpaceOnUse">
<stop stop-color="#00B7FB"/>
<stop offset="1" stop-color="#1150FA"/>
</linearGradient>
<linearGradient id="paint1_linear_134_390" x1="8.88483" y1="2.84186" x2="8.88483" y2="19.5105" gradientUnits="userSpaceOnUse">
<stop stop-color="#00C1FA"/>
<stop offset="1" stop-color="#00E9EF"/>
</linearGradient>
</defs>
</svg>
