<svg width="288" height="347" viewBox="0 0 288 347" fill="none" xmlns="http://www.w3.org/2000/svg">
<path d="M18.5367 16L50.3629 33.1734L79.4745 50.8194C81.6721 52.1515 84.1058 53.0475 86.6425 53.4586L124.85 59.6497C126.672 59.945 128.444 60.491 130.117 61.2724L137.733 64.831C152.365 71.6669 153.279 92.1292 139.316 100.243L131.651 104.698C129.789 105.78 127.765 106.554 125.656 106.99L86.7107 115.052C83.9341 115.627 81.3115 116.786 79.0168 118.451L50.084 139.452C48.5185 140.588 46.7476 141.41 44.8693 141.872V141.872C30.7812 145.337 29.3774 164.814 42.823 170.263L63.4143 178.609C65.0015 179.252 66.6647 179.689 68.3631 179.908L104.161 184.535C107.866 185.013 111.362 186.52 114.255 188.885L128.797 200.771C130.342 202.035 132.159 202.923 134.105 203.367L149.353 206.85C160.68 209.437 159.731 225.873 148.182 227.139V227.139C147.639 227.199 147.101 227.301 146.575 227.446L113.409 236.557C111.043 237.208 108.577 237.417 106.135 237.174L82.8975 234.866C75.2769 234.11 67.8932 237.771 63.8828 244.295L62.6387 246.319C60.1928 250.298 56.4315 253.295 52.0071 254.792L33.9824 260.887C32.345 261.44 30.8 262.237 29.3993 263.25V263.25C19.162 270.652 20.0883 286.184 31.1328 292.318L40.6957 297.628C41.9841 298.344 43.3476 298.915 44.7615 299.33L64.4367 305.118C68.3449 306.268 71.8088 308.583 74.3651 311.755L84.8299 324.74C89.3904 330.399 96.6618 333.138 103.822 331.896L125.305 328.167C129.117 327.505 133.04 327.964 136.597 329.486L175.171 346" stroke="#05A2F8" stroke-width="0.3" stroke-dasharray="1 4"/>
<g filter="url(#filter0_b_1201_2)">
<rect x="4" width="142.074" height="37" rx="2.73878" fill="url(#paint0_linear_1201_2)" fill-opacity="0.2"/>
<rect x="4.07884" y="0.0788426" width="141.917" height="36.8423" rx="2.65994" stroke="url(#paint1_radial_1201_2)" stroke-width="0.157685"/>
<rect x="4.07884" y="0.0788426" width="141.917" height="36.8423" rx="2.65994" stroke="url(#paint2_radial_1201_2)" stroke-opacity="0.2" stroke-width="0.157685"/>
</g>
<path d="M43.0999 15.888H43.9718V17.1277H43.0999V15.888ZM40.6545 16.501H46.4785V18.1154H45.6066V17.2571H41.4855V18.1154H40.6545V16.501ZM42.8547 17.4206L43.713 17.6045C43.1953 18.7012 42.5005 20.0568 42.01 20.9082L41.1517 20.6766C41.6626 19.8456 42.3847 18.4696 42.8547 17.4206ZM44.5712 18.9805L45.4976 19.1031C44.8982 21.1943 43.4677 21.9573 41.1313 22.2979C41.0564 22.1003 40.8179 21.7325 40.6681 21.5486C42.9024 21.3306 44.2034 20.7243 44.5712 18.9805ZM40.5182 18.4356H46.6011V19.2053H40.5182V18.4356ZM41.6626 20.5336L42.2552 19.9682C43.5699 20.3292 45.375 21.024 46.3287 21.6099L45.6679 22.2774C44.8096 21.7052 43.0386 20.9423 41.6626 20.5336ZM49.7763 19.0486H50.6074V19.9274H49.7763V19.0486ZM49.6946 19.7094L50.3281 19.9818C49.6674 20.6358 48.5502 21.1126 47.4195 21.3238C47.3241 21.1467 47.1266 20.881 46.9835 20.738C48.0598 20.5745 49.1497 20.2066 49.6946 19.7094ZM50.7436 19.723C51.1455 20.7584 52.031 21.4191 53.4411 21.6507C53.2776 21.8074 53.0732 22.1071 52.9847 22.3115C51.4384 21.9845 50.5665 21.1875 50.0556 19.866L50.7436 19.723ZM52.4602 20.0636L53.0392 20.4927C52.6237 20.7856 52.0855 21.0717 51.6768 21.2488L51.1932 20.8538C51.5951 20.663 52.14 20.3224 52.4602 20.0636ZM47.8009 21.5622C48.5366 21.4804 49.6537 21.3306 50.6891 21.1875L50.73 21.8551C49.7491 22.0049 48.6933 22.148 47.9303 22.257L47.8009 21.5622ZM47.1061 19.5186H53.3185V20.1317H47.1061V19.5186ZM49.5107 16.6849H53.3048V17.3866H49.5107V16.6849ZM49.681 18.1903H53.1277V18.892H49.681V18.1903ZM48.4821 15.8948H49.2382V19.1917H48.4821V15.8948ZM50.9616 15.8948H51.779V18.674H50.9616V15.8948ZM47.1266 16.6645L47.5966 16.2013C47.8895 16.3988 48.2777 16.6849 48.4617 16.8893L47.9644 17.407C47.7941 17.1958 47.4263 16.8757 47.1266 16.6645ZM46.9971 18.238C47.3513 18.1154 47.8418 17.9111 48.3459 17.6999L48.5093 18.347C48.0938 18.5377 47.6511 18.7353 47.2628 18.9056L46.9971 18.238ZM48.5707 20.7924L49.0202 20.3429L49.354 20.4519V21.8142H48.5707V20.7924ZM53.7553 17.9179H57.025V18.674H53.7553V17.9179ZM57.3519 16.719H58.1489V20.5472H57.3519V16.719ZM55.0564 16.5691H55.8602V22.2842H55.0564V16.5691ZM58.9663 16.0242H59.7769V21.2897C59.7769 21.7733 59.6816 21.9981 59.4023 22.1344C59.1162 22.2638 58.6666 22.291 58.0399 22.291C57.9991 22.0526 57.8696 21.678 57.7538 21.4464C58.2034 21.46 58.6394 21.46 58.7824 21.46C58.9118 21.46 58.9663 21.4191 58.9663 21.2897V16.0242ZM56.4255 15.922L57.0114 16.5487C56.1463 16.8893 54.9474 17.1209 53.9188 17.2639C53.8847 17.08 53.7689 16.7939 53.6736 16.6236C54.6681 16.4738 55.7648 16.2217 56.4255 15.922ZM55.0496 18.2789L55.6013 18.5173C55.2607 19.5391 54.6613 20.7584 54.021 21.4396C53.9392 21.1943 53.7349 20.8538 53.5987 20.6358C54.1845 20.0704 54.7771 19.0759 55.0496 18.2789ZM55.7376 18.9669C56.0032 19.1372 56.8479 19.8456 57.0454 20.0227L56.5822 20.7243C56.2825 20.3565 55.649 19.6958 55.3152 19.3892L55.7376 18.9669ZM60.9767 16.3716H66.1264V19.9478H65.3226V17.0187H61.7396V19.9478H60.9767V16.3716ZM60.4181 20.1113H66.6305V20.7856H60.4181V20.1113ZM61.978 18.1835H65.0978V18.6672H61.978V18.1835ZM62.9998 19.7843H63.8513C63.6946 21.2216 63.2791 21.9777 60.6702 22.2842C60.6157 22.0799 60.4386 21.7665 60.3023 21.5962C62.6184 21.3851 62.8772 20.8742 62.9998 19.7843ZM64.0011 20.3429C64.369 21.1739 65.2 21.4872 66.7395 21.5281C66.5624 21.7188 66.358 22.0594 66.2627 22.3047C64.5325 22.1548 63.7219 21.6575 63.2314 20.4246L64.0011 20.3429ZM63.2042 17.4479H63.8172V19.614H63.2042V17.4479ZM64.2872 17.6795L64.7845 17.8225C64.6619 18.0064 64.5597 18.1699 64.478 18.2993L64.0761 18.1631C64.151 18.0201 64.2396 17.8157 64.2872 17.6795ZM62.305 17.8566L62.7546 17.7271C62.8363 17.8566 62.9181 18.0405 62.9521 18.1631L62.4821 18.3198C62.4549 18.1903 62.3799 17.9928 62.305 17.8566ZM63.4153 18.9192L63.7491 18.5309C64.1987 18.7489 64.8254 19.0895 65.1523 19.3075L64.8049 19.7502C64.4984 19.5255 63.8785 19.1644 63.4153 18.9192ZM63.1633 15.8948L64.0625 15.9697C63.9194 16.2967 63.7764 16.5828 63.6674 16.7803L62.8908 16.6849C62.993 16.4465 63.1088 16.1264 63.1633 15.8948ZM63.1361 18.4492L63.6061 18.6399C63.2995 19.0963 62.741 19.5731 62.2301 19.8116C62.1347 19.6753 61.9644 19.471 61.835 19.3688C62.3186 19.1849 62.8568 18.8102 63.1361 18.4492ZM64.7164 17.1209L65.0365 17.5364C64.2668 17.6727 63.0952 17.7408 62.1483 17.7408C62.1279 17.625 62.0734 17.4411 62.0189 17.3252C62.9385 17.298 64.0693 17.2367 64.7164 17.1209ZM67.912 15.9084L68.6341 16.1264C68.348 16.9234 67.8575 17.7476 67.3126 18.2653C67.2581 18.0882 67.0605 17.659 66.9311 17.4683C67.3398 17.0868 67.7077 16.5146 67.912 15.9084ZM67.9052 16.5351H69.5945V17.3116H67.7417L67.9052 16.5351ZM68.0551 22.2706L67.912 21.5486L68.13 21.2965L69.5877 20.4859C69.6081 20.7039 69.6899 21.024 69.758 21.1875C68.4229 21.9709 68.1845 22.1276 68.0551 22.2706ZM67.5237 17.8293H69.4992V18.5582H67.5237V17.8293ZM67.1627 19.2257H69.5945V19.9546H67.1627V19.2257ZM69.7989 17.4615L72.98 16.9778L73.1094 17.6863L69.9351 18.1903L69.7989 17.4615ZM69.649 18.9328L73.1571 18.2925L73.2865 19.0009L69.7784 19.6549L69.649 18.9328ZM70.6776 15.8675H71.461C71.4133 18.6467 71.9582 21.5009 72.5985 21.5077C72.7279 21.5077 72.7892 21.3306 72.8165 20.7856C72.9732 20.9627 73.2116 21.133 73.3819 21.2148C73.2524 22.0458 73.0413 22.2706 72.51 22.2706C71.1408 22.2706 70.6912 18.9533 70.6776 15.8675ZM71.5768 16.3852L72.0536 15.9561C72.3329 16.1196 72.7143 16.3784 72.9119 16.5487L72.4214 17.0323C72.2307 16.8484 71.856 16.5691 71.5768 16.3852ZM72.6462 19.287L73.3274 19.5799C72.6121 20.8061 71.4201 21.6712 70.0645 22.2025C69.9555 22.0049 69.758 21.7257 69.5673 21.5486C70.8479 21.1194 72.0195 20.3497 72.6462 19.287ZM68.0551 22.2706C67.9869 22.1139 67.7894 21.8415 67.6736 21.7325C67.8166 21.6167 68.0482 21.3578 68.0482 21.0036V18.0064H68.7771V21.4328C68.7771 21.4328 68.0551 21.9981 68.0551 22.2706ZM75.2288 15.8607L76.0939 16.1059C75.6647 17.155 74.9767 18.1767 74.2819 18.8238C74.1253 18.6604 73.771 18.3606 73.5599 18.2312C74.2547 17.6863 74.8746 16.7803 75.2288 15.8607ZM75.365 16.6509H78.9889V17.4206H74.9767L75.365 16.6509ZM78.7436 16.6509H79.5679C79.5679 16.6509 79.5679 16.8893 79.5611 16.9983C79.4998 19.1712 79.4384 19.9955 79.2409 20.2611C79.0979 20.4655 78.9412 20.5336 78.7232 20.5677C78.5325 20.6085 78.226 20.6017 77.8854 20.6017C77.8786 20.3633 77.79 20.0363 77.6674 19.8184C77.9262 19.8524 78.1578 19.8524 78.2804 19.8524C78.3826 19.8524 78.4507 19.8252 78.5052 19.7502C78.6347 19.5799 78.696 18.8511 78.7436 16.8076V16.6509ZM74.9904 19.4778H76.8568V18.6535H74.8609V17.9383H77.6606V20.1998H74.9904V19.4778ZM74.6225 19.4778H75.4331V21.1398C75.4331 21.4259 75.5557 21.4736 76.2778 21.4736C76.5979 21.4736 78.008 21.4736 78.4235 21.4736C79.0025 21.4736 79.0979 21.3578 79.166 20.6562C79.3635 20.772 79.7177 20.9014 79.9493 20.9423C79.8131 21.9845 79.5406 22.2365 78.4507 22.2365C78.1578 22.2365 76.5503 22.2365 76.2642 22.2365C74.9904 22.2365 74.6225 22.0118 74.6225 21.1535V19.4778ZM82.4025 17.0596H86.4282V17.8498H82.4025V17.0596ZM83.254 16.0787H84.0646V18.2993C84.0646 19.2394 83.9147 20.4995 83.0428 21.2216C82.927 21.0649 82.6068 20.7516 82.4365 20.6426C83.1858 20.0159 83.254 19.0759 83.254 18.2857V16.0787ZM82.3412 18.8034H86.5713V19.5799H82.3412V18.8034ZM81.9733 18.3675V21.0854H81.1695V19.1236H80.3726V18.3675H81.9733ZM81.551 20.6903C81.7894 20.6903 81.9665 20.881 82.3548 21.099C82.818 21.3578 83.4447 21.3987 84.2076 21.3987C84.9296 21.3987 86.04 21.3374 86.728 21.2352C86.6394 21.46 86.5032 21.8619 86.4895 22.0867C86.0059 22.1207 84.8752 22.1616 84.1804 22.1616C83.3153 22.1616 82.7363 22.0799 82.2322 21.8074C81.9188 21.6371 81.6941 21.4328 81.5374 21.4328C81.333 21.4328 81.0333 21.8755 80.7813 22.2774L80.2363 21.5009C80.6995 21.0104 81.2036 20.6903 81.551 20.6903ZM80.4952 16.4806L81.0742 16.0174C81.442 16.3444 81.9325 16.8076 82.1641 17.1141L81.5374 17.6386C81.333 17.3184 80.863 16.8212 80.4952 16.4806ZM84.8343 16.0855H85.6517V21.1126H84.8343V16.0855ZM89.7805 16.283H93.1115V17.0596H89.7805V16.283ZM91.5107 18.4015H92.3486V21.3442C92.3486 21.7802 92.26 22.0118 91.9603 22.1412C91.6674 22.2638 91.2383 22.2706 90.6252 22.2706C90.598 22.0322 90.489 21.678 90.38 21.4396C90.7682 21.46 91.2178 21.46 91.3404 21.46C91.4699 21.4532 91.5107 21.4259 91.5107 21.3238V18.4015ZM89.4876 18.1699H93.2886V18.9465H89.4876V18.1699ZM87.9618 18.9737L88.677 18.2585L88.7792 18.2993V22.2979H87.9618V18.9737ZM88.7315 17.3797L89.5081 17.6727C88.9699 18.5786 88.1321 19.5323 87.4032 20.1317C87.2874 19.9614 87.0081 19.5936 86.8447 19.4301C87.5395 18.9396 88.2819 18.1495 88.7315 17.3797ZM88.4727 15.8948L89.256 16.2149C88.7588 16.862 88.0231 17.5705 87.376 18.0201C87.267 17.8361 87.0558 17.516 86.9196 17.3525C87.485 16.9847 88.1389 16.3716 88.4727 15.8948ZM93.9162 16.2558H99.7403V17.0187H93.9162V16.2558ZM95.5306 17.7885H98.2485V18.5173H95.5306V17.7885ZM95.1832 19.6208H98.0305V20.3497H95.1832V19.6208ZM93.6982 21.2488H99.931V22.0049H93.6982V21.2488ZM95.4012 16.7939H96.2935C96.0551 18.0814 95.7077 19.6889 95.4488 20.6766L94.5565 20.6085C94.8494 19.6072 95.2036 18.0201 95.4012 16.7939ZM97.867 17.7885H98.7457C98.6163 19.035 98.4256 20.5881 98.2689 21.5349H97.3698C97.5537 20.554 97.7649 19.0009 97.867 17.7885ZM103.481 17.3729H106.158V18.1563H103.481V17.3729ZM105.736 17.3729H106.539C106.539 17.3729 106.533 17.6454 106.533 17.7408C106.458 20.5064 106.389 21.5077 106.158 21.8278C105.994 22.0594 105.838 22.1344 105.592 22.1752C105.375 22.2161 105.027 22.2161 104.68 22.2025C104.659 21.9709 104.571 21.6235 104.428 21.3987C104.755 21.4328 105.048 21.4328 105.197 21.4328C105.306 21.4328 105.375 21.4055 105.449 21.317C105.613 21.1126 105.681 20.1385 105.736 17.55V17.3729ZM104.257 16.0174H105.061C105.054 18.6672 105.027 20.9491 103.678 22.2842C103.542 22.0799 103.276 21.7938 103.065 21.6575C104.291 20.4859 104.251 18.4628 104.257 16.0174ZM100.599 16.4193H103.283V17.1413H100.599V16.4193ZM100.375 18.0064H103.399V18.7421H100.375V18.0064ZM102.336 19.362L102.99 19.1781C103.242 19.7502 103.529 20.5132 103.638 20.9832L102.929 21.208C102.834 20.738 102.575 19.9546 102.336 19.362ZM100.674 21.5486L100.593 20.8606L100.94 20.6017L103.14 20.084C103.161 20.302 103.215 20.6085 103.256 20.7788C101.199 21.3101 100.879 21.4191 100.674 21.5486ZM100.668 21.5486C100.627 21.3919 100.497 21.0172 100.409 20.8197C100.538 20.772 100.634 20.6153 100.749 20.3633C100.851 20.1249 101.165 19.1781 101.308 18.3198L102.112 18.5514C101.907 19.4437 101.539 20.4314 101.199 21.1126V21.1262C101.199 21.1262 100.668 21.3987 100.668 21.5486Z" fill="white"/>
<path d="M26.3973 8.50793V29.5225H22.5905V12.2121H22.4674L17.5524 15.352V11.8633L22.7752 8.50793H26.3973Z" fill="url(#paint3_linear_1201_2)"/>
<g filter="url(#filter1_b_1201_2)">
<rect x="142" y="64" width="142" height="37" rx="2.73878" fill="url(#paint4_linear_1201_2)" fill-opacity="0.2"/>
<rect x="142.079" y="64.0788" width="141.842" height="36.8423" rx="2.65994" stroke="url(#paint5_radial_1201_2)" stroke-width="0.157685"/>
<rect x="142.079" y="64.0788" width="141.842" height="36.8423" rx="2.65994" stroke="url(#paint6_radial_1201_2)" stroke-opacity="0.2" stroke-width="0.157685"/>
</g>
<path d="M185.44 79.2878H186.326C186.285 80.8477 186.183 83.7359 184.528 85.3571C184.337 85.1119 184.058 84.8735 183.765 84.7032C185.406 83.2727 185.406 80.5957 185.44 79.2878ZM182.906 82.2101L183.445 81.5289C183.949 82.0398 184.48 82.7209 184.725 83.1773L184.133 83.9403C183.901 83.4702 183.376 82.7346 182.906 82.2101ZM186.203 80.0848C186.36 81.6311 186.714 83.6473 187.947 84.5533C187.756 84.7304 187.436 85.1323 187.3 85.3912C186.013 84.274 185.652 82.0943 185.481 80.4594L186.203 80.0848ZM182.886 79.2537L183.799 79.281C183.683 81.9376 183.37 84.0969 182.28 85.4048C182.137 85.2685 181.687 84.962 181.469 84.8326C182.545 83.7223 182.818 81.6924 182.886 79.2537ZM188.302 80.6706H190.203V81.4948H188.302V80.6706ZM190.952 79.0085H191.817V84.3421C191.817 84.8326 191.715 85.0778 191.429 85.2277C191.136 85.3707 190.686 85.4048 190.067 85.4048C190.032 85.1527 189.869 84.7372 189.74 84.492C190.189 84.5124 190.618 84.5124 190.768 84.5124C190.904 84.5056 190.952 84.4648 190.952 84.3353V79.0085ZM189.923 80.6706H190.094L190.237 80.6433L190.802 80.8477C190.489 82.7073 189.74 84.0969 188.765 84.8122C188.622 84.6214 188.289 84.2877 188.091 84.165C189.024 83.5384 189.692 82.3531 189.923 80.8477V80.6706ZM191.769 80.003C192.205 81.8082 193.098 83.4157 194.624 84.1446C194.419 84.3149 194.133 84.6555 193.997 84.9075C192.417 84.0152 191.606 82.2441 191.122 80.1393L191.769 80.003ZM193.677 80.0643L194.446 80.6025C193.867 81.2155 193.139 81.9035 192.566 82.3327L191.981 81.8695C192.532 81.4131 193.254 80.6706 193.677 80.0643ZM194.924 80.5207H201.096V81.2837H194.924V80.5207ZM196.9 78.9949L197.758 79.029C197.628 82.0806 197.179 84.1242 195.408 85.3299C195.299 85.1596 194.972 84.7917 194.781 84.6282C196.464 83.6405 196.818 81.7673 196.9 78.9949ZM198.133 81.1134H198.964V84.165C198.964 84.4579 199.004 84.4988 199.291 84.4988C199.427 84.4988 199.999 84.4988 200.156 84.4988C200.408 84.4988 200.455 84.3694 200.489 83.7155C200.667 83.8449 201.007 83.9811 201.232 84.0288C201.143 84.962 200.912 85.2481 200.224 85.2481C200.047 85.2481 199.352 85.2481 199.182 85.2481C198.344 85.2481 198.133 85.0029 198.133 84.1719V81.1134ZM198.534 79.5194L199.079 79.0766C199.481 79.3491 200.04 79.7646 200.319 80.0303L199.747 80.5207C199.488 80.2483 198.943 79.8191 198.534 79.5194ZM200.101 81.5357L200.864 81.8558C200.04 83.334 198.786 84.4716 197.315 85.2141C197.199 85.0165 196.961 84.744 196.757 84.5601C198.167 83.9471 199.406 82.8844 200.101 81.5357ZM204.748 79.0358H205.599C205.586 82.2237 205.613 84.4579 201.996 85.3843C201.907 85.18 201.696 84.8735 201.526 84.6964C204.904 83.8858 204.727 82.0534 204.748 79.0358ZM201.601 82.0534H207.765V82.8095H201.601V82.0534ZM204.945 83.8926L205.368 83.2999C206.287 83.6814 207.275 84.2468 207.806 84.6759L207.275 85.3162C206.757 84.8598 205.831 84.2808 204.945 83.8926ZM202.411 79.7782L202.854 79.1992C203.392 79.3764 204.107 79.6965 204.462 79.9758L203.992 80.6297C203.658 80.3504 202.963 79.9826 202.411 79.7782ZM201.785 81.0793L202.261 80.5003C202.813 80.6978 203.528 81.0452 203.889 81.3381L203.372 81.9716C203.045 81.6787 202.343 81.2973 201.785 81.0793ZM210.573 81.8082H214.346V82.5575H210.573V81.8082ZM212.807 81.0316L213.366 80.657C213.658 80.8749 214.006 81.2087 214.156 81.4539L213.563 81.8695C213.427 81.6311 213.1 81.2768 212.807 81.0316ZM212.725 82.2441C212.984 83.3681 213.522 84.2945 214.489 84.71C214.312 84.8598 214.074 85.1664 213.972 85.3707C212.93 84.8258 212.391 83.7495 212.085 82.3599L212.725 82.2441ZM208.298 79.4717H214.36V80.2074H208.298V79.4717ZM209.762 79.0017H210.573V80.6638H209.762V79.0017ZM212.105 79.0017H212.916V80.5957H212.105V79.0017ZM211.983 80.7251H212.746V81.7809C212.746 82.898 212.521 84.3762 210.941 85.4116C210.797 85.2413 210.532 85.0233 210.334 84.8803C211.799 83.9266 211.983 82.6733 211.983 81.7741V80.7251ZM208.454 81.0044L208.986 80.5888C210.3 81.3722 210.484 82.3531 210.484 83.3681C210.484 84.1174 210.396 84.744 210.082 85.0846C209.98 85.2004 209.837 85.2754 209.674 85.3026C209.415 85.3639 209.149 85.3639 208.822 85.3503C208.815 85.1255 208.74 84.853 208.604 84.6487C208.938 84.6691 209.183 84.6691 209.326 84.6487C209.428 84.6419 209.483 84.6078 209.537 84.5397C209.68 84.3626 209.735 83.9471 209.735 83.3136C209.735 82.4212 209.483 81.6311 208.454 81.0044ZM209.639 82.3804L210.184 82.7141C209.83 83.2318 209.149 83.8244 208.59 84.1514C208.481 83.9675 208.284 83.7086 208.114 83.5588C208.665 83.3272 209.319 82.8299 209.639 82.3804ZM209.973 80.6842L210.634 81.0452C210.123 81.6311 209.34 82.1624 208.604 82.503C208.495 82.3395 208.27 82.0943 208.12 81.958C208.836 81.6651 209.558 81.161 209.973 80.6842ZM218.114 79.8736H220.437V80.6706H218.114V79.8736ZM214.865 79.3832H218.305V80.1393H214.865V79.3832ZM215.764 80.7932H217.406V81.5221H215.764V80.7932ZM215.764 82.2101H217.406V82.9389H215.764V82.2101ZM220.212 79.8736H220.355L220.498 79.8532L221.03 79.9826C220.764 82.7414 219.872 84.4171 218.332 85.3571C218.21 85.1459 217.978 84.8394 217.794 84.6827C219.15 83.9743 219.987 82.2986 220.212 80.0507V79.8736ZM218.911 80.691C219.245 82.4621 219.974 83.9675 221.282 84.6759C221.098 84.8326 220.846 85.1459 220.716 85.3571C219.286 84.492 218.557 82.898 218.128 80.8409L218.911 80.691ZM215.335 79.6965H216.112V84.1514H215.335V79.6965ZM217.086 79.6965H217.876V85.398H217.086V79.6965ZM214.708 83.8517C215.383 83.7768 216.398 83.6405 217.358 83.5043L217.406 84.2468C216.52 84.4035 215.573 84.5533 214.858 84.6623L214.708 83.8517ZM223.544 81.2973L227.693 80.7455L227.808 81.5221L223.667 82.0806L223.544 81.2973ZM226.112 79.4308L226.725 79.0494C227.079 79.3764 227.509 79.8327 227.699 80.1529L227.045 80.5752C226.875 80.2619 226.46 79.7782 226.112 79.4308ZM223.17 79.0562L223.946 79.315C223.435 80.5207 222.604 81.7809 221.753 82.5643C221.671 82.3667 221.439 81.9308 221.296 81.7332C222.032 81.0997 222.747 80.0848 223.17 79.0562ZM222.461 81.0112L223.299 80.1801L223.306 80.1938V85.3843H222.461V81.0112ZM224.818 79.1039H225.649C225.697 82.0193 226.092 84.2808 226.916 84.3966C227.073 84.4103 227.161 84.0561 227.209 83.3068C227.366 83.477 227.733 83.695 227.883 83.77C227.706 85.0914 227.338 85.4048 226.957 85.3843C225.342 85.2345 224.941 82.8163 224.818 79.1039ZM230.847 79.9758H231.699V85.3912H230.847V79.9758ZM228.811 81.1065H233.395V81.9035H229.648V84.6351H228.811V81.1065ZM232.959 81.1065H233.81V83.7155C233.81 84.1105 233.735 84.349 233.456 84.4784C233.177 84.6078 232.809 84.6214 232.298 84.6214C232.264 84.383 232.142 84.022 232.026 83.7972C232.346 83.8108 232.714 83.8108 232.816 83.8108C232.925 83.804 232.959 83.7768 232.959 83.6882V81.1065ZM233.892 79.1584L234.206 79.9077C232.625 80.1461 230.398 80.2619 228.531 80.2687C228.518 80.0371 228.429 79.7238 228.354 79.533C230.261 79.5058 232.448 79.3832 233.892 79.1584Z" fill="white"/>
<path d="M154.868 93V90.2501L162.163 83.0981C162.861 82.3935 163.442 81.7676 163.907 81.2204C164.373 80.6731 164.721 80.143 164.954 79.6299C165.187 79.1169 165.303 78.5696 165.303 77.9882C165.303 77.3246 165.152 76.7568 164.851 76.2848C164.55 75.806 164.137 75.4366 163.61 75.1766C163.083 74.9167 162.485 74.7867 161.814 74.7867C161.123 74.7867 160.518 74.9304 159.998 75.2177C159.478 75.4981 159.075 75.8983 158.787 76.4182C158.507 76.9381 158.367 77.5572 158.367 78.2755H154.744C154.744 76.9415 155.049 75.782 155.658 74.797C156.266 73.8119 157.104 73.0492 158.172 72.5088C159.246 71.9684 160.477 71.6982 161.866 71.6982C163.275 71.6982 164.513 71.9615 165.58 72.4883C166.647 73.015 167.475 73.7367 168.063 74.6533C168.658 75.57 168.956 76.6166 168.956 77.7932C168.956 78.5799 168.805 79.3529 168.504 80.1122C168.203 80.8715 167.673 81.7129 166.914 82.6364C166.161 83.5599 165.105 84.6783 163.743 85.9917L160.121 89.6754V89.8191H169.274V93H154.868Z" fill="url(#paint7_linear_1201_2)"/>
<g filter="url(#filter2_b_1201_2)">
<rect x="4" y="128" width="142.533" height="37" rx="2.74762" fill="url(#paint8_linear_1201_2)" fill-opacity="0.2"/>
<rect x="4.0791" y="128.079" width="142.375" height="36.8418" rx="2.66852" stroke="url(#paint9_radial_1201_2)" stroke-width="0.158194"/>
<rect x="4.0791" y="128.079" width="142.375" height="36.8418" rx="2.66852" stroke="url(#paint10_radial_1201_2)" stroke-opacity="0.2" stroke-width="0.158194"/>
</g>
<path d="M47.1595 145.542H51.5536V146.246H47.1595V145.542ZM47.9795 144.052H51.2666V144.743H47.9795V144.052ZM49.0319 143.232H49.8451V145.809H49.0319V143.232ZM47.877 143.41L48.6561 143.574C48.4579 144.278 48.1025 144.975 47.7335 145.412C47.5763 145.289 47.2483 145.071 47.057 144.975C47.4328 144.599 47.7198 144.005 47.877 143.41ZM49.5581 145.959H50.3645V147.449C50.3645 147.64 50.3782 147.661 50.4943 147.661C50.5354 147.661 50.7199 147.661 50.7745 147.661C50.8907 147.661 50.918 147.579 50.9385 146.95C51.0889 147.087 51.4306 147.21 51.6493 147.264C51.5741 148.18 51.3691 148.419 50.8634 148.419C50.7335 148.419 50.4738 148.419 50.3508 148.419C49.6948 148.419 49.5581 148.173 49.5581 147.456V145.959ZM48.328 145.932H49.1481C49.0456 147.046 48.7791 147.941 47.5148 148.467C47.426 148.255 47.2005 147.948 47.0228 147.79C48.082 147.408 48.246 146.752 48.328 145.932ZM45.2939 143.854L45.9226 143.396C46.3052 143.704 46.7768 144.155 46.9955 144.476L46.3189 144.995C46.1276 144.661 45.6765 144.189 45.2939 143.854ZM46.852 145.836V148.433H46.0661V146.595H45.3075V145.836H46.852ZM46.7768 148.125C46.9886 148.125 47.1595 148.303 47.508 148.508C47.9385 148.774 48.5262 148.809 49.2369 148.809C49.9203 148.809 50.9795 148.754 51.6424 148.658C51.5536 148.877 51.4237 149.28 51.4169 149.499C50.9112 149.533 49.8861 149.574 49.2164 149.574C48.4032 149.574 47.8633 149.485 47.4055 149.226C47.1253 149.055 46.9066 148.856 46.7563 148.856C46.5034 148.856 46.1276 149.26 45.7585 149.683L45.2187 148.973C45.738 148.494 46.3394 148.125 46.7768 148.125ZM51.8483 146.649C52.436 146.519 53.2971 146.287 54.1308 146.061L54.2333 146.8C53.4748 147.025 52.6684 147.257 52.026 147.435L51.8483 146.649ZM51.944 144.483H54.2402V145.235H51.944V144.483ZM52.7162 143.205H53.5158V148.74C53.5158 149.123 53.4474 149.335 53.2356 149.465C53.0169 149.595 52.7094 149.615 52.2584 149.615C52.231 149.403 52.1354 149.068 52.0397 148.843C52.272 148.856 52.5249 148.856 52.6069 148.85C52.6889 148.85 52.7162 148.822 52.7162 148.733V143.205ZM54.411 143.471H57.3769V144.196H54.411V143.471ZM57.2265 143.471H57.3632L57.493 143.444L57.9851 143.704C57.3427 145.105 55.9349 146.027 54.4588 146.492C54.3768 146.294 54.1855 145.993 54.0351 145.836C55.4087 145.487 56.7413 144.654 57.2265 143.588V143.471ZM55.3677 143.834C55.9144 144.797 57.0283 145.522 58.4156 145.815C58.2516 145.979 58.0261 146.294 57.9167 146.499C56.4885 146.109 55.3882 145.255 54.739 144.052L55.3677 143.834ZM54.493 146.697H57.8142V147.415H54.493V146.697ZM54.1513 147.886H58.2516V148.617H54.1513V147.886ZM55.7641 146.164H56.591V149.622H55.7641V146.164ZM58.6352 146.902H64.9086V147.565H58.6352V146.902ZM58.765 143.437H64.7446V144.148H58.765V143.437ZM60.9108 146.246L61.7172 146.451C61.2798 147.175 60.699 148.036 60.2821 148.583L59.4894 148.344C59.9131 147.797 60.5145 146.916 60.9108 146.246ZM62.8926 147.148L63.6853 147.353C63.0088 148.966 61.601 149.431 59.0657 149.629C59.011 149.39 58.888 149.103 58.7582 148.925C61.0612 148.829 62.3459 148.46 62.8926 147.148ZM59.9609 148.399L60.3778 147.811C61.9496 148.132 63.6512 148.604 64.6762 148.979L64.1842 149.642C63.1933 149.239 61.5942 148.747 59.9609 148.399ZM60.5623 143.717H61.3345V146.055H60.5623V143.717ZM62.1136 143.717H62.8858V146.055H62.1136V143.717ZM59.8448 145.18V145.822H63.7058V145.18H59.8448ZM59.0794 144.538H64.5259V146.465H59.0794V144.538ZM65.2853 143.704H67.6293V144.462H65.2853V143.704ZM65.3537 145.679H67.5678V146.431H65.3537V145.679ZM65.1623 148.05C65.8047 147.92 66.7888 147.695 67.7182 147.469L67.807 148.18C66.9459 148.412 66.0234 148.651 65.3263 148.836L65.1623 148.05ZM67.971 143.683H71.2649V144.462H67.971V143.683ZM67.6977 145.61H71.6271V146.396H67.6977V145.61ZM68.4767 146.164H69.2694C69.2079 147.907 69.0097 149.021 67.3628 149.622C67.2808 149.431 67.069 149.13 66.9049 148.986C68.34 148.501 68.4289 147.64 68.4767 146.164ZM69.7273 146.143H70.5405V148.563C70.5405 148.788 70.5542 148.815 70.6498 148.815C70.6908 148.815 70.848 148.815 70.889 148.815C70.9984 148.815 71.0257 148.686 71.0462 147.879C71.2034 148.023 71.5519 148.159 71.7706 148.214C71.7022 149.273 71.5041 149.581 70.9779 149.581C70.8617 149.581 70.6225 149.581 70.5063 149.581C69.8708 149.581 69.7273 149.328 69.7273 148.569V146.143ZM66.0986 144.005H66.8913V148.071L66.0986 148.194V144.005ZM72.6872 144.305H74.7852V148.911H72.6872V148.187H74.0403V145.023H72.6872V144.305ZM72.2089 144.305H72.9537V149.417H72.2089V144.305ZM72.653 146.13H74.4025V146.841H72.653V146.13ZM73.1792 143.191L74.0745 143.321C73.9173 143.786 73.7464 144.271 73.6098 144.592L72.9537 144.449C73.0494 144.093 73.1451 143.567 73.1792 143.191ZM75.6872 144.257H77.6827V145.002H75.6872V144.257ZM77.4025 144.257H78.1611C78.1611 144.257 78.1611 144.524 78.1542 144.626C78.0654 147.702 77.9834 148.788 77.7032 149.15C77.5119 149.417 77.3205 149.492 77.0403 149.533C76.7806 149.574 76.3638 149.567 75.9674 149.547C75.9538 149.321 75.8444 148.973 75.6941 148.754C76.1383 148.788 76.5483 148.795 76.7191 148.795C76.8558 148.795 76.931 148.768 77.0198 148.672C77.2385 148.44 77.3273 147.264 77.4025 144.415V144.257ZM75.7077 143.198L76.4936 143.383C76.2271 144.394 75.7829 145.433 75.3182 146.089C75.1679 145.952 74.833 145.72 74.6417 145.61C75.0995 145.036 75.4891 144.107 75.7077 143.198ZM75.3729 146.225L76.0153 145.863C76.3501 146.335 76.8011 146.991 77.013 147.394L76.3159 147.818C76.1314 147.401 75.7009 146.731 75.3729 146.225ZM78.818 143.854L79.2759 143.26C79.6517 143.417 80.1301 143.683 80.3624 143.902L79.8772 144.551C79.6654 144.333 79.187 144.032 78.818 143.854ZM78.572 145.686L79.023 145.077C79.4057 145.221 79.8909 145.474 80.1233 145.679L79.6517 146.342C79.4262 146.13 78.9547 145.85 78.572 145.686ZM78.6472 149.137C78.8932 148.583 79.228 147.708 79.4741 146.895L80.1438 147.305C79.9251 148.05 79.6517 148.856 79.392 149.533L78.6472 149.137ZM82.9798 144.005H85.0094V144.784H82.9798V144.005ZM82.8773 145.296H84.5652V146.007H82.8773V145.296ZM82.5902 146.923H85.0231V147.661H82.5902V146.923ZM82.9524 143.205L83.7315 143.342C83.5811 144.244 83.2873 145.132 82.9183 145.692C82.7679 145.576 82.4126 145.378 82.2212 145.289C82.5971 144.797 82.8294 143.998 82.9524 143.205ZM83.4376 146.348H84.1962V148.802C84.1962 149.171 84.1347 149.376 83.8887 149.499C83.6426 149.615 83.3078 149.629 82.8499 149.629C82.8294 149.41 82.7269 149.096 82.6381 148.877C82.9183 148.891 83.2258 148.891 83.3215 148.891C83.4103 148.891 83.4376 148.87 83.4376 148.788V146.348ZM84.244 145.296H84.4149L84.5584 145.248L85.0367 145.59C84.7634 146.061 84.3739 146.595 84.0253 146.943C83.9228 146.793 83.7042 146.567 83.5811 146.458C83.834 146.191 84.1142 145.733 84.244 145.433V145.296ZM80.1506 144.182H82.5697V144.961H80.1506V144.182ZM80.916 145.713H82.0777V146.458H80.916V145.713ZM81.0048 143.212H81.7907V144.729H81.0048V143.212ZM81.777 145.713H82.5151C82.5151 145.713 82.5151 145.938 82.5082 146.034C82.4399 148.221 82.3716 149.041 82.1871 149.294C82.0504 149.478 81.9205 149.547 81.736 149.581C81.5789 149.615 81.3328 149.615 81.0663 149.608C81.0527 149.383 80.9843 149.075 80.8681 148.877C81.0732 148.891 81.244 148.897 81.3397 148.897C81.4285 148.897 81.4832 148.877 81.5378 148.795C81.654 148.631 81.7224 147.92 81.777 145.856V145.713ZM80.6495 144.756H81.4012C81.3602 146.601 81.2577 148.46 80.2736 149.601C80.1506 149.424 79.9182 149.191 79.7201 149.068C80.588 148.077 80.6221 146.39 80.6495 144.756ZM85.3588 143.929H87.4226V144.654H85.3588V143.929ZM87.2381 143.929H87.3816L87.5183 143.902L88.0445 144.08C87.7575 146.362 86.9921 148.125 85.7894 149.15C85.6595 148.945 85.393 148.631 85.1948 148.487C86.2677 147.681 87.0126 145.938 87.2381 144.107V143.929ZM85.3315 145.412L85.8919 144.941C86.6641 145.918 87.7096 147.237 88.1675 148.071L87.532 148.651C87.1014 147.797 86.1037 146.424 85.3315 145.412ZM87.9762 145.105L91.5024 144.688L91.5981 145.426L88.0787 145.856L87.9762 145.105ZM89.8486 143.656L90.4295 143.225C90.7233 143.506 91.1402 143.902 91.3384 144.162L90.7165 144.647C90.5388 144.38 90.1356 143.957 89.8486 143.656ZM88.6459 143.239H89.5001C89.5274 146.191 89.8691 148.453 90.7028 148.59C90.86 148.604 90.9352 148.269 90.983 147.544C91.1402 147.722 91.5161 147.954 91.6732 148.036C91.4956 149.335 91.1197 149.636 90.7438 149.608C89.0969 149.431 88.7415 147.032 88.6459 143.239ZM90.7302 145.651L91.3862 146.041C90.8258 147.394 89.7119 148.72 88.4819 149.376C88.3247 149.178 88.065 148.925 87.8327 148.768C89.1174 148.2 90.2108 146.936 90.7302 145.651Z" fill="white"/>
<path d="M25.4612 157.811C23.9788 157.811 22.6612 157.557 21.5082 157.049C20.3622 156.541 19.4563 155.834 18.7906 154.928C18.1249 154.022 17.7715 152.976 17.7303 151.789H21.6009C21.6352 152.358 21.8239 152.856 22.1671 153.281C22.5102 153.7 22.9666 154.026 23.5362 154.259C24.1058 154.493 24.744 154.609 25.4509 154.609C26.2058 154.609 26.8749 154.479 27.4582 154.218C28.0416 153.95 28.4979 153.58 28.8274 153.106C29.1568 152.633 29.318 152.087 29.3112 151.47C29.318 150.831 29.1533 150.269 28.8171 149.781C28.4808 149.294 27.9935 148.913 27.3553 148.639C26.7239 148.364 25.9622 148.227 25.07 148.227H23.2068V145.283H25.07C25.8043 145.283 26.446 145.156 26.995 144.902C27.5509 144.648 27.9867 144.291 28.3024 143.831C28.618 143.365 28.7725 142.826 28.7656 142.215C28.7725 141.618 28.6386 141.1 28.3641 140.661C28.0965 140.215 27.7156 139.868 27.2215 139.621C26.7342 139.374 26.1612 139.25 25.5024 139.25C24.8573 139.25 24.2602 139.367 23.7112 139.6C23.1622 139.834 22.7195 140.167 22.3832 140.599C22.047 141.024 21.8685 141.532 21.848 142.122H18.173C18.2004 140.942 18.5401 139.906 19.1921 139.014C19.8509 138.115 20.7293 137.415 21.8274 136.914C22.9254 136.406 24.1573 136.152 25.5229 136.152C26.9298 136.152 28.1514 136.416 29.1876 136.945C30.2308 137.466 31.0372 138.17 31.6068 139.055C32.1764 139.94 32.4612 140.918 32.4612 141.989C32.468 143.176 32.118 144.171 31.4112 144.974C30.7112 145.777 29.7916 146.302 28.6524 146.549V146.714C30.1347 146.92 31.2705 147.469 32.0597 148.361C32.8558 149.246 33.2504 150.347 33.2435 151.665C33.2435 152.846 32.9073 153.902 32.2347 154.836C31.569 155.762 30.6494 156.49 29.4759 157.018C28.3092 157.546 26.971 157.811 25.4612 157.811Z" fill="url(#paint11_linear_1201_2)"/>
<g filter="url(#filter3_b_1201_2)">
<rect x="144.469" y="192" width="142.533" height="37" rx="2.74762" fill="url(#paint12_linear_1201_2)" fill-opacity="0.2"/>
<rect x="144.548" y="192.079" width="142.375" height="36.8418" rx="2.66852" stroke="url(#paint13_radial_1201_2)" stroke-width="0.158194"/>
<rect x="144.548" y="192.079" width="142.375" height="36.8418" rx="2.66852" stroke="url(#paint14_radial_1201_2)" stroke-opacity="0.2" stroke-width="0.158194"/>
</g>
<path d="M184.897 210.047V212.2H184.132V210.785H183.434V210.047H184.897ZM184.897 211.838C185.184 212.289 185.724 212.48 186.448 212.507C187.282 212.548 188.943 212.528 189.886 212.453C189.804 212.624 189.681 212.986 189.646 213.211C188.785 213.252 187.296 213.266 186.448 213.232C185.594 213.198 185.013 212.999 184.569 212.48C184.316 212.74 184.05 212.999 183.735 213.3L183.352 212.521C183.626 212.33 183.94 212.084 184.214 211.838H184.897ZM183.701 207.457L184.241 206.993C184.589 207.211 185.034 207.546 185.245 207.806L184.665 208.325C184.48 208.065 184.056 207.696 183.701 207.457ZM183.441 208.886L183.968 208.393C184.337 208.605 184.808 208.927 185.034 209.173L184.473 209.712C184.268 209.46 183.81 209.111 183.441 208.886ZM185.922 208.66V208.933H186.776V208.66H185.922ZM185.922 207.922V208.188H186.776V207.922H185.922ZM185.28 207.423H187.446V209.432H185.28V207.423ZM186.106 206.938L186.933 206.999C186.81 207.321 186.653 207.635 186.537 207.854L185.942 207.744C186.011 207.498 186.079 207.17 186.106 206.938ZM185.054 209.767H187.733V210.314H185.054V209.767ZM188.034 207.929H189.742V208.619H188.034V207.929ZM185.997 210.56H187.05V211.113H185.997V210.56ZM186.024 209.364H186.715V209.979H186.024V209.364ZM186.824 210.56H187.48C187.48 210.56 187.473 210.71 187.466 210.785C187.432 211.592 187.384 211.947 187.261 212.091C187.166 212.207 187.043 212.255 186.899 212.275C186.783 212.289 186.571 212.296 186.359 212.282C186.353 212.118 186.291 211.892 186.216 211.749C186.373 211.769 186.489 211.769 186.558 211.769C186.626 211.776 186.667 211.769 186.708 211.715C186.763 211.64 186.79 211.373 186.824 210.649V210.56ZM185.724 210.034H186.394C186.339 211.024 186.182 211.824 185.444 212.302C185.368 212.152 185.184 211.927 185.034 211.817C185.601 211.441 185.69 210.806 185.724 210.034ZM187.965 206.972L188.683 207.075C188.519 208.182 188.211 209.227 187.747 209.904C187.624 209.788 187.316 209.562 187.152 209.466C187.583 208.886 187.842 207.942 187.965 206.972ZM188.847 208.4L189.53 208.455C189.325 210.245 188.861 211.551 187.788 212.364C187.699 212.227 187.453 211.954 187.316 211.838C188.307 211.161 188.703 209.979 188.847 208.4ZM188.307 208.51C188.546 209.876 189.038 211.182 189.838 211.804C189.681 211.933 189.462 212.179 189.346 212.364C188.491 211.605 188.013 210.191 187.747 208.619L188.307 208.51ZM190.42 207.532L190.946 207.034C191.315 207.341 191.814 207.778 192.046 208.072L191.486 208.639C191.274 208.339 190.789 207.867 190.42 207.532ZM190.987 213.286L190.809 212.535L190.973 212.275L192.312 211.257C192.367 211.475 192.49 211.797 192.579 211.961C191.335 212.931 191.11 213.122 190.987 213.286ZM190.105 209.043H191.451V209.829H190.105V209.043ZM190.987 213.286C190.925 213.095 190.727 212.753 190.59 212.596C190.741 212.494 190.939 212.261 190.939 211.947V209.043H191.725V212.501C191.725 212.501 190.987 212.999 190.987 213.286ZM193.317 210.901H195.422V211.428H193.317V210.901ZM192.442 207.403H196.269V207.99H192.442V207.403ZM192.627 208.264H196.064V208.817H192.627V208.264ZM192.23 209.104H196.488V209.692H192.23V209.104ZM193.303 211.81H195.415V212.357H193.303V211.81ZM192.695 209.958H195.408V210.553H193.454V213.362H192.695V209.958ZM195.237 209.958H196.016V212.569C196.016 212.924 195.948 213.122 195.695 213.232C195.456 213.348 195.114 213.355 194.636 213.355C194.609 213.15 194.513 212.849 194.417 212.658C194.697 212.671 195.025 212.671 195.114 212.665C195.203 212.665 195.237 212.637 195.237 212.555V209.958ZM193.932 206.938H194.745V209.296H193.932V206.938ZM199.639 206.945L200.391 207.129C200.138 207.854 199.708 208.551 199.243 209.002C199.113 208.858 198.819 208.598 198.648 208.482C199.079 208.113 199.441 207.539 199.639 206.945ZM199.584 208.694L200.336 208.892C200.124 209.425 199.769 209.979 199.441 210.327C199.291 210.204 198.969 210.006 198.792 209.911C199.12 209.603 199.414 209.138 199.584 208.694ZM199.79 207.519H202.509V208.209H199.516L199.79 207.519ZM200.569 208.045H201.354V210.17C201.354 210.526 201.3 210.724 201.047 210.84C200.815 210.956 200.507 210.963 200.083 210.963C200.049 210.751 199.94 210.444 199.831 210.245C200.09 210.259 200.377 210.259 200.459 210.259C200.541 210.252 200.569 210.232 200.569 210.157V208.045ZM201.505 208.927L202.174 208.639C202.496 209.091 202.81 209.678 202.954 210.088L202.25 210.423C202.12 210.02 201.799 209.384 201.505 208.927ZM202.304 207.519H202.421L202.544 207.498L203.124 207.621C202.974 208.086 202.776 208.605 202.612 208.933L201.915 208.797C202.045 208.496 202.209 208.011 202.304 207.614V207.519ZM198.512 211.223H199.325V212.275C199.325 212.48 199.379 212.501 199.701 212.501C199.844 212.501 200.446 212.501 200.63 212.501C200.89 212.501 200.938 212.419 200.972 211.824C201.136 211.947 201.477 212.07 201.696 212.118C201.607 213.006 201.375 213.232 200.698 213.232C200.514 213.232 199.783 213.232 199.598 213.232C198.723 213.232 198.512 212.999 198.512 212.282V211.223ZM199.092 211.031L199.639 210.567C200.056 210.792 200.569 211.147 200.808 211.428L200.22 211.947C200.001 211.667 199.509 211.277 199.092 211.031ZM201.3 211.482L201.976 211.113C202.462 211.564 202.974 212.193 203.179 212.671L202.448 213.081C202.27 212.617 201.785 211.954 201.3 211.482ZM197.664 211.243L198.402 211.489C198.218 212.125 197.951 212.753 197.432 213.15L196.748 212.678C197.213 212.35 197.514 211.817 197.664 211.243ZM198.286 206.938L199.01 207.184C198.566 208.045 197.856 208.92 197.172 209.466C197.083 209.302 196.83 208.954 196.68 208.803C197.302 208.359 197.924 207.649 198.286 206.938ZM197.698 208.366L198.464 207.594L198.484 207.601V210.949H197.698V208.366ZM204.205 208.045H206.303V212.651H204.205V211.927H205.558V208.762H204.205V208.045ZM203.727 208.045H204.472V213.157H203.727V208.045ZM204.171 209.87H205.92V210.58H204.171V209.87ZM204.697 206.931L205.592 207.061C205.435 207.526 205.264 208.011 205.128 208.332L204.472 208.188C204.567 207.833 204.663 207.307 204.697 206.931ZM207.205 207.997H209.201V208.742H207.205V207.997ZM208.92 207.997H209.679C209.679 207.997 209.679 208.264 209.672 208.366C209.583 211.441 209.501 212.528 209.221 212.89C209.03 213.157 208.838 213.232 208.558 213.273C208.298 213.314 207.882 213.307 207.485 213.286C207.472 213.061 207.362 212.712 207.212 212.494C207.656 212.528 208.066 212.535 208.237 212.535C208.374 212.535 208.449 212.507 208.538 212.412C208.756 212.179 208.845 211.004 208.92 208.154V207.997ZM207.226 206.938L208.011 207.122C207.745 208.134 207.301 209.173 206.836 209.829C206.686 209.692 206.351 209.46 206.159 209.35C206.617 208.776 207.007 207.847 207.226 206.938ZM206.891 209.965L207.533 209.603C207.868 210.075 208.319 210.731 208.531 211.134L207.834 211.558C207.649 211.141 207.219 210.471 206.891 209.965ZM214.026 207.239H215.782V207.983H214.026V207.239ZM214.026 208.769H215.782V209.494H214.026V208.769ZM214.012 210.3H215.789V211.031H214.012V210.3ZM215.42 207.239H216.206V212.384C216.206 212.788 216.145 213.013 215.899 213.15C215.659 213.28 215.311 213.3 214.798 213.3C214.778 213.075 214.668 212.706 214.559 212.494C214.86 212.514 215.181 212.514 215.283 212.507C215.386 212.507 215.42 212.473 215.42 212.371V207.239ZM213.65 207.239H214.429V209.542C214.429 210.696 214.313 212.35 213.568 213.382C213.425 213.252 213.083 213.04 212.892 212.965C213.589 212.009 213.65 210.594 213.65 209.542V207.239ZM210.965 207.239H212.7V207.983H210.965V207.239ZM210.965 208.769H212.7V209.494H210.965V208.769ZM210.965 210.3H212.7V211.031H210.965V210.3ZM212.27 207.239H213.035V212.398C213.035 212.76 212.974 212.965 212.755 213.095C212.536 213.218 212.229 213.232 211.791 213.232C211.764 213.027 211.662 212.699 211.566 212.501C211.805 212.514 212.072 212.514 212.154 212.514C212.242 212.514 212.27 212.48 212.27 212.398V207.239ZM210.65 207.239H211.402V209.706C211.402 210.806 211.306 212.384 210.684 213.368C210.541 213.245 210.206 213.04 210.021 212.965C210.602 212.056 210.65 210.71 210.65 209.712V207.239ZM219.439 209.87C220.013 211.305 221.237 212.241 223.164 212.583C222.979 212.753 222.747 213.109 222.631 213.334C220.622 212.89 219.432 211.817 218.722 210.081L219.439 209.87ZM221.53 209.46H221.688L221.838 209.425L222.398 209.665C221.852 211.708 220.499 212.788 218.722 213.348C218.619 213.136 218.421 212.822 218.257 212.651C219.842 212.241 221.107 211.216 221.53 209.603V209.46ZM217.013 207.956H222.979V208.749H217.013V207.956ZM218.947 209.46H221.612V210.252H218.715L218.947 209.46ZM218.722 206.938H219.576C219.521 208.011 219.419 211.318 217.451 213.109C217.28 212.89 217.02 212.685 216.74 212.521C218.694 210.929 218.681 207.772 218.722 206.938ZM223.513 207.444H225.857V208.202H223.513V207.444ZM223.581 209.419H225.796V210.17H223.581V209.419ZM223.39 211.79C224.033 211.66 225.017 211.434 225.946 211.209L226.035 211.92C225.174 212.152 224.251 212.391 223.554 212.576L223.39 211.79ZM226.199 207.423H229.493V208.202H226.199V207.423ZM225.925 209.35H229.855V210.136H225.925V209.35ZM226.705 209.904H227.497C227.436 211.646 227.238 212.76 225.591 213.362C225.509 213.17 225.297 212.87 225.133 212.726C226.568 212.241 226.657 211.38 226.705 209.904ZM227.955 209.883H228.768V212.302C228.768 212.528 228.782 212.555 228.878 212.555C228.919 212.555 229.076 212.555 229.117 212.555C229.226 212.555 229.254 212.425 229.274 211.619C229.431 211.763 229.78 211.899 229.998 211.954C229.93 213.013 229.732 213.321 229.206 213.321C229.089 213.321 228.85 213.321 228.734 213.321C228.099 213.321 227.955 213.068 227.955 212.309V209.883ZM224.326 207.744H225.119V211.81L224.326 211.933V207.744ZM233.94 207.77V212.74H233.039V208.646H233.01L231.848 209.388V208.563L233.083 207.77H233.94ZM239.923 209.012L238.596 212.74H237.625L236.298 209.012H237.235L238.091 211.781H238.13L238.989 209.012H239.923ZM243.321 209.998L242.52 210.085C242.498 210.004 242.458 209.928 242.401 209.857C242.346 209.786 242.272 209.728 242.178 209.684C242.084 209.641 241.969 209.619 241.834 209.619C241.651 209.619 241.497 209.659 241.373 209.738C241.25 209.817 241.189 209.92 241.19 210.046C241.189 210.154 241.229 210.243 241.309 210.311C241.392 210.379 241.528 210.434 241.717 210.478L242.353 210.614C242.706 210.69 242.968 210.81 243.139 210.975C243.312 211.141 243.4 211.356 243.401 211.623C243.4 211.858 243.331 212.065 243.195 212.245C243.061 212.423 242.874 212.562 242.634 212.662C242.395 212.762 242.12 212.813 241.809 212.813C241.353 212.813 240.986 212.717 240.708 212.526C240.429 212.334 240.263 212.066 240.21 211.723L241.067 211.64C241.106 211.809 241.188 211.936 241.314 212.021C241.44 212.107 241.605 212.15 241.807 212.15C242.016 212.15 242.183 212.107 242.309 212.021C242.437 211.936 242.501 211.83 242.501 211.704C242.501 211.597 242.46 211.509 242.377 211.439C242.296 211.369 242.17 211.316 241.999 211.279L241.363 211.145C241.005 211.071 240.741 210.946 240.569 210.769C240.398 210.591 240.313 210.366 240.314 210.095C240.313 209.865 240.375 209.666 240.501 209.498C240.629 209.328 240.806 209.197 241.033 209.104C241.261 209.011 241.524 208.964 241.821 208.964C242.258 208.964 242.602 209.057 242.853 209.243C243.105 209.429 243.261 209.68 243.321 209.998ZM247.52 207.77V212.74H246.62V208.646H246.591L245.428 209.388V208.563L246.663 207.77H247.52Z" fill="white"/>
<path d="M155.493 217.088V214.051L164.438 199.918H166.971V204.241H165.426L159.404 213.784V213.949H171.891V217.088H155.493ZM165.55 221V216.162L165.591 214.803V199.918H169.194V221H165.55Z" fill="url(#paint15_linear_1201_2)"/>
<g filter="url(#filter4_b_1201_2)">
<rect x="4" y="256" width="142.533" height="37" rx="2.74762" fill="url(#paint16_linear_1201_2)" fill-opacity="0.2"/>
<rect x="4.0791" y="256.079" width="142.375" height="36.8418" rx="2.66852" stroke="url(#paint17_radial_1201_2)" stroke-width="0.158194"/>
<rect x="4.0791" y="256.079" width="142.375" height="36.8418" rx="2.66852" stroke="url(#paint18_radial_1201_2)" stroke-opacity="0.2" stroke-width="0.158194"/>
</g>
<path d="M50.7365 271.067H51.5497V276.398C51.5497 276.863 51.4541 277.068 51.1671 277.197C50.88 277.32 50.4358 277.341 49.7935 277.341C49.7593 277.122 49.6295 276.767 49.5201 276.555C49.9506 276.575 50.4085 276.569 50.552 276.569C50.6819 276.562 50.7365 276.521 50.7365 276.391V271.067ZM49.4244 271.717H50.2103V275.605H49.4244V271.717ZM46.4791 273.418H48.3379V274.129H46.4791V273.418ZM46.1237 273.418H46.9233V276.22C46.9233 276.507 46.9711 276.548 47.2855 276.548C47.429 276.548 48.0372 276.548 48.208 276.548C48.4951 276.548 48.5429 276.411 48.5839 275.68C48.7547 275.81 49.0759 275.933 49.2878 275.981C49.1989 276.951 48.9802 277.238 48.2764 277.238C48.0919 277.238 47.3538 277.238 47.183 277.238C46.3766 277.238 46.1237 277.027 46.1237 276.227V273.418ZM48.0304 273.418H48.8162C48.8162 273.418 48.8094 273.61 48.8026 273.698C48.7547 274.84 48.6864 275.332 48.5224 275.523C48.3925 275.68 48.249 275.735 48.0645 275.762C47.9005 275.783 47.6272 275.79 47.3333 275.776C47.3196 275.564 47.2376 275.277 47.1283 275.086C47.3538 275.113 47.5588 275.12 47.6613 275.12C47.7502 275.12 47.8048 275.106 47.8595 275.045C47.9415 274.942 47.9962 274.553 48.0304 273.528V273.418ZM47.1693 271.771L47.7092 271.293C48.2559 271.874 49.0008 272.667 49.3288 273.179L48.7342 273.746C48.4199 273.22 47.716 272.38 47.1693 271.771ZM47.2445 270.924L47.9894 271.156C47.5315 272.243 46.8071 273.213 45.9119 273.883C45.7889 273.712 45.5019 273.411 45.3242 273.282C46.1579 272.721 46.8823 271.799 47.2445 270.924ZM54.0245 272.27H58.4938V272.899H54.0245V272.27ZM54.4208 274.109H58.0359V274.696H54.4208V274.109ZM54.1201 275.011H58.3434V275.66H54.1201V275.011ZM55.7534 270.992H56.553V276.213H55.7534V270.992ZM54.496 271.375H57.9812V273.808H54.4618V273.186H57.1748V271.997H54.496V271.375ZM52.111 271.313H53.5529V272.031H52.111V271.313ZM53.2728 271.313H53.3753L53.4983 271.286L54.0518 271.436C53.7443 272.243 53.2659 273.309 52.8696 274.163L52.1247 273.972C52.5415 273.131 53.0336 272.004 53.2728 271.402V271.313ZM52.8081 273.247H53.8058V273.965H52.7807L52.8081 273.247ZM53.4778 273.247H53.635L53.7716 273.234L54.25 273.336C54.0791 275.4 53.5529 276.712 52.6646 277.382C52.5415 277.225 52.2272 276.931 52.0495 276.828C52.8969 276.241 53.3479 275.134 53.4778 273.398V273.247ZM52.8491 274.355C53.4026 276.124 54.6532 276.405 56.266 276.411C56.6828 276.411 58.0769 276.411 58.5758 276.391C58.4528 276.575 58.3092 276.951 58.2614 277.191H56.2454C54.2637 277.191 52.9174 276.787 52.2067 274.58L52.8491 274.355ZM62.6154 270.958H63.4355V276.685H62.6154V270.958ZM60.866 276.343C61.8159 276.268 63.2988 276.118 64.6451 275.981L64.6587 276.787C63.3808 276.951 61.9936 277.095 61.0027 277.211L60.866 276.343ZM63.6952 275.284L64.4605 275.072C64.7407 275.708 65.0961 276.555 65.2396 277.081L64.4127 277.348C64.2897 276.822 63.9753 275.954 63.6952 275.284ZM62.0209 272.913V274.245H64.0095V272.913H62.0209ZM61.2145 272.209H64.8637V274.949H61.2145V272.209ZM58.7954 271.491L59.3694 271.061C60.6951 272.14 60.8728 273.377 60.8728 274.703C60.8728 275.653 60.7908 276.575 60.4765 276.992C60.374 277.129 60.2236 277.225 60.0459 277.266C59.7794 277.327 59.4856 277.334 59.1644 277.32C59.1575 277.061 59.0824 276.774 58.9457 276.541C59.2805 276.569 59.5266 276.562 59.6701 276.548C59.7726 276.534 59.8341 276.5 59.8888 276.425C60.0323 276.227 60.0938 275.516 60.0938 274.676C60.0938 273.432 59.9024 272.414 58.7954 271.491ZM60.1758 273.528L60.7771 273.89C60.4423 274.553 59.8067 275.339 59.2532 275.783C59.1234 275.591 58.8979 275.325 58.7065 275.175C59.2532 274.833 59.8751 274.136 60.1758 273.528ZM60.4423 271.081L61.1667 271.443C60.6883 272.291 59.9913 273.104 59.2805 273.651C59.1507 273.487 58.891 273.241 58.7133 273.111C59.4036 272.626 60.0596 271.819 60.4423 271.081ZM68.2679 271.546H71.5617V272.291H68.2679V271.546ZM67.8578 272.872H71.8624V273.63H67.8578V272.872ZM68.0082 274.245H71.7941V275.004H68.0082V274.245ZM69.4843 270.931H70.2975V273.288H69.4843V270.931ZM70.2975 273.548H71.1107V276.439C71.1107 276.856 71.0287 277.081 70.7553 277.204C70.482 277.327 70.0925 277.348 69.5731 277.348C69.5458 277.109 69.4364 276.76 69.3271 276.534C69.6619 276.548 70.0378 276.548 70.154 276.541C70.2633 276.541 70.2975 276.521 70.2975 276.425V273.548ZM68.2474 275.373L68.8556 274.997C69.1562 275.298 69.5184 275.728 69.6824 276.029L69.0332 276.452C68.8897 276.152 68.5412 275.701 68.2474 275.373ZM65.425 274.58C66.0947 274.43 67.0924 274.15 68.0355 273.883L68.1448 274.601C67.2838 274.874 66.3476 275.154 65.6232 275.366L65.425 274.58ZM66.6551 270.938H67.4068V277.355H66.6551V270.938ZM65.753 271.293L66.4364 271.409C66.3476 272.311 66.1836 273.261 65.9375 273.876C65.8145 273.774 65.5207 273.589 65.3567 273.507C65.5754 272.954 65.6915 272.099 65.753 271.293ZM65.9375 272.229H67.974V273.008H65.7872L65.9375 272.229ZM72.9021 272.045H75V276.651H72.9021V275.926H74.2551V272.762H72.9021V272.045ZM72.4237 272.045H73.1686V277.156H72.4237V272.045ZM72.8679 273.869H74.6173V274.58H72.8679V273.869ZM73.3941 270.931L74.2893 271.061C74.1321 271.525 73.9613 272.011 73.8246 272.332L73.1686 272.188C73.2642 271.833 73.3599 271.307 73.3941 270.931ZM75.9021 271.997H77.8975V272.742H75.9021V271.997ZM77.6174 271.997H78.3759C78.3759 271.997 78.3759 272.263 78.3691 272.366C78.2802 275.441 78.1982 276.528 77.918 276.89C77.7267 277.156 77.5354 277.232 77.2552 277.273C76.9955 277.314 76.5786 277.307 76.1823 277.286C76.1686 277.061 76.0593 276.712 75.9089 276.493C76.3531 276.528 76.7631 276.534 76.934 276.534C77.0707 276.534 77.1458 276.507 77.2347 276.411C77.4533 276.179 77.5422 275.004 77.6174 272.154V271.997ZM75.9226 270.938L76.7085 271.122C76.4419 272.134 75.9978 273.172 75.5331 273.828C75.3827 273.692 75.0479 273.459 74.8565 273.35C75.3144 272.776 75.7039 271.847 75.9226 270.938ZM75.5877 273.965L76.2301 273.603C76.565 274.074 77.016 274.73 77.2278 275.134L76.5308 275.557C76.3463 275.14 75.9157 274.471 75.5877 273.965ZM81.2696 276.74H80.3086L82.0583 271.769H83.1697L84.9219 276.74H83.9609L82.6334 272.789H82.5946L81.2696 276.74ZM81.3011 274.791H83.922V275.514H81.3011V274.791ZM89.5045 271.769V276.74H88.7036L86.3618 273.354H86.3206V276.74H85.4202V271.769H86.2259L88.5653 275.157H88.609V271.769H89.5045ZM93.0302 273.136C93.0076 272.924 92.9121 272.759 92.7438 272.641C92.5772 272.523 92.3604 272.464 92.0935 272.464C91.9058 272.464 91.7448 272.492 91.6105 272.548C91.4763 272.605 91.3735 272.682 91.3023 272.779C91.2312 272.876 91.1948 272.987 91.1931 273.111C91.1931 273.215 91.2166 273.305 91.2635 273.381C91.3121 273.457 91.3776 273.522 91.4601 273.575C91.5426 273.627 91.634 273.67 91.7343 273.706C91.8346 273.742 91.9357 273.772 92.0377 273.796L92.5036 273.912C92.6913 273.956 92.8717 274.015 93.0448 274.089C93.2195 274.164 93.3756 274.258 93.5131 274.371C93.6523 274.484 93.7623 274.621 93.8432 274.781C93.9241 274.941 93.9645 275.129 93.9645 275.344C93.9645 275.635 93.8901 275.892 93.7412 276.113C93.5924 276.333 93.3772 276.506 93.0957 276.63C92.8158 276.753 92.4769 276.815 92.0789 276.815C91.6922 276.815 91.3565 276.755 91.0718 276.635C90.7887 276.515 90.567 276.341 90.4069 276.111C90.2483 275.881 90.1626 275.601 90.1496 275.271H91.0354C91.0483 275.444 91.1017 275.588 91.1956 275.703C91.2894 275.818 91.4116 275.904 91.562 275.961C91.7141 276.017 91.884 276.045 92.0716 276.045C92.2674 276.045 92.4389 276.016 92.5861 275.958C92.7349 275.898 92.8514 275.816 92.9356 275.711C93.0197 275.604 93.0626 275.479 93.0642 275.337C93.0626 275.207 93.0245 275.101 92.9501 275.016C92.8757 274.931 92.7713 274.86 92.6371 274.803C92.5044 274.745 92.3491 274.693 92.1711 274.648L91.6057 274.502C91.1964 274.397 90.8728 274.238 90.635 274.024C90.3988 273.809 90.2807 273.523 90.2807 273.167C90.2807 272.874 90.36 272.618 90.5185 272.398C90.6787 272.178 90.8963 272.007 91.1713 271.886C91.4463 271.763 91.7578 271.702 92.1056 271.702C92.4583 271.702 92.7673 271.763 93.0326 271.886C93.2996 272.007 93.5091 272.176 93.6612 272.393C93.8132 272.608 93.8917 272.856 93.8966 273.136H93.0302Z" fill="white"/>
<path d="M25.2225 285.288C23.8499 285.288 22.6215 285.031 21.5372 284.516C20.4529 283.995 19.5916 283.281 18.9534 282.375C18.322 281.469 17.9857 280.433 17.9445 279.266H21.6504C21.719 280.131 22.0931 280.838 22.7725 281.387C23.4519 281.929 24.2685 282.2 25.2225 282.2C25.9705 282.2 26.6362 282.028 27.2195 281.685C27.8029 281.342 28.2627 280.865 28.5989 280.254C28.9352 279.644 29.0999 278.947 29.0931 278.165C29.0999 277.369 28.9318 276.662 28.5886 276.044C28.2455 275.426 27.7754 274.943 27.1783 274.593C26.5813 274.236 25.895 274.057 25.1195 274.057C24.4882 274.05 23.8671 274.167 23.2563 274.407C22.6455 274.648 22.1617 274.963 21.8048 275.354L18.3563 274.788L19.4578 263.918H31.6872V267.109H22.6181L22.0107 272.699H22.1342C22.5254 272.239 23.0779 271.858 23.7916 271.556C24.5053 271.247 25.2877 271.093 26.1386 271.093C27.4151 271.093 28.5543 271.395 29.5563 271.999C30.5582 272.596 31.3475 273.419 31.9239 274.469C32.5004 275.519 32.7886 276.72 32.7886 278.072C32.7886 279.465 32.4661 280.707 31.821 281.799C31.1828 282.883 30.294 283.737 29.1548 284.362C28.0225 284.979 26.7117 285.288 25.2225 285.288Z" fill="url(#paint19_linear_1201_2)"/>
<g filter="url(#filter5_b_1201_2)">
<rect x="145" y="309" width="142.533" height="37" rx="2.74762" fill="url(#paint20_linear_1201_2)" fill-opacity="0.2"/>
<rect x="145.079" y="309.079" width="142.375" height="36.8418" rx="2.66852" stroke="url(#paint21_radial_1201_2)" stroke-width="0.158194"/>
<rect x="145.079" y="309.079" width="142.375" height="36.8418" rx="2.66852" stroke="url(#paint22_radial_1201_2)" stroke-opacity="0.2" stroke-width="0.158194"/>
</g>
<path d="M186.714 325.537H191.942V326.364H186.714V325.537ZM191.593 325.537H192.461C192.461 325.537 192.454 325.81 192.447 325.927C192.358 328.564 192.27 329.548 191.996 329.89C191.805 330.15 191.607 330.225 191.32 330.266C191.06 330.307 190.636 330.3 190.219 330.286C190.206 330.04 190.09 329.671 189.932 329.425C190.356 329.466 190.752 329.466 190.93 329.466C191.067 329.466 191.142 329.439 191.231 329.357C191.436 329.145 191.525 328.127 191.593 325.694V325.537ZM188.839 323.952H189.673V324.881C189.673 326.384 189.481 328.735 187.199 330.232C187.062 330.04 186.748 329.753 186.55 329.617C188.675 328.291 188.839 326.2 188.839 324.874V323.952ZM187.137 324.396L187.855 324.109C188.108 324.409 188.408 324.84 188.538 325.127L187.773 325.455C187.664 325.175 187.383 324.731 187.137 324.396ZM189.509 327.321L190.199 326.999C190.5 327.382 190.869 327.908 191.026 328.257L190.295 328.619C190.151 328.27 189.803 327.724 189.509 327.321ZM193.261 326.651H199.384V327.464H193.261V326.651ZM193.774 324.963H198.886V325.776H193.774V324.963ZM195.865 323.938H196.733V330.355H195.865V323.938ZM195.722 327.122L196.432 327.416C195.776 328.503 194.71 329.494 193.63 330.054C193.494 329.849 193.22 329.521 193.029 329.35C194.081 328.892 195.161 328.004 195.722 327.122ZM196.883 327.129C197.437 328.011 198.517 328.899 199.562 329.35C199.371 329.514 199.097 329.849 198.961 330.068C197.901 329.507 196.856 328.496 196.2 327.416L196.883 327.129ZM199.918 326.924H206.062V327.71H199.918V326.924ZM200.24 324.683H205.789V325.462H200.24V324.683ZM202.549 323.931H203.424V330.348H202.549V323.931ZM204.586 325.441L205.447 325.694C205.194 326.166 204.921 326.651 204.702 326.958L203.991 326.726C204.203 326.378 204.456 325.844 204.586 325.441ZM200.697 325.735L201.429 325.462C201.681 325.831 201.927 326.33 202.016 326.665L201.23 326.972C201.162 326.644 200.93 326.125 200.697 325.735ZM202.413 327.239L203.076 327.505C202.433 328.585 201.374 329.569 200.308 330.109C200.178 329.911 199.912 329.589 199.727 329.425C200.779 328.981 201.859 328.113 202.413 327.239ZM203.581 327.252C204.128 328.12 205.194 328.995 206.24 329.439C206.048 329.603 205.789 329.917 205.659 330.129C204.593 329.589 203.561 328.592 202.918 327.519L203.581 327.252ZM207.225 325.045H209.323V329.651H207.225V328.927H208.578V325.762H207.225V325.045ZM206.746 325.045H207.491V330.157H206.746V325.045ZM207.19 326.87H208.94V327.58H207.19V326.87ZM207.717 323.931L208.612 324.061C208.455 324.526 208.284 325.011 208.147 325.332L207.491 325.188C207.587 324.833 207.682 324.307 207.717 323.931ZM210.225 324.997H212.22V325.742H210.225V324.997ZM211.94 324.997H212.698C212.698 324.997 212.698 325.264 212.692 325.366C212.603 328.441 212.521 329.528 212.241 329.89C212.049 330.157 211.858 330.232 211.578 330.273C211.318 330.314 210.901 330.307 210.505 330.286C210.491 330.061 210.382 329.712 210.231 329.494C210.676 329.528 211.086 329.535 211.256 329.535C211.393 329.535 211.468 329.507 211.557 329.412C211.776 329.179 211.865 328.004 211.94 325.154V324.997ZM210.245 323.938L211.031 324.122C210.764 325.134 210.32 326.173 209.856 326.829C209.705 326.692 209.37 326.46 209.179 326.35C209.637 325.776 210.026 324.847 210.245 323.938ZM209.91 326.965L210.553 326.603C210.887 327.075 211.338 327.731 211.55 328.134L210.853 328.558C210.669 328.141 210.238 327.471 209.91 326.965ZM213.355 324.594L213.813 323.999C214.189 324.157 214.667 324.423 214.9 324.642L214.415 325.291C214.203 325.072 213.724 324.772 213.355 324.594ZM213.109 326.425L213.56 325.817C213.943 325.961 214.428 326.214 214.661 326.419L214.189 327.081C213.964 326.87 213.492 326.589 213.109 326.425ZM213.185 329.876C213.431 329.323 213.765 328.448 214.011 327.635L214.681 328.045C214.462 328.79 214.189 329.596 213.929 330.273L213.185 329.876ZM217.517 324.744H219.547V325.523H217.517V324.744ZM217.415 326.036H219.103V326.747H217.415V326.036ZM217.128 327.662H219.56V328.4H217.128V327.662ZM217.49 323.945L218.269 324.081C218.118 324.983 217.825 325.872 217.456 326.432C217.305 326.316 216.95 326.118 216.759 326.029C217.134 325.537 217.367 324.737 217.49 323.945ZM217.975 327.088H218.734V329.542C218.734 329.911 218.672 330.116 218.426 330.239C218.18 330.355 217.845 330.368 217.387 330.368C217.367 330.15 217.264 329.835 217.175 329.617C217.456 329.63 217.763 329.63 217.859 329.63C217.948 329.63 217.975 329.61 217.975 329.528V327.088ZM218.781 326.036H218.952L219.096 325.988L219.574 326.33C219.301 326.801 218.911 327.334 218.563 327.683C218.46 327.532 218.242 327.307 218.118 327.198C218.371 326.931 218.652 326.473 218.781 326.173V326.036ZM214.688 324.922H217.107V325.701H214.688V324.922ZM215.453 326.453H216.615V327.198H215.453V326.453ZM215.542 323.952H216.328V325.469H215.542V323.952ZM216.314 326.453H217.052C217.052 326.453 217.052 326.678 217.046 326.774C216.977 328.961 216.909 329.781 216.724 330.034C216.588 330.218 216.458 330.286 216.273 330.321C216.116 330.355 215.87 330.355 215.604 330.348C215.59 330.122 215.522 329.815 215.405 329.617C215.61 329.63 215.781 329.637 215.877 329.637C215.966 329.637 216.021 329.617 216.075 329.535C216.191 329.371 216.26 328.66 216.314 326.596V326.453ZM215.187 325.496H215.939C215.898 327.341 215.795 329.2 214.811 330.341C214.688 330.163 214.456 329.931 214.257 329.808C215.125 328.817 215.159 327.129 215.187 325.496ZM219.896 324.669H221.96V325.393H219.896V324.669ZM221.775 324.669H221.919L222.056 324.642L222.582 324.819C222.295 327.102 221.529 328.865 220.327 329.89C220.197 329.685 219.93 329.371 219.732 329.227C220.805 328.421 221.55 326.678 221.775 324.847V324.669ZM219.869 326.152L220.429 325.68C221.201 326.658 222.247 327.977 222.705 328.81L222.069 329.391C221.639 328.537 220.641 327.163 219.869 326.152ZM222.514 325.844L226.04 325.428L226.135 326.166L222.616 326.596L222.514 325.844ZM224.386 324.396L224.967 323.965C225.261 324.245 225.678 324.642 225.876 324.901L225.254 325.387C225.076 325.12 224.673 324.696 224.386 324.396ZM223.183 323.979H224.037C224.065 326.931 224.406 329.193 225.24 329.33C225.397 329.343 225.473 329.009 225.52 328.284C225.678 328.462 226.053 328.694 226.211 328.776C226.033 330.075 225.657 330.375 225.281 330.348C223.634 330.17 223.279 327.772 223.183 323.979ZM225.268 326.391L225.924 326.781C225.363 328.134 224.249 329.46 223.019 330.116C222.862 329.917 222.602 329.665 222.37 329.507C223.655 328.94 224.748 327.676 225.268 326.391ZM229.458 324.191H230.223V324.908C230.223 325.571 230.045 326.371 229.232 326.87C229.136 326.712 228.842 326.384 228.692 326.275C229.369 325.879 229.458 325.346 229.458 324.888V324.191ZM229.84 324.191H231.494V324.949H229.84V324.191ZM231.104 324.191H231.884V325.68C231.884 325.865 231.904 325.886 231.986 325.886C232.02 325.886 232.143 325.886 232.184 325.886C232.28 325.886 232.3 325.79 232.314 325.195C232.464 325.318 232.786 325.434 232.991 325.489C232.922 326.33 232.738 326.562 232.273 326.562C232.15 326.562 231.945 326.562 231.836 326.562C231.268 326.562 231.104 326.364 231.104 325.687V324.191ZM229.088 326.87H231.931V327.608H229.088V326.87ZM231.678 326.87H231.836L231.986 326.842L232.519 327.047C231.993 328.954 230.667 329.911 228.89 330.362C228.808 330.143 228.617 329.794 228.467 329.617C230.066 329.302 231.275 328.448 231.678 326.993V326.87ZM229.997 327.56C230.496 328.599 231.535 329.323 232.997 329.61C232.82 329.781 232.581 330.129 232.464 330.348C230.906 329.979 229.881 329.104 229.259 327.785L229.997 327.56ZM226.423 327.45C227.004 327.334 227.906 327.109 228.774 326.897L228.863 327.608C228.098 327.854 227.298 328.113 226.656 328.305L226.423 327.45ZM226.533 325.209H228.89V325.968H226.533V325.209ZM227.401 323.938H228.207V329.473C228.207 329.87 228.132 330.075 227.899 330.198C227.674 330.321 227.346 330.348 226.861 330.341C226.833 330.136 226.731 329.801 226.635 329.596C226.895 329.603 227.182 329.603 227.271 329.603C227.36 329.596 227.401 329.569 227.401 329.473V323.938ZM237.242 329.166L237.843 328.756C238.363 329.036 239.06 329.466 239.422 329.788L238.773 330.245C238.458 329.938 237.775 329.473 237.242 329.166ZM234.092 327.129H238.657V327.751H234.092V327.129ZM233.279 328.038H239.477V328.687H233.279V328.038ZM233.374 324.163H239.34V324.806H233.374V324.163ZM235.957 328.154H236.791V329.576C236.791 329.938 236.73 330.129 236.463 330.239C236.203 330.355 235.875 330.362 235.424 330.362C235.39 330.143 235.274 329.835 235.178 329.637C235.445 329.651 235.752 329.651 235.841 329.644C235.937 329.644 235.957 329.624 235.957 329.548V328.154ZM234.638 328.742L235.39 329.002C235.001 329.507 234.379 330.013 233.846 330.321C233.709 330.177 233.408 329.904 233.231 329.781C233.764 329.535 234.317 329.138 234.638 328.742ZM234.536 325.756V326.261H238.171V325.756H234.536ZM233.777 325.168H238.985V326.856H233.777V325.168ZM235.219 324.409H235.971V326.617H235.219V324.409ZM236.689 324.409H237.454V326.617H236.689V324.409Z" fill="white"/>
<path d="M166.616 338.288C165.607 338.281 164.622 338.106 163.661 337.763C162.7 337.413 161.836 336.847 161.067 336.065C160.298 335.275 159.688 334.229 159.235 332.925C158.782 331.614 158.559 329.991 158.566 328.056C158.566 326.251 158.758 324.642 159.142 323.228C159.526 321.814 160.079 320.62 160.799 319.646C161.52 318.664 162.388 317.916 163.404 317.401C164.426 316.887 165.569 316.629 166.832 316.629C168.156 316.629 169.33 316.89 170.352 317.412C171.382 317.933 172.212 318.647 172.844 319.553C173.475 320.452 173.866 321.468 174.017 322.6H170.26C170.068 321.79 169.673 321.145 169.076 320.665C168.486 320.177 167.738 319.934 166.832 319.934C165.37 319.934 164.245 320.569 163.455 321.838C162.673 323.108 162.278 324.851 162.271 327.068H162.416C162.752 326.464 163.188 325.946 163.723 325.513C164.258 325.081 164.862 324.748 165.535 324.515C166.214 324.275 166.931 324.154 167.686 324.154C168.921 324.154 170.03 324.45 171.011 325.04C171.999 325.63 172.782 326.443 173.358 327.479C173.935 328.509 174.22 329.689 174.213 331.021C174.22 332.407 173.904 333.652 173.266 334.757C172.627 335.855 171.739 336.72 170.599 337.351C169.46 337.983 168.132 338.295 166.616 338.288ZM166.595 335.2C167.343 335.2 168.012 335.018 168.602 334.654C169.193 334.291 169.659 333.8 170.002 333.182C170.345 332.565 170.514 331.872 170.507 331.103C170.514 330.348 170.349 329.665 170.013 329.054C169.683 328.444 169.227 327.96 168.644 327.603C168.06 327.246 167.395 327.068 166.646 327.068C166.091 327.068 165.572 327.174 165.092 327.387C164.612 327.6 164.193 327.895 163.836 328.272C163.479 328.643 163.198 329.075 162.992 329.569C162.793 330.056 162.69 330.578 162.683 331.134C162.69 331.868 162.862 332.544 163.198 333.162C163.534 333.779 163.997 334.274 164.588 334.644C165.178 335.015 165.847 335.2 166.595 335.2Z" fill="url(#paint23_linear_1201_2)"/>
<defs>
<filter id="filter0_b_1201_2" x="0.215554" y="-3.78445" width="149.643" height="44.5689" filterUnits="userSpaceOnUse" color-interpolation-filters="sRGB">
<feFlood flood-opacity="0" result="BackgroundImageFix"/>
<feGaussianBlur in="BackgroundImageFix" stdDeviation="1.89222"/>
<feComposite in2="SourceAlpha" operator="in" result="effect1_backgroundBlur_1201_2"/>
<feBlend mode="normal" in="SourceGraphic" in2="effect1_backgroundBlur_1201_2" result="shape"/>
</filter>
<filter id="filter1_b_1201_2" x="138.216" y="60.2156" width="149.569" height="44.5689" filterUnits="userSpaceOnUse" color-interpolation-filters="sRGB">
<feFlood flood-opacity="0" result="BackgroundImageFix"/>
<feGaussianBlur in="BackgroundImageFix" stdDeviation="1.89222"/>
<feComposite in2="SourceAlpha" operator="in" result="effect1_backgroundBlur_1201_2"/>
<feBlend mode="normal" in="SourceGraphic" in2="effect1_backgroundBlur_1201_2" result="shape"/>
</filter>
<filter id="filter2_b_1201_2" x="0.203343" y="124.203" width="150.127" height="44.5933" filterUnits="userSpaceOnUse" color-interpolation-filters="sRGB">
<feFlood flood-opacity="0" result="BackgroundImageFix"/>
<feGaussianBlur in="BackgroundImageFix" stdDeviation="1.89833"/>
<feComposite in2="SourceAlpha" operator="in" result="effect1_backgroundBlur_1201_2"/>
<feBlend mode="normal" in="SourceGraphic" in2="effect1_backgroundBlur_1201_2" result="shape"/>
</filter>
<filter id="filter3_b_1201_2" x="140.672" y="188.203" width="150.127" height="44.5933" filterUnits="userSpaceOnUse" color-interpolation-filters="sRGB">
<feFlood flood-opacity="0" result="BackgroundImageFix"/>
<feGaussianBlur in="BackgroundImageFix" stdDeviation="1.89833"/>
<feComposite in2="SourceAlpha" operator="in" result="effect1_backgroundBlur_1201_2"/>
<feBlend mode="normal" in="SourceGraphic" in2="effect1_backgroundBlur_1201_2" result="shape"/>
</filter>
<filter id="filter4_b_1201_2" x="0.203343" y="252.203" width="150.127" height="44.5933" filterUnits="userSpaceOnUse" color-interpolation-filters="sRGB">
<feFlood flood-opacity="0" result="BackgroundImageFix"/>
<feGaussianBlur in="BackgroundImageFix" stdDeviation="1.89833"/>
<feComposite in2="SourceAlpha" operator="in" result="effect1_backgroundBlur_1201_2"/>
<feBlend mode="normal" in="SourceGraphic" in2="effect1_backgroundBlur_1201_2" result="shape"/>
</filter>
<filter id="filter5_b_1201_2" x="141.203" y="305.203" width="150.127" height="44.5933" filterUnits="userSpaceOnUse" color-interpolation-filters="sRGB">
<feFlood flood-opacity="0" result="BackgroundImageFix"/>
<feGaussianBlur in="BackgroundImageFix" stdDeviation="1.89833"/>
<feComposite in2="SourceAlpha" operator="in" result="effect1_backgroundBlur_1201_2"/>
<feBlend mode="normal" in="SourceGraphic" in2="effect1_backgroundBlur_1201_2" result="shape"/>
</filter>
<linearGradient id="paint0_linear_1201_2" x1="4" y1="0.927577" x2="124.832" y2="72.7417" gradientUnits="userSpaceOnUse">
<stop stop-color="white" stop-opacity="0.4"/>
<stop offset="1" stop-color="white" stop-opacity="0"/>
</linearGradient>
<radialGradient id="paint1_radial_1201_2" cx="0" cy="0" r="1" gradientUnits="userSpaceOnUse" gradientTransform="translate(72.9873 18.5515) rotate(165.028) scale(71.4115 127.625)">
<stop/>
<stop offset="1" stop-opacity="0"/>
</radialGradient>
<radialGradient id="paint2_radial_1201_2" cx="0" cy="0" r="1" gradientUnits="userSpaceOnUse" gradientTransform="translate(80.686 20.7865) rotate(-165.265) scale(79.2937 140.29)">
<stop stop-color="white"/>
<stop offset="1" stop-color="white" stop-opacity="0"/>
</radialGradient>
<linearGradient id="paint3_linear_1201_2" x1="15.9824" y1="15.335" x2="30.2858" y2="15.3976" gradientUnits="userSpaceOnUse">
<stop stop-color="#1056FA"/>
<stop offset="1" stop-color="#00C7F8"/>
</linearGradient>
<linearGradient id="paint4_linear_1201_2" x1="142" y1="64.9276" x2="262.802" y2="136.686" gradientUnits="userSpaceOnUse">
<stop stop-color="white" stop-opacity="0.4"/>
<stop offset="1" stop-color="white" stop-opacity="0"/>
</linearGradient>
<radialGradient id="paint5_radial_1201_2" cx="0" cy="0" r="1" gradientUnits="userSpaceOnUse" gradientTransform="translate(210.951 82.5515) rotate(165.021) scale(71.3765 127.621)">
<stop/>
<stop offset="1" stop-opacity="0"/>
</radialGradient>
<radialGradient id="paint6_radial_1201_2" cx="0" cy="0" r="1" gradientUnits="userSpaceOnUse" gradientTransform="translate(218.646 84.7865) rotate(-165.258) scale(79.2548 140.286)">
<stop stop-color="white"/>
<stop offset="1" stop-color="white" stop-opacity="0"/>
</radialGradient>
<linearGradient id="paint7_linear_1201_2" x1="153" y1="77.22" x2="171.39" y2="77.2828" gradientUnits="userSpaceOnUse">
<stop stop-color="#1056FA"/>
<stop offset="1" stop-color="#00C7F8"/>
</linearGradient>
<linearGradient id="paint8_linear_1201_2" x1="4" y1="128.928" x2="138.15" y2="211.084" gradientUnits="userSpaceOnUse">
<stop stop-color="white" stop-opacity="0.4"/>
<stop offset="1" stop-color="white" stop-opacity="0"/>
</linearGradient>
<radialGradient id="paint9_radial_1201_2" cx="0" cy="0" r="1" gradientUnits="userSpaceOnUse" gradientTransform="translate(73.2099 146.552) rotate(165.074) scale(71.6265 127.652)">
<stop/>
<stop offset="1" stop-opacity="0"/>
</radialGradient>
<radialGradient id="paint10_radial_1201_2" cx="0" cy="0" r="1" gradientUnits="userSpaceOnUse" gradientTransform="translate(80.9334 148.787) rotate(-165.31) scale(79.533 140.319)">
<stop stop-color="white"/>
<stop offset="1" stop-color="white" stop-opacity="0"/>
</radialGradient>
<linearGradient id="paint11_linear_1201_2" x1="16.0215" y1="143.313" x2="35.4329" y2="143.429" gradientUnits="userSpaceOnUse">
<stop stop-color="#1056FA"/>
<stop offset="1" stop-color="#00C7F8"/>
</linearGradient>
<linearGradient id="paint12_linear_1201_2" x1="144.469" y1="192.928" x2="265.487" y2="265.084" gradientUnits="userSpaceOnUse">
<stop stop-color="white" stop-opacity="0.4"/>
<stop offset="1" stop-color="white" stop-opacity="0"/>
</linearGradient>
<radialGradient id="paint13_radial_1201_2" cx="0" cy="0" r="1" gradientUnits="userSpaceOnUse" gradientTransform="translate(213.679 210.552) rotate(165.074) scale(71.6265 127.652)">
<stop/>
<stop offset="1" stop-opacity="0"/>
</radialGradient>
<radialGradient id="paint14_radial_1201_2" cx="0" cy="0" r="1" gradientUnits="userSpaceOnUse" gradientTransform="translate(221.402 212.787) rotate(-165.31) scale(79.533 140.319)">
<stop stop-color="white"/>
<stop offset="1" stop-color="white" stop-opacity="0"/>
</radialGradient>
<linearGradient id="paint15_linear_1201_2" x1="154" y1="205.22" x2="174.434" y2="205.298" gradientUnits="userSpaceOnUse">
<stop stop-color="#1056FA"/>
<stop offset="1" stop-color="#00C7F8"/>
</linearGradient>
<linearGradient id="paint16_linear_1201_2" x1="4" y1="256.928" x2="125.018" y2="329.084" gradientUnits="userSpaceOnUse">
<stop stop-color="white" stop-opacity="0.4"/>
<stop offset="1" stop-color="white" stop-opacity="0"/>
</linearGradient>
<radialGradient id="paint17_radial_1201_2" cx="0" cy="0" r="1" gradientUnits="userSpaceOnUse" gradientTransform="translate(73.2099 274.552) rotate(165.074) scale(71.6265 127.652)">
<stop/>
<stop offset="1" stop-opacity="0"/>
</radialGradient>
<radialGradient id="paint18_radial_1201_2" cx="0" cy="0" r="1" gradientUnits="userSpaceOnUse" gradientTransform="translate(80.9334 276.787) rotate(-165.31) scale(79.533 140.319)">
<stop stop-color="white"/>
<stop offset="1" stop-color="white" stop-opacity="0"/>
</radialGradient>
<linearGradient id="paint19_linear_1201_2" x1="16.0195" y1="269.22" x2="35.4314" y2="269.29" gradientUnits="userSpaceOnUse">
<stop stop-color="#1056FA"/>
<stop offset="1" stop-color="#00C7F8"/>
</linearGradient>
<linearGradient id="paint20_linear_1201_2" x1="145" y1="309.928" x2="273.108" y2="386.429" gradientUnits="userSpaceOnUse">
<stop stop-color="white" stop-opacity="0.4"/>
<stop offset="1" stop-color="white" stop-opacity="0"/>
</linearGradient>
<radialGradient id="paint21_radial_1201_2" cx="0" cy="0" r="1" gradientUnits="userSpaceOnUse" gradientTransform="translate(214.21 327.552) rotate(165.074) scale(71.6265 127.652)">
<stop/>
<stop offset="1" stop-opacity="0"/>
</radialGradient>
<radialGradient id="paint22_radial_1201_2" cx="0" cy="0" r="1" gradientUnits="userSpaceOnUse" gradientTransform="translate(221.933 329.787) rotate(-165.31) scale(79.533 140.319)">
<stop stop-color="white"/>
<stop offset="1" stop-color="white" stop-opacity="0"/>
</radialGradient>
<linearGradient id="paint23_linear_1201_2" x1="157.021" y1="322.22" x2="176.433" y2="322.29" gradientUnits="userSpaceOnUse">
<stop stop-color="#1056FA"/>
<stop offset="1" stop-color="#00C7F8"/>
</linearGradient>
</defs>
</svg>
