<svg width="288" height="350" viewBox="0 0 288 350" fill="none" xmlns="http://www.w3.org/2000/svg">
<g clip-path="url(#clip0_1139_238)">
<rect width="288" height="350" fill="#12141D"/>
<path d="M16.5367 18L48.3629 35.1734L77.4745 52.8194C79.6721 54.1515 82.1058 55.0475 84.6425 55.4586L122.85 61.6497C124.672 61.945 126.444 62.491 128.117 63.2724L135.733 66.831C150.365 73.6669 151.279 94.1292 137.316 102.243L129.651 106.698C127.789 107.78 125.765 108.554 123.656 108.99L84.7107 117.052C81.9341 117.627 79.3115 118.786 77.0168 120.451L48.084 141.452C46.5185 142.588 44.7476 143.41 42.8693 143.872V143.872C28.7812 147.337 27.3774 166.814 40.823 172.263L61.4143 180.609C63.0015 181.252 64.6647 181.689 66.3631 181.908L102.161 186.535C105.866 187.013 109.362 188.52 112.255 190.885L126.797 202.771C128.342 204.035 130.159 204.923 132.105 205.367L147.353 208.85C158.68 211.437 157.731 227.873 146.182 229.139V229.139C145.639 229.199 145.101 229.301 144.575 229.446L111.409 238.557C109.043 239.208 106.577 239.417 104.135 239.174L80.8975 236.866C73.2769 236.11 65.8932 239.771 61.8828 246.295L60.6387 248.319C58.1928 252.298 54.4315 255.295 50.0071 256.792L31.9824 262.887C30.345 263.44 28.8 264.237 27.3993 265.25V265.25C17.162 272.652 18.0883 288.184 29.1328 294.318L38.6957 299.628C39.9841 300.344 41.3476 300.915 42.7615 301.33L62.4367 307.118C66.3449 308.268 69.8088 310.583 72.3651 313.755L82.8299 326.74C87.3904 332.399 94.6618 335.138 101.822 333.896L123.305 330.167C127.117 329.505 131.04 329.964 134.597 331.486L173.171 348" stroke="#05A2F8" stroke-width="0.3" stroke-dasharray="1 4"/>
<mask id="mask0_1139_238" style="mask-type:alpha" maskUnits="userSpaceOnUse" x="16" y="17" width="158" height="332">
<path d="M16.5367 18L48.3629 35.1734L77.4745 52.8194C79.6721 54.1515 82.1058 55.0475 84.6425 55.4586L122.85 61.6497C124.672 61.945 126.444 62.491 128.117 63.2724L135.733 66.831C150.365 73.6669 151.279 94.1292 137.316 102.243L129.651 106.698C127.789 107.78 125.765 108.554 123.656 108.99L84.7107 117.052C81.9341 117.627 79.3115 118.786 77.0168 120.451L48.084 141.452C46.5185 142.588 44.7476 143.41 42.8693 143.872V143.872C28.7812 147.337 27.3774 166.814 40.823 172.263L61.4143 180.609C63.0015 181.252 64.6647 181.689 66.3631 181.908L102.161 186.535C105.866 187.013 109.362 188.52 112.255 190.885L126.797 202.771C128.342 204.035 130.159 204.923 132.105 205.367L147.353 208.85C158.68 211.437 157.731 227.873 146.182 229.139V229.139C145.639 229.199 145.101 229.301 144.575 229.446L111.409 238.557C109.043 239.208 106.577 239.417 104.135 239.174L80.8975 236.866C73.2769 236.11 65.8932 239.771 61.8828 246.295L60.6387 248.319C58.1928 252.298 54.4315 255.295 50.0071 256.792L31.9824 262.887C30.345 263.44 28.8 264.237 27.3993 265.25V265.25C17.162 272.652 18.0883 288.184 29.1328 294.318L38.6957 299.628C39.9841 300.344 41.3476 300.915 42.7615 301.33L62.4367 307.118C66.3449 308.268 69.8088 310.583 72.3651 313.755L82.8299 326.74C87.3904 332.399 94.6618 335.138 101.822 333.896L123.305 330.167C127.117 329.505 131.04 329.964 134.597 331.486L173.171 348" stroke="#05A2F8" stroke-width="0.3" stroke-dasharray="1 4"/>
</mask>
<g mask="url(#mask0_1139_238)">
<rect x="139" y="68" width="29" height="35" fill="#12141D" fill-opacity="0.94"/>
<rect x="14" y="7" width="47" height="34" fill="#12141D" fill-opacity="0.94"/>
<rect x="139" y="200" width="32" height="32" fill="#12141D" fill-opacity="0.94"/>
<rect x="17" y="256" width="37" height="42" fill="#12141D" fill-opacity="0.94"/>
<rect x="138" y="310" width="37" height="39" fill="#12141D" fill-opacity="0.88"/>
<rect x="19" y="128" width="47" height="43" fill="#12141D" fill-opacity="0.94"/>
</g>
<g filter="url(#filter0_b_1139_238)">
<rect x="2" y="2" width="142.074" height="37" rx="2.73878" fill="url(#paint0_linear_1139_238)" fill-opacity="0.2"/>
<rect x="2.07884" y="2.07884" width="141.917" height="36.8423" rx="2.65994" stroke="url(#paint1_radial_1139_238)" stroke-width="0.157685"/>
<rect x="2.07884" y="2.07884" width="141.917" height="36.8423" rx="2.65994" stroke="url(#paint2_radial_1139_238)" stroke-opacity="0.2" stroke-width="0.157685"/>
</g>
<path d="M41.0999 17.888H41.9718V19.1277H41.0999V17.888ZM38.6545 18.501H44.4785V20.1154H43.6066V19.2571H39.4855V20.1154H38.6545V18.501ZM40.8547 19.4206L41.713 19.6045C41.1953 20.7012 40.5005 22.0568 40.01 22.9082L39.1517 22.6766C39.6626 21.8456 40.3847 20.4696 40.8547 19.4206ZM42.5712 20.9805L43.4976 21.1031C42.8982 23.1943 41.4677 23.9573 39.1313 24.2979C39.0564 24.1003 38.8179 23.7325 38.6681 23.5486C40.9024 23.3306 42.2034 22.7243 42.5712 20.9805ZM38.5182 20.4356H44.6011V21.2053H38.5182V20.4356ZM39.6626 22.5336L40.2552 21.9682C41.5699 22.3292 43.375 23.024 44.3287 23.6099L43.6679 24.2774C42.8096 23.7052 41.0386 22.9423 39.6626 22.5336ZM47.7763 21.0486H48.6074V21.9274H47.7763V21.0486ZM47.6946 21.7094L48.3281 21.9818C47.6674 22.6358 46.5502 23.1126 45.4195 23.3238C45.3241 23.1467 45.1266 22.881 44.9835 22.738C46.0598 22.5745 47.1497 22.2066 47.6946 21.7094ZM48.7436 21.723C49.1455 22.7584 50.031 23.4191 51.4411 23.6507C51.2776 23.8074 51.0732 24.1071 50.9847 24.3115C49.4384 23.9845 48.5665 23.1875 48.0556 21.866L48.7436 21.723ZM50.4602 22.0636L51.0392 22.4927C50.6237 22.7856 50.0855 23.0717 49.6768 23.2488L49.1932 22.8538C49.5951 22.663 50.14 22.3224 50.4602 22.0636ZM45.8009 23.5622C46.5366 23.4804 47.6537 23.3306 48.6891 23.1875L48.73 23.8551C47.7491 24.0049 46.6933 24.148 45.9303 24.257L45.8009 23.5622ZM45.1061 21.5186H51.3185V22.1317H45.1061V21.5186ZM47.5107 18.6849H51.3048V19.3866H47.5107V18.6849ZM47.681 20.1903H51.1277V20.892H47.681V20.1903ZM46.4821 17.8948H47.2382V21.1917H46.4821V17.8948ZM48.9616 17.8948H49.779V20.674H48.9616V17.8948ZM45.1266 18.6645L45.5966 18.2013C45.8895 18.3988 46.2777 18.6849 46.4617 18.8893L45.9644 19.407C45.7941 19.1958 45.4263 18.8757 45.1266 18.6645ZM44.9971 20.238C45.3513 20.1154 45.8418 19.9111 46.3459 19.6999L46.5093 20.347C46.0938 20.5377 45.6511 20.7353 45.2628 20.9056L44.9971 20.238ZM46.5707 22.7924L47.0202 22.3429L47.354 22.4519V23.8142H46.5707V22.7924ZM51.7553 19.9179H55.025V20.674H51.7553V19.9179ZM55.3519 18.719H56.1489V22.5472H55.3519V18.719ZM53.0564 18.5691H53.8602V24.2842H53.0564V18.5691ZM56.9663 18.0242H57.7769V23.2897C57.7769 23.7733 57.6816 23.9981 57.4023 24.1344C57.1162 24.2638 56.6666 24.291 56.0399 24.291C55.9991 24.0526 55.8696 23.678 55.7538 23.4464C56.2034 23.46 56.6394 23.46 56.7824 23.46C56.9118 23.46 56.9663 23.4191 56.9663 23.2897V18.0242ZM54.4255 17.922L55.0114 18.5487C54.1463 18.8893 52.9474 19.1209 51.9188 19.2639C51.8847 19.08 51.7689 18.7939 51.6736 18.6236C52.6681 18.4738 53.7648 18.2217 54.4255 17.922ZM53.0496 20.2789L53.6013 20.5173C53.2607 21.5391 52.6613 22.7584 52.021 23.4396C51.9392 23.1943 51.7349 22.8538 51.5987 22.6358C52.1845 22.0704 52.7771 21.0759 53.0496 20.2789ZM53.7376 20.9669C54.0032 21.1372 54.8479 21.8456 55.0454 22.0227L54.5822 22.7243C54.2825 22.3565 53.649 21.6958 53.3152 21.3892L53.7376 20.9669ZM58.9767 18.3716H64.1264V21.9478H63.3226V19.0187H59.7396V21.9478H58.9767V18.3716ZM58.4181 22.1113H64.6305V22.7856H58.4181V22.1113ZM59.978 20.1835H63.0978V20.6672H59.978V20.1835ZM60.9998 21.7843H61.8513C61.6946 23.2216 61.2791 23.9777 58.6702 24.2842C58.6157 24.0799 58.4386 23.7665 58.3023 23.5962C60.6184 23.3851 60.8772 22.8742 60.9998 21.7843ZM62.0011 22.3429C62.369 23.1739 63.2 23.4872 64.7395 23.5281C64.5624 23.7188 64.358 24.0594 64.2627 24.3047C62.5325 24.1548 61.7219 23.6575 61.2314 22.4246L62.0011 22.3429ZM61.2042 19.4479H61.8172V21.614H61.2042V19.4479ZM62.2872 19.6795L62.7845 19.8225C62.6619 20.0064 62.5597 20.1699 62.478 20.2993L62.0761 20.1631C62.151 20.0201 62.2396 19.8157 62.2872 19.6795ZM60.305 19.8566L60.7546 19.7271C60.8363 19.8566 60.9181 20.0405 60.9521 20.1631L60.4821 20.3198C60.4549 20.1903 60.3799 19.9928 60.305 19.8566ZM61.4153 20.9192L61.7491 20.5309C62.1987 20.7489 62.8254 21.0895 63.1523 21.3075L62.8049 21.7502C62.4984 21.5255 61.8785 21.1644 61.4153 20.9192ZM61.1633 17.8948L62.0625 17.9697C61.9194 18.2967 61.7764 18.5828 61.6674 18.7803L60.8908 18.6849C60.993 18.4465 61.1088 18.1264 61.1633 17.8948ZM61.1361 20.4492L61.6061 20.6399C61.2995 21.0963 60.741 21.5731 60.2301 21.8116C60.1347 21.6753 59.9644 21.471 59.835 21.3688C60.3186 21.1849 60.8568 20.8102 61.1361 20.4492ZM62.7164 19.1209L63.0365 19.5364C62.2668 19.6727 61.0952 19.7408 60.1483 19.7408C60.1279 19.625 60.0734 19.4411 60.0189 19.3252C60.9385 19.298 62.0693 19.2367 62.7164 19.1209ZM65.912 17.9084L66.6341 18.1264C66.348 18.9234 65.8575 19.7476 65.3126 20.2653C65.2581 20.0882 65.0605 19.659 64.9311 19.4683C65.3398 19.0868 65.7077 18.5146 65.912 17.9084ZM65.9052 18.5351H67.5945V19.3116H65.7417L65.9052 18.5351ZM66.0551 24.2706L65.912 23.5486L66.13 23.2965L67.5877 22.4859C67.6081 22.7039 67.6899 23.024 67.758 23.1875C66.4229 23.9709 66.1845 24.1276 66.0551 24.2706ZM65.5237 19.8293H67.4992V20.5582H65.5237V19.8293ZM65.1627 21.2257H67.5945V21.9546H65.1627V21.2257ZM67.7989 19.4615L70.98 18.9778L71.1094 19.6863L67.9351 20.1903L67.7989 19.4615ZM67.649 20.9328L71.1571 20.2925L71.2865 21.0009L67.7784 21.6549L67.649 20.9328ZM68.6776 17.8675H69.461C69.4133 20.6467 69.9582 23.5009 70.5985 23.5077C70.7279 23.5077 70.7892 23.3306 70.8165 22.7856C70.9732 22.9627 71.2116 23.133 71.3819 23.2148C71.2524 24.0458 71.0413 24.2706 70.51 24.2706C69.1408 24.2706 68.6912 20.9533 68.6776 17.8675ZM69.5768 18.3852L70.0536 17.9561C70.3329 18.1196 70.7143 18.3784 70.9119 18.5487L70.4214 19.0323C70.2307 18.8484 69.856 18.5691 69.5768 18.3852ZM70.6462 21.287L71.3274 21.5799C70.6121 22.8061 69.4201 23.6712 68.0645 24.2025C67.9555 24.0049 67.758 23.7257 67.5673 23.5486C68.8479 23.1194 70.0195 22.3497 70.6462 21.287ZM66.0551 24.2706C65.9869 24.1139 65.7894 23.8415 65.6736 23.7325C65.8166 23.6167 66.0482 23.3578 66.0482 23.0036V20.0064H66.7771V23.4328C66.7771 23.4328 66.0551 23.9981 66.0551 24.2706ZM73.2288 17.8607L74.0939 18.1059C73.6647 19.155 72.9767 20.1767 72.2819 20.8238C72.1253 20.6604 71.771 20.3606 71.5599 20.2312C72.2547 19.6863 72.8746 18.7803 73.2288 17.8607ZM73.365 18.6509H76.9889V19.4206H72.9767L73.365 18.6509ZM76.7436 18.6509H77.5679C77.5679 18.6509 77.5679 18.8893 77.5611 18.9983C77.4998 21.1712 77.4384 21.9955 77.2409 22.2611C77.0979 22.4655 76.9412 22.5336 76.7232 22.5677C76.5325 22.6085 76.226 22.6017 75.8854 22.6017C75.8786 22.3633 75.79 22.0363 75.6674 21.8184C75.9262 21.8524 76.1578 21.8524 76.2804 21.8524C76.3826 21.8524 76.4507 21.8252 76.5052 21.7502C76.6347 21.5799 76.696 20.8511 76.7436 18.8076V18.6509ZM72.9904 21.4778H74.8568V20.6535H72.8609V19.9383H75.6606V22.1998H72.9904V21.4778ZM72.6225 21.4778H73.4331V23.1398C73.4331 23.4259 73.5557 23.4736 74.2778 23.4736C74.5979 23.4736 76.008 23.4736 76.4235 23.4736C77.0025 23.4736 77.0979 23.3578 77.166 22.6562C77.3635 22.772 77.7177 22.9014 77.9493 22.9423C77.8131 23.9845 77.5406 24.2365 76.4507 24.2365C76.1578 24.2365 74.5503 24.2365 74.2642 24.2365C72.9904 24.2365 72.6225 24.0118 72.6225 23.1535V21.4778ZM80.4025 19.0596H84.4282V19.8498H80.4025V19.0596ZM81.254 18.0787H82.0646V20.2993C82.0646 21.2394 81.9147 22.4995 81.0428 23.2216C80.927 23.0649 80.6068 22.7516 80.4365 22.6426C81.1858 22.0159 81.254 21.0759 81.254 20.2857V18.0787ZM80.3412 20.8034H84.5713V21.5799H80.3412V20.8034ZM79.9733 20.3675V23.0854H79.1695V21.1236H78.3726V20.3675H79.9733ZM79.551 22.6903C79.7894 22.6903 79.9665 22.881 80.3548 23.099C80.818 23.3578 81.4447 23.3987 82.2076 23.3987C82.9296 23.3987 84.04 23.3374 84.728 23.2352C84.6394 23.46 84.5032 23.8619 84.4895 24.0867C84.0059 24.1207 82.8752 24.1616 82.1804 24.1616C81.3153 24.1616 80.7363 24.0799 80.2322 23.8074C79.9188 23.6371 79.6941 23.4328 79.5374 23.4328C79.333 23.4328 79.0333 23.8755 78.7813 24.2774L78.2363 23.5009C78.6995 23.0104 79.2036 22.6903 79.551 22.6903ZM78.4952 18.4806L79.0742 18.0174C79.442 18.3444 79.9325 18.8076 80.1641 19.1141L79.5374 19.6386C79.333 19.3184 78.863 18.8212 78.4952 18.4806ZM82.8343 18.0855H83.6517V23.1126H82.8343V18.0855ZM87.7805 18.283H91.1115V19.0596H87.7805V18.283ZM89.5107 20.4015H90.3486V23.3442C90.3486 23.7802 90.26 24.0118 89.9603 24.1412C89.6674 24.2638 89.2383 24.2706 88.6252 24.2706C88.598 24.0322 88.489 23.678 88.38 23.4396C88.7682 23.46 89.2178 23.46 89.3404 23.46C89.4699 23.4532 89.5107 23.4259 89.5107 23.3238V20.4015ZM87.4876 20.1699H91.2886V20.9465H87.4876V20.1699ZM85.9618 20.9737L86.677 20.2585L86.7792 20.2993V24.2979H85.9618V20.9737ZM86.7315 19.3797L87.5081 19.6727C86.9699 20.5786 86.1321 21.5323 85.4032 22.1317C85.2874 21.9614 85.0081 21.5936 84.8447 21.4301C85.5395 20.9396 86.2819 20.1495 86.7315 19.3797ZM86.4727 17.8948L87.256 18.2149C86.7588 18.862 86.0231 19.5705 85.376 20.0201C85.267 19.8361 85.0558 19.516 84.9196 19.3525C85.485 18.9847 86.1389 18.3716 86.4727 17.8948ZM91.9162 18.2558H97.7403V19.0187H91.9162V18.2558ZM93.5306 19.7885H96.2485V20.5173H93.5306V19.7885ZM93.1832 21.6208H96.0305V22.3497H93.1832V21.6208ZM91.6982 23.2488H97.931V24.0049H91.6982V23.2488ZM93.4012 18.7939H94.2935C94.0551 20.0814 93.7077 21.6889 93.4488 22.6766L92.5565 22.6085C92.8494 21.6072 93.2036 20.0201 93.4012 18.7939ZM95.867 19.7885H96.7457C96.6163 21.035 96.4256 22.5881 96.2689 23.5349H95.3698C95.5537 22.554 95.7649 21.0009 95.867 19.7885ZM101.481 19.3729H104.158V20.1563H101.481V19.3729ZM103.736 19.3729H104.539C104.539 19.3729 104.533 19.6454 104.533 19.7408C104.458 22.5064 104.389 23.5077 104.158 23.8278C103.994 24.0594 103.838 24.1344 103.592 24.1752C103.375 24.2161 103.027 24.2161 102.68 24.2025C102.659 23.9709 102.571 23.6235 102.428 23.3987C102.755 23.4328 103.048 23.4328 103.197 23.4328C103.306 23.4328 103.375 23.4055 103.449 23.317C103.613 23.1126 103.681 22.1385 103.736 19.55V19.3729ZM102.257 18.0174H103.061C103.054 20.6672 103.027 22.9491 101.678 24.2842C101.542 24.0799 101.276 23.7938 101.065 23.6575C102.291 22.4859 102.251 20.4628 102.257 18.0174ZM98.5995 18.4193H101.283V19.1413H98.5995V18.4193ZM98.3747 20.0064H101.399V20.7421H98.3747V20.0064ZM100.336 21.362L100.99 21.1781C101.242 21.7502 101.529 22.5132 101.638 22.9832L100.929 23.208C100.834 22.738 100.575 21.9546 100.336 21.362ZM98.6744 23.5486L98.5926 22.8606L98.94 22.6017L101.14 22.084C101.161 22.302 101.215 22.6085 101.256 22.7788C99.1989 23.3101 98.8787 23.4191 98.6744 23.5486ZM98.6676 23.5486C98.6267 23.3919 98.4973 23.0172 98.4087 22.8197C98.5382 22.772 98.6335 22.6153 98.7493 22.3633C98.8515 22.1249 99.1648 21.1781 99.3079 20.3198L100.112 20.5514C99.9073 21.4437 99.5395 22.4314 99.1989 23.1126V23.1262C99.1989 23.1262 98.6676 23.3987 98.6676 23.5486Z" fill="white"/>
<path d="M24.3973 10.5079V31.5225H20.5905V14.2121H20.4674L15.5524 17.352V13.8633L20.7752 10.5079H24.3973Z" fill="url(#paint3_linear_1139_238)"/>
<g filter="url(#filter1_b_1139_238)">
<rect x="144" y="66" width="142" height="37" rx="2.73878" fill="url(#paint4_linear_1139_238)" fill-opacity="0.2"/>
<rect x="144.079" y="66.0788" width="141.842" height="36.8423" rx="2.65994" stroke="url(#paint5_radial_1139_238)" stroke-width="0.157685"/>
<rect x="144.079" y="66.0788" width="141.842" height="36.8423" rx="2.65994" stroke="url(#paint6_radial_1139_238)" stroke-opacity="0.2" stroke-width="0.157685"/>
</g>
<path d="M187.44 81.2878H188.326C188.285 82.8477 188.183 85.7359 186.528 87.3571C186.337 87.1119 186.058 86.8735 185.765 86.7032C187.406 85.2727 187.406 82.5957 187.44 81.2878ZM184.906 84.2101L185.445 83.5289C185.949 84.0398 186.48 84.7209 186.725 85.1773L186.133 85.9403C185.901 85.4702 185.376 84.7346 184.906 84.2101ZM188.203 82.0848C188.36 83.6311 188.714 85.6473 189.947 86.5533C189.756 86.7304 189.436 87.1323 189.3 87.3912C188.013 86.274 187.652 84.0943 187.481 82.4594L188.203 82.0848ZM184.886 81.2537L185.799 81.281C185.683 83.9376 185.37 86.0969 184.28 87.4048C184.137 87.2685 183.687 86.962 183.469 86.8326C184.545 85.7223 184.818 83.6924 184.886 81.2537ZM190.302 82.6706H192.203V83.4948H190.302V82.6706ZM192.952 81.0085H193.817V86.3421C193.817 86.8326 193.715 87.0778 193.429 87.2277C193.136 87.3707 192.686 87.4048 192.067 87.4048C192.032 87.1527 191.869 86.7372 191.74 86.492C192.189 86.5124 192.618 86.5124 192.768 86.5124C192.904 86.5056 192.952 86.4648 192.952 86.3353V81.0085ZM191.923 82.6706H192.094L192.237 82.6433L192.802 82.8477C192.489 84.7073 191.74 86.0969 190.765 86.8122C190.622 86.6214 190.289 86.2877 190.091 86.165C191.024 85.5384 191.692 84.3531 191.923 82.8477V82.6706ZM193.769 82.003C194.205 83.8082 195.098 85.4157 196.624 86.1446C196.419 86.3149 196.133 86.6555 195.997 86.9075C194.417 86.0152 193.606 84.2441 193.122 82.1393L193.769 82.003ZM195.677 82.0643L196.446 82.6025C195.867 83.2155 195.139 83.9035 194.566 84.3327L193.981 83.8695C194.532 83.4131 195.254 82.6706 195.677 82.0643ZM196.924 82.5207H203.096V83.2837H196.924V82.5207ZM198.9 80.9949L199.758 81.029C199.628 84.0806 199.179 86.1242 197.408 87.3299C197.299 87.1596 196.972 86.7917 196.781 86.6282C198.464 85.6405 198.818 83.7673 198.9 80.9949ZM200.133 83.1134H200.964V86.165C200.964 86.4579 201.004 86.4988 201.291 86.4988C201.427 86.4988 201.999 86.4988 202.156 86.4988C202.408 86.4988 202.455 86.3694 202.489 85.7155C202.667 85.8449 203.007 85.9811 203.232 86.0288C203.143 86.962 202.912 87.2481 202.224 87.2481C202.047 87.2481 201.352 87.2481 201.182 87.2481C200.344 87.2481 200.133 87.0029 200.133 86.1719V83.1134ZM200.534 81.5194L201.079 81.0766C201.481 81.3491 202.04 81.7646 202.319 82.0303L201.747 82.5207C201.488 82.2483 200.943 81.8191 200.534 81.5194ZM202.101 83.5357L202.864 83.8558C202.04 85.334 200.786 86.4716 199.315 87.2141C199.199 87.0165 198.961 86.744 198.757 86.5601C200.167 85.9471 201.406 84.8844 202.101 83.5357ZM206.748 81.0358H207.599C207.586 84.2237 207.613 86.4579 203.996 87.3843C203.907 87.18 203.696 86.8735 203.526 86.6964C206.904 85.8858 206.727 84.0534 206.748 81.0358ZM203.601 84.0534H209.765V84.8095H203.601V84.0534ZM206.945 85.8926L207.368 85.2999C208.287 85.6814 209.275 86.2468 209.806 86.6759L209.275 87.3162C208.757 86.8598 207.831 86.2808 206.945 85.8926ZM204.411 81.7782L204.854 81.1992C205.392 81.3764 206.107 81.6965 206.462 81.9758L205.992 82.6297C205.658 82.3504 204.963 81.9826 204.411 81.7782ZM203.785 83.0793L204.261 82.5003C204.813 82.6978 205.528 83.0452 205.889 83.3381L205.372 83.9716C205.045 83.6787 204.343 83.2973 203.785 83.0793ZM212.573 83.8082H216.346V84.5575H212.573V83.8082ZM214.807 83.0316L215.366 82.657C215.658 82.8749 216.006 83.2087 216.156 83.4539L215.563 83.8695C215.427 83.6311 215.1 83.2768 214.807 83.0316ZM214.725 84.2441C214.984 85.3681 215.522 86.2945 216.489 86.71C216.312 86.8598 216.074 87.1664 215.972 87.3707C214.93 86.8258 214.391 85.7495 214.085 84.3599L214.725 84.2441ZM210.298 81.4717H216.36V82.2074H210.298V81.4717ZM211.762 81.0017H212.573V82.6638H211.762V81.0017ZM214.105 81.0017H214.916V82.5957H214.105V81.0017ZM213.983 82.7251H214.746V83.7809C214.746 84.898 214.521 86.3762 212.941 87.4116C212.797 87.2413 212.532 87.0233 212.334 86.8803C213.799 85.9266 213.983 84.6733 213.983 83.7741V82.7251ZM210.454 83.0044L210.986 82.5888C212.3 83.3722 212.484 84.3531 212.484 85.3681C212.484 86.1174 212.396 86.744 212.082 87.0846C211.98 87.2004 211.837 87.2754 211.674 87.3026C211.415 87.3639 211.149 87.3639 210.822 87.3503C210.815 87.1255 210.74 86.853 210.604 86.6487C210.938 86.6691 211.183 86.6691 211.326 86.6487C211.428 86.6419 211.483 86.6078 211.537 86.5397C211.68 86.3626 211.735 85.9471 211.735 85.3136C211.735 84.4212 211.483 83.6311 210.454 83.0044ZM211.639 84.3804L212.184 84.7141C211.83 85.2318 211.149 85.8244 210.59 86.1514C210.481 85.9675 210.284 85.7086 210.114 85.5588C210.665 85.3272 211.319 84.8299 211.639 84.3804ZM211.973 82.6842L212.634 83.0452C212.123 83.6311 211.34 84.1624 210.604 84.503C210.495 84.3395 210.27 84.0943 210.12 83.958C210.836 83.6651 211.558 83.161 211.973 82.6842ZM220.114 81.8736H222.437V82.6706H220.114V81.8736ZM216.865 81.3832H220.305V82.1393H216.865V81.3832ZM217.764 82.7932H219.406V83.5221H217.764V82.7932ZM217.764 84.2101H219.406V84.9389H217.764V84.2101ZM222.212 81.8736H222.355L222.498 81.8532L223.03 81.9826C222.764 84.7414 221.872 86.4171 220.332 87.3571C220.21 87.1459 219.978 86.8394 219.794 86.6827C221.15 85.9743 221.987 84.2986 222.212 82.0507V81.8736ZM220.911 82.691C221.245 84.4621 221.974 85.9675 223.282 86.6759C223.098 86.8326 222.846 87.1459 222.716 87.3571C221.286 86.492 220.557 84.898 220.128 82.8409L220.911 82.691ZM217.335 81.6965H218.112V86.1514H217.335V81.6965ZM219.086 81.6965H219.876V87.398H219.086V81.6965ZM216.708 85.8517C217.383 85.7768 218.398 85.6405 219.358 85.5043L219.406 86.2468C218.52 86.4035 217.573 86.5533 216.858 86.6623L216.708 85.8517ZM225.544 83.2973L229.693 82.7455L229.808 83.5221L225.667 84.0806L225.544 83.2973ZM228.112 81.4308L228.725 81.0494C229.079 81.3764 229.509 81.8327 229.699 82.1529L229.045 82.5752C228.875 82.2619 228.46 81.7782 228.112 81.4308ZM225.17 81.0562L225.946 81.315C225.435 82.5207 224.604 83.7809 223.753 84.5643C223.671 84.3667 223.439 83.9308 223.296 83.7332C224.032 83.0997 224.747 82.0848 225.17 81.0562ZM224.461 83.0112L225.299 82.1801L225.306 82.1938V87.3843H224.461V83.0112ZM226.818 81.1039H227.649C227.697 84.0193 228.092 86.2808 228.916 86.3966C229.073 86.4103 229.161 86.0561 229.209 85.3068C229.366 85.477 229.733 85.695 229.883 85.77C229.706 87.0914 229.338 87.4048 228.957 87.3843C227.342 87.2345 226.941 84.8163 226.818 81.1039ZM232.847 81.9758H233.699V87.3912H232.847V81.9758ZM230.811 83.1065H235.395V83.9035H231.648V86.6351H230.811V83.1065ZM234.959 83.1065H235.81V85.7155C235.81 86.1105 235.735 86.349 235.456 86.4784C235.177 86.6078 234.809 86.6214 234.298 86.6214C234.264 86.383 234.142 86.022 234.026 85.7972C234.346 85.8108 234.714 85.8108 234.816 85.8108C234.925 85.804 234.959 85.7768 234.959 85.6882V83.1065ZM235.892 81.1584L236.206 81.9077C234.625 82.1461 232.398 82.2619 230.531 82.2687C230.518 82.0371 230.429 81.7238 230.354 81.533C232.261 81.5058 234.448 81.3832 235.892 81.1584Z" fill="white"/>
<path d="M156.868 95V92.2501L164.163 85.0981C164.861 84.3935 165.442 83.7676 165.907 83.2204C166.373 82.6731 166.721 82.143 166.954 81.6299C167.187 81.1169 167.303 80.5696 167.303 79.9882C167.303 79.3246 167.152 78.7568 166.851 78.2848C166.55 77.806 166.137 77.4366 165.61 77.1766C165.083 76.9167 164.485 76.7867 163.814 76.7867C163.123 76.7867 162.518 76.9304 161.998 77.2177C161.478 77.4981 161.075 77.8983 160.787 78.4182C160.507 78.9381 160.367 79.5572 160.367 80.2755H156.744C156.744 78.9415 157.049 77.782 157.658 76.797C158.266 75.8119 159.104 75.0492 160.172 74.5088C161.246 73.9684 162.477 73.6982 163.866 73.6982C165.275 73.6982 166.513 73.9615 167.58 74.4883C168.647 75.015 169.475 75.7367 170.063 76.6533C170.658 77.57 170.956 78.6166 170.956 79.7932C170.956 80.5799 170.805 81.3529 170.504 82.1122C170.203 82.8715 169.673 83.7129 168.914 84.6364C168.161 85.5599 167.105 86.6783 165.743 87.9917L162.121 91.6754V91.8191H171.274V95H156.868Z" fill="url(#paint7_linear_1139_238)"/>
<g filter="url(#filter2_b_1139_238)">
<rect x="2" y="130" width="142.533" height="37" rx="2.74762" fill="url(#paint8_linear_1139_238)" fill-opacity="0.2"/>
<rect x="2.0791" y="130.079" width="142.375" height="36.8418" rx="2.66852" stroke="url(#paint9_radial_1139_238)" stroke-width="0.158194"/>
<rect x="2.0791" y="130.079" width="142.375" height="36.8418" rx="2.66852" stroke="url(#paint10_radial_1139_238)" stroke-opacity="0.2" stroke-width="0.158194"/>
</g>
<path d="M45.1595 147.542H49.5536V148.246H45.1595V147.542ZM45.9795 146.052H49.2666V146.743H45.9795V146.052ZM47.0319 145.232H47.8451V147.809H47.0319V145.232ZM45.877 145.41L46.6561 145.574C46.4579 146.278 46.1025 146.975 45.7335 147.412C45.5763 147.289 45.2483 147.071 45.057 146.975C45.4328 146.599 45.7198 146.005 45.877 145.41ZM47.5581 147.959H48.3645V149.449C48.3645 149.64 48.3782 149.661 48.4943 149.661C48.5354 149.661 48.7199 149.661 48.7745 149.661C48.8907 149.661 48.918 149.579 48.9385 148.95C49.0889 149.087 49.4306 149.21 49.6493 149.264C49.5741 150.18 49.3691 150.419 48.8634 150.419C48.7335 150.419 48.4738 150.419 48.3508 150.419C47.6948 150.419 47.5581 150.173 47.5581 149.456V147.959ZM46.328 147.932H47.1481C47.0456 149.046 46.7791 149.941 45.5148 150.467C45.426 150.255 45.2005 149.948 45.0228 149.79C46.082 149.408 46.246 148.752 46.328 147.932ZM43.2939 145.854L43.9226 145.396C44.3052 145.704 44.7768 146.155 44.9955 146.476L44.3189 146.995C44.1276 146.661 43.6765 146.189 43.2939 145.854ZM44.852 147.836V150.433H44.0661V148.595H43.3075V147.836H44.852ZM44.7768 150.125C44.9886 150.125 45.1595 150.303 45.508 150.508C45.9385 150.774 46.5262 150.809 47.2369 150.809C47.9203 150.809 48.9795 150.754 49.6424 150.658C49.5536 150.877 49.4237 151.28 49.4169 151.499C48.9112 151.533 47.8861 151.574 47.2164 151.574C46.4032 151.574 45.8633 151.485 45.4055 151.226C45.1253 151.055 44.9066 150.856 44.7563 150.856C44.5034 150.856 44.1276 151.26 43.7585 151.683L43.2187 150.973C43.738 150.494 44.3394 150.125 44.7768 150.125ZM49.8483 148.649C50.436 148.519 51.2971 148.287 52.1308 148.061L52.2333 148.8C51.4748 149.025 50.6684 149.257 50.026 149.435L49.8483 148.649ZM49.944 146.483H52.2402V147.235H49.944V146.483ZM50.7162 145.205H51.5158V150.74C51.5158 151.123 51.4474 151.335 51.2356 151.465C51.0169 151.595 50.7094 151.615 50.2584 151.615C50.231 151.403 50.1354 151.068 50.0397 150.843C50.272 150.856 50.5249 150.856 50.6069 150.85C50.6889 150.85 50.7162 150.822 50.7162 150.733V145.205ZM52.411 145.471H55.3769V146.196H52.411V145.471ZM55.2265 145.471H55.3632L55.493 145.444L55.9851 145.704C55.3427 147.105 53.9349 148.027 52.4588 148.492C52.3768 148.294 52.1855 147.993 52.0351 147.836C53.4087 147.487 54.7413 146.654 55.2265 145.588V145.471ZM53.3677 145.834C53.9144 146.797 55.0283 147.522 56.4156 147.815C56.2516 147.979 56.0261 148.294 55.9167 148.499C54.4885 148.109 53.3882 147.255 52.739 146.052L53.3677 145.834ZM52.493 148.697H55.8142V149.415H52.493V148.697ZM52.1513 149.886H56.2516V150.617H52.1513V149.886ZM53.7641 148.164H54.591V151.622H53.7641V148.164ZM56.6352 148.902H62.9086V149.565H56.6352V148.902ZM56.765 145.437H62.7446V146.148H56.765V145.437ZM58.9108 148.246L59.7172 148.451C59.2798 149.175 58.699 150.036 58.2821 150.583L57.4894 150.344C57.9131 149.797 58.5145 148.916 58.9108 148.246ZM60.8926 149.148L61.6853 149.353C61.0088 150.966 59.601 151.431 57.0657 151.629C57.011 151.39 56.888 151.103 56.7582 150.925C59.0612 150.829 60.3459 150.46 60.8926 149.148ZM57.9609 150.399L58.3778 149.811C59.9496 150.132 61.6512 150.604 62.6762 150.979L62.1842 151.642C61.1933 151.239 59.5942 150.747 57.9609 150.399ZM58.5623 145.717H59.3345V148.055H58.5623V145.717ZM60.1136 145.717H60.8858V148.055H60.1136V145.717ZM57.8448 147.18V147.822H61.7058V147.18H57.8448ZM57.0794 146.538H62.5259V148.465H57.0794V146.538ZM63.2853 145.704H65.6293V146.462H63.2853V145.704ZM63.3537 147.679H65.5678V148.431H63.3537V147.679ZM63.1623 150.05C63.8047 149.92 64.7888 149.695 65.7182 149.469L65.807 150.18C64.9459 150.412 64.0234 150.651 63.3263 150.836L63.1623 150.05ZM65.971 145.683H69.2649V146.462H65.971V145.683ZM65.6977 147.61H69.6271V148.396H65.6977V147.61ZM66.4767 148.164H67.2694C67.2079 149.907 67.0097 151.021 65.3628 151.622C65.2808 151.431 65.069 151.13 64.9049 150.986C66.34 150.501 66.4289 149.64 66.4767 148.164ZM67.7273 148.143H68.5405V150.563C68.5405 150.788 68.5542 150.815 68.6498 150.815C68.6908 150.815 68.848 150.815 68.889 150.815C68.9984 150.815 69.0257 150.686 69.0462 149.879C69.2034 150.023 69.5519 150.159 69.7706 150.214C69.7022 151.273 69.5041 151.581 68.9779 151.581C68.8617 151.581 68.6225 151.581 68.5063 151.581C67.8708 151.581 67.7273 151.328 67.7273 150.569V148.143ZM64.0986 146.005H64.8913V150.071L64.0986 150.194V146.005ZM70.6872 146.305H72.7852V150.911H70.6872V150.187H72.0403V147.023H70.6872V146.305ZM70.2089 146.305H70.9537V151.417H70.2089V146.305ZM70.653 148.13H72.4025V148.841H70.653V148.13ZM71.1792 145.191L72.0745 145.321C71.9173 145.786 71.7464 146.271 71.6098 146.592L70.9537 146.449C71.0494 146.093 71.1451 145.567 71.1792 145.191ZM73.6872 146.257H75.6827V147.002H73.6872V146.257ZM75.4025 146.257H76.1611C76.1611 146.257 76.1611 146.524 76.1542 146.626C76.0654 149.702 75.9834 150.788 75.7032 151.15C75.5119 151.417 75.3205 151.492 75.0403 151.533C74.7806 151.574 74.3638 151.567 73.9674 151.547C73.9538 151.321 73.8444 150.973 73.6941 150.754C74.1383 150.788 74.5483 150.795 74.7191 150.795C74.8558 150.795 74.931 150.768 75.0198 150.672C75.2385 150.44 75.3273 149.264 75.4025 146.415V146.257ZM73.7077 145.198L74.4936 145.383C74.2271 146.394 73.7829 147.433 73.3182 148.089C73.1679 147.952 72.833 147.72 72.6417 147.61C73.0995 147.036 73.4891 146.107 73.7077 145.198ZM73.3729 148.225L74.0153 147.863C74.3501 148.335 74.8011 148.991 75.013 149.394L74.3159 149.818C74.1314 149.401 73.7009 148.731 73.3729 148.225ZM76.818 145.854L77.2759 145.26C77.6517 145.417 78.1301 145.683 78.3624 145.902L77.8772 146.551C77.6654 146.333 77.187 146.032 76.818 145.854ZM76.572 147.686L77.023 147.077C77.4057 147.221 77.8909 147.474 78.1233 147.679L77.6517 148.342C77.4262 148.13 76.9547 147.85 76.572 147.686ZM76.6472 151.137C76.8932 150.583 77.228 149.708 77.4741 148.895L78.1438 149.305C77.9251 150.05 77.6517 150.856 77.392 151.533L76.6472 151.137ZM80.9798 146.005H83.0094V146.784H80.9798V146.005ZM80.8773 147.296H82.5652V148.007H80.8773V147.296ZM80.5902 148.923H83.0231V149.661H80.5902V148.923ZM80.9524 145.205L81.7315 145.342C81.5811 146.244 81.2873 147.132 80.9183 147.692C80.7679 147.576 80.4126 147.378 80.2212 147.289C80.5971 146.797 80.8294 145.998 80.9524 145.205ZM81.4376 148.348H82.1962V150.802C82.1962 151.171 82.1347 151.376 81.8887 151.499C81.6426 151.615 81.3078 151.629 80.8499 151.629C80.8294 151.41 80.7269 151.096 80.6381 150.877C80.9183 150.891 81.2258 150.891 81.3215 150.891C81.4103 150.891 81.4376 150.87 81.4376 150.788V148.348ZM82.244 147.296H82.4149L82.5584 147.248L83.0367 147.59C82.7634 148.061 82.3739 148.595 82.0253 148.943C81.9228 148.793 81.7042 148.567 81.5811 148.458C81.834 148.191 82.1142 147.733 82.244 147.433V147.296ZM78.1506 146.182H80.5697V146.961H78.1506V146.182ZM78.916 147.713H80.0777V148.458H78.916V147.713ZM79.0048 145.212H79.7907V146.729H79.0048V145.212ZM79.777 147.713H80.5151C80.5151 147.713 80.5151 147.938 80.5082 148.034C80.4399 150.221 80.3716 151.041 80.1871 151.294C80.0504 151.478 79.9205 151.547 79.736 151.581C79.5789 151.615 79.3328 151.615 79.0663 151.608C79.0527 151.383 78.9843 151.075 78.8681 150.877C79.0732 150.891 79.244 150.897 79.3397 150.897C79.4285 150.897 79.4832 150.877 79.5378 150.795C79.654 150.631 79.7224 149.92 79.777 147.856V147.713ZM78.6495 146.756H79.4012C79.3602 148.601 79.2577 150.46 78.2736 151.601C78.1506 151.424 77.9182 151.191 77.7201 151.068C78.588 150.077 78.6221 148.39 78.6495 146.756ZM83.3588 145.929H85.4226V146.654H83.3588V145.929ZM85.2381 145.929H85.3816L85.5183 145.902L86.0445 146.08C85.7575 148.362 84.9921 150.125 83.7894 151.15C83.6595 150.945 83.393 150.631 83.1948 150.487C84.2677 149.681 85.0126 147.938 85.2381 146.107V145.929ZM83.3315 147.412L83.8919 146.941C84.6641 147.918 85.7096 149.237 86.1675 150.071L85.532 150.651C85.1014 149.797 84.1037 148.424 83.3315 147.412ZM85.9762 147.105L89.5024 146.688L89.5981 147.426L86.0787 147.856L85.9762 147.105ZM87.8486 145.656L88.4295 145.225C88.7233 145.506 89.1402 145.902 89.3384 146.162L88.7165 146.647C88.5388 146.38 88.1356 145.957 87.8486 145.656ZM86.6459 145.239H87.5001C87.5274 148.191 87.8691 150.453 88.7028 150.59C88.86 150.604 88.9352 150.269 88.983 149.544C89.1402 149.722 89.5161 149.954 89.6732 150.036C89.4956 151.335 89.1197 151.636 88.7438 151.608C87.0969 151.431 86.7415 149.032 86.6459 145.239ZM88.7302 147.651L89.3862 148.041C88.8258 149.394 87.7119 150.72 86.4819 151.376C86.3247 151.178 86.065 150.925 85.8327 150.768C87.1174 150.2 88.2108 148.936 88.7302 147.651Z" fill="white"/>
<path d="M23.4612 159.811C21.9788 159.811 20.6612 159.557 19.5082 159.049C18.3622 158.541 17.4563 157.834 16.7906 156.928C16.1249 156.022 15.7715 154.976 15.7303 153.789H19.6009C19.6352 154.358 19.8239 154.856 20.1671 155.281C20.5102 155.7 20.9666 156.026 21.5362 156.259C22.1058 156.493 22.744 156.609 23.4509 156.609C24.2058 156.609 24.8749 156.479 25.4582 156.218C26.0416 155.95 26.4979 155.58 26.8274 155.106C27.1568 154.633 27.318 154.087 27.3112 153.47C27.318 152.831 27.1533 152.269 26.8171 151.781C26.4808 151.294 25.9935 150.913 25.3553 150.639C24.7239 150.364 23.9622 150.227 23.07 150.227H21.2068V147.283H23.07C23.8043 147.283 24.446 147.156 24.995 146.902C25.5509 146.648 25.9867 146.291 26.3024 145.831C26.618 145.365 26.7725 144.826 26.7656 144.215C26.7725 143.618 26.6386 143.1 26.3641 142.661C26.0965 142.215 25.7156 141.868 25.2215 141.621C24.7342 141.374 24.1612 141.25 23.5024 141.25C22.8573 141.25 22.2602 141.367 21.7112 141.6C21.1622 141.834 20.7195 142.167 20.3832 142.599C20.047 143.024 19.8685 143.532 19.848 144.122H16.173C16.2004 142.942 16.5401 141.906 17.1921 141.014C17.8509 140.115 18.7293 139.415 19.8274 138.914C20.9254 138.406 22.1573 138.152 23.5229 138.152C24.9298 138.152 26.1514 138.416 27.1876 138.945C28.2308 139.466 29.0372 140.17 29.6068 141.055C30.1764 141.94 30.4612 142.918 30.4612 143.989C30.468 145.176 30.118 146.171 29.4112 146.974C28.7112 147.777 27.7916 148.302 26.6524 148.549V148.714C28.1347 148.92 29.2705 149.469 30.0597 150.361C30.8558 151.246 31.2504 152.347 31.2435 153.665C31.2435 154.846 30.9073 155.902 30.2347 156.836C29.569 157.762 28.6494 158.49 27.4759 159.018C26.3092 159.546 24.971 159.811 23.4612 159.811Z" fill="url(#paint11_linear_1139_238)"/>
<g filter="url(#filter3_b_1139_238)">
<rect x="143" y="194" width="142.533" height="37" rx="2.74762" fill="url(#paint12_linear_1139_238)" fill-opacity="0.2"/>
<rect x="143.079" y="194.079" width="142.375" height="36.8418" rx="2.66852" stroke="url(#paint13_radial_1139_238)" stroke-width="0.158194"/>
<rect x="143.079" y="194.079" width="142.375" height="36.8418" rx="2.66852" stroke="url(#paint14_radial_1139_238)" stroke-opacity="0.2" stroke-width="0.158194"/>
</g>
<path d="M183.428 212.047V214.2H182.663V212.785H181.966V212.047H183.428ZM183.428 213.838C183.715 214.289 184.255 214.48 184.979 214.507C185.813 214.548 187.474 214.528 188.417 214.453C188.335 214.624 188.212 214.986 188.178 215.211C187.317 215.252 185.827 215.266 184.979 215.232C184.125 215.198 183.544 214.999 183.1 214.48C182.847 214.74 182.581 214.999 182.266 215.3L181.884 214.521C182.157 214.33 182.471 214.084 182.745 213.838H183.428ZM182.232 209.457L182.772 208.993C183.121 209.211 183.565 209.546 183.777 209.806L183.196 210.325C183.011 210.065 182.588 209.696 182.232 209.457ZM181.973 210.886L182.499 210.393C182.868 210.605 183.339 210.927 183.565 211.173L183.004 211.712C182.799 211.46 182.342 211.111 181.973 210.886ZM184.453 210.66V210.933H185.307V210.66H184.453ZM184.453 209.922V210.188H185.307V209.922H184.453ZM183.811 209.423H185.977V211.432H183.811V209.423ZM184.638 208.938L185.465 208.999C185.342 209.321 185.184 209.635 185.068 209.854L184.474 209.744C184.542 209.498 184.61 209.17 184.638 208.938ZM183.585 211.767H186.264V212.314H183.585V211.767ZM186.565 209.929H188.273V210.619H186.565V209.929ZM184.528 212.56H185.581V213.113H184.528V212.56ZM184.556 211.364H185.246V211.979H184.556V211.364ZM185.355 212.56H186.011C186.011 212.56 186.005 212.71 185.998 212.785C185.963 213.592 185.916 213.947 185.793 214.091C185.697 214.207 185.574 214.255 185.43 214.275C185.314 214.289 185.102 214.296 184.891 214.282C184.884 214.118 184.822 213.892 184.747 213.749C184.904 213.769 185.02 213.769 185.089 213.769C185.157 213.776 185.198 213.769 185.239 213.715C185.294 213.64 185.321 213.373 185.355 212.649V212.56ZM184.255 212.034H184.925C184.87 213.024 184.713 213.824 183.975 214.302C183.9 214.152 183.715 213.927 183.565 213.817C184.132 213.441 184.221 212.806 184.255 212.034ZM186.497 208.972L187.214 209.075C187.05 210.182 186.743 211.227 186.278 211.904C186.155 211.788 185.847 211.562 185.683 211.466C186.114 210.886 186.374 209.942 186.497 208.972ZM187.378 210.4L188.061 210.455C187.856 212.245 187.392 213.551 186.319 214.364C186.23 214.227 185.984 213.954 185.847 213.838C186.838 213.161 187.235 211.979 187.378 210.4ZM186.838 210.51C187.077 211.876 187.569 213.182 188.369 213.804C188.212 213.933 187.993 214.179 187.877 214.364C187.023 213.605 186.544 212.191 186.278 210.619L186.838 210.51ZM188.951 209.532L189.477 209.034C189.846 209.341 190.345 209.778 190.577 210.072L190.017 210.639C189.805 210.339 189.32 209.867 188.951 209.532ZM189.518 215.286L189.34 214.535L189.504 214.275L190.844 213.257C190.898 213.475 191.021 213.797 191.11 213.961C189.866 214.931 189.641 215.122 189.518 215.286ZM188.636 211.043H189.983V211.829H188.636V211.043ZM189.518 215.286C189.456 215.095 189.258 214.753 189.122 214.596C189.272 214.494 189.47 214.261 189.47 213.947V211.043H190.256V214.501C190.256 214.501 189.518 214.999 189.518 215.286ZM191.848 212.901H193.953V213.428H191.848V212.901ZM190.974 209.403H194.8V209.99H190.974V209.403ZM191.158 210.264H194.595V210.817H191.158V210.264ZM190.762 211.104H195.019V211.692H190.762V211.104ZM191.835 213.81H193.946V214.357H191.835V213.81ZM191.226 211.958H193.939V212.553H191.985V215.362H191.226V211.958ZM193.769 211.958H194.548V214.569C194.548 214.924 194.479 215.122 194.226 215.232C193.987 215.348 193.646 215.355 193.167 215.355C193.14 215.15 193.044 214.849 192.949 214.658C193.229 214.671 193.557 214.671 193.646 214.665C193.734 214.665 193.769 214.637 193.769 214.555V211.958ZM192.463 208.938H193.277V211.296H192.463V208.938ZM198.17 208.945L198.922 209.129C198.669 209.854 198.239 210.551 197.774 211.002C197.644 210.858 197.35 210.598 197.18 210.482C197.61 210.113 197.972 209.539 198.17 208.945ZM198.116 210.694L198.867 210.892C198.656 211.425 198.3 211.979 197.972 212.327C197.822 212.204 197.501 212.006 197.323 211.911C197.651 211.603 197.945 211.138 198.116 210.694ZM198.321 209.519H201.041V210.209H198.047L198.321 209.519ZM199.1 210.045H199.886V212.17C199.886 212.526 199.831 212.724 199.578 212.84C199.346 212.956 199.038 212.963 198.615 212.963C198.58 212.751 198.471 212.444 198.362 212.245C198.621 212.259 198.908 212.259 198.99 212.259C199.072 212.252 199.1 212.232 199.1 212.157V210.045ZM200.036 210.927L200.706 210.639C201.027 211.091 201.341 211.678 201.485 212.088L200.781 212.423C200.651 212.02 200.33 211.384 200.036 210.927ZM200.836 209.519H200.952L201.075 209.498L201.656 209.621C201.505 210.086 201.307 210.605 201.143 210.933L200.446 210.797C200.576 210.496 200.74 210.011 200.836 209.614V209.519ZM197.043 213.223H197.856V214.275C197.856 214.48 197.911 214.501 198.232 214.501C198.375 214.501 198.977 214.501 199.161 214.501C199.421 214.501 199.469 214.419 199.503 213.824C199.667 213.947 200.009 214.07 200.227 214.118C200.139 215.006 199.906 215.232 199.23 215.232C199.045 215.232 198.314 215.232 198.129 215.232C197.255 215.232 197.043 214.999 197.043 214.282V213.223ZM197.624 213.031L198.17 212.567C198.587 212.792 199.1 213.147 199.339 213.428L198.751 213.947C198.533 213.667 198.041 213.277 197.624 213.031ZM199.831 213.482L200.508 213.113C200.993 213.564 201.505 214.193 201.71 214.671L200.979 215.081C200.801 214.617 200.316 213.954 199.831 213.482ZM196.195 213.243L196.934 213.489C196.749 214.125 196.482 214.753 195.963 215.15L195.28 214.678C195.744 214.35 196.045 213.817 196.195 213.243ZM196.817 208.938L197.542 209.184C197.098 210.045 196.387 210.92 195.703 211.466C195.615 211.302 195.362 210.954 195.211 210.803C195.833 210.359 196.455 209.649 196.817 208.938ZM196.23 210.366L196.995 209.594L197.016 209.601V212.949H196.23V210.366ZM202.736 210.045H204.834V214.651H202.736V213.927H204.089V210.762H202.736V210.045ZM202.258 210.045H203.003V215.157H202.258V210.045ZM202.702 211.87H204.452V212.58H202.702V211.87ZM203.228 208.931L204.124 209.061C203.966 209.526 203.796 210.011 203.659 210.332L203.003 210.188C203.098 209.833 203.194 209.307 203.228 208.931ZM205.736 209.997H207.732V210.742H205.736V209.997ZM207.452 209.997H208.21C208.21 209.997 208.21 210.264 208.203 210.366C208.114 213.441 208.032 214.528 207.752 214.89C207.561 215.157 207.37 215.232 207.089 215.273C206.83 215.314 206.413 215.307 206.016 215.286C206.003 215.061 205.893 214.712 205.743 214.494C206.187 214.528 206.597 214.535 206.768 214.535C206.905 214.535 206.98 214.507 207.069 214.412C207.288 214.179 207.376 213.004 207.452 210.154V209.997ZM205.757 208.938L206.543 209.122C206.276 210.134 205.832 211.173 205.367 211.829C205.217 211.692 204.882 211.46 204.691 211.35C205.149 210.776 205.538 209.847 205.757 208.938ZM205.422 211.965L206.064 211.603C206.399 212.075 206.85 212.731 207.062 213.134L206.365 213.558C206.18 213.141 205.75 212.471 205.422 211.965ZM212.557 209.239H214.314V209.983H212.557V209.239ZM212.557 210.769H214.314V211.494H212.557V210.769ZM212.544 212.3H214.32V213.031H212.544V212.3ZM213.951 209.239H214.737V214.384C214.737 214.788 214.676 215.013 214.43 215.15C214.191 215.28 213.842 215.3 213.33 215.3C213.309 215.075 213.2 214.706 213.09 214.494C213.391 214.514 213.712 214.514 213.815 214.507C213.917 214.507 213.951 214.473 213.951 214.371V209.239ZM212.181 209.239H212.96V211.542C212.96 212.696 212.844 214.35 212.099 215.382C211.956 215.252 211.614 215.04 211.423 214.965C212.12 214.009 212.181 212.594 212.181 211.542V209.239ZM209.496 209.239H211.232V209.983H209.496V209.239ZM209.496 210.769H211.232V211.494H209.496V210.769ZM209.496 212.3H211.232V213.031H209.496V212.3ZM210.801 209.239H211.566V214.398C211.566 214.76 211.505 214.965 211.286 215.095C211.068 215.218 210.76 215.232 210.323 215.232C210.295 215.027 210.193 214.699 210.097 214.501C210.336 214.514 210.603 214.514 210.685 214.514C210.774 214.514 210.801 214.48 210.801 214.398V209.239ZM209.181 209.239H209.933V211.706C209.933 212.806 209.837 214.384 209.216 215.368C209.072 215.245 208.737 215.04 208.553 214.965C209.134 214.056 209.181 212.71 209.181 211.712V209.239ZM217.971 211.87C218.545 213.305 219.768 214.241 221.695 214.583C221.51 214.753 221.278 215.109 221.162 215.334C219.153 214.89 217.964 213.817 217.253 212.081L217.971 211.87ZM220.062 211.46H220.219L220.369 211.425L220.93 211.665C220.383 213.708 219.03 214.788 217.253 215.348C217.151 215.136 216.952 214.822 216.788 214.651C218.374 214.241 219.638 213.216 220.062 211.603V211.46ZM215.545 209.956H221.51V210.749H215.545V209.956ZM217.479 211.46H220.144V212.252H217.246L217.479 211.46ZM217.253 208.938H218.107C218.053 210.011 217.95 213.318 215.982 215.109C215.811 214.89 215.551 214.685 215.271 214.521C217.226 212.929 217.212 209.772 217.253 208.938ZM222.044 209.444H224.388V210.202H222.044V209.444ZM222.113 211.419H224.327V212.17H222.113V211.419ZM221.921 213.79C222.564 213.66 223.548 213.434 224.477 213.209L224.566 213.92C223.705 214.152 222.782 214.391 222.085 214.576L221.921 213.79ZM224.73 209.423H228.024V210.202H224.73V209.423ZM224.457 211.35H228.386V212.136H224.457V211.35ZM225.236 211.904H226.028C225.967 213.646 225.769 214.76 224.122 215.362C224.04 215.17 223.828 214.87 223.664 214.726C225.099 214.241 225.188 213.38 225.236 211.904ZM226.486 211.883H227.3V214.302C227.3 214.528 227.313 214.555 227.409 214.555C227.45 214.555 227.607 214.555 227.648 214.555C227.757 214.555 227.785 214.425 227.805 213.619C227.962 213.763 228.311 213.899 228.53 213.954C228.461 215.013 228.263 215.321 227.737 215.321C227.621 215.321 227.382 215.321 227.265 215.321C226.63 215.321 226.486 215.068 226.486 214.309V211.883ZM222.858 209.744H223.65V213.81L222.858 213.933V209.744ZM232.471 209.77V214.74H231.571V210.646H231.542L230.379 211.388V210.563L231.614 209.77H232.471ZM238.455 211.012L237.127 214.74H236.157L234.829 211.012H235.766L236.623 213.781H236.661L237.52 211.012H238.455ZM241.852 211.998L241.052 212.085C241.029 212.004 240.989 211.928 240.933 211.857C240.878 211.786 240.803 211.728 240.709 211.684C240.616 211.641 240.501 211.619 240.365 211.619C240.182 211.619 240.028 211.659 239.904 211.738C239.781 211.817 239.72 211.92 239.722 212.046C239.72 212.154 239.76 212.243 239.841 212.311C239.923 212.379 240.059 212.434 240.248 212.478L240.884 212.614C241.237 212.69 241.499 212.81 241.67 212.975C241.844 213.141 241.931 213.356 241.933 213.623C241.931 213.858 241.862 214.065 241.726 214.245C241.592 214.423 241.405 214.562 241.166 214.662C240.926 214.762 240.651 214.813 240.341 214.813C239.884 214.813 239.517 214.717 239.239 214.526C238.961 214.334 238.795 214.066 238.741 213.723L239.598 213.64C239.637 213.809 239.719 213.936 239.846 214.021C239.972 214.107 240.136 214.15 240.338 214.15C240.547 214.15 240.714 214.107 240.84 214.021C240.968 213.936 241.032 213.83 241.032 213.704C241.032 213.597 240.991 213.509 240.908 213.439C240.828 213.369 240.701 213.316 240.53 213.279L239.894 213.145C239.537 213.071 239.272 212.946 239.1 212.769C238.929 212.591 238.844 212.366 238.846 212.095C238.844 211.865 238.906 211.666 239.033 211.498C239.16 211.328 239.338 211.197 239.564 211.104C239.792 211.011 240.055 210.964 240.353 210.964C240.79 210.964 241.133 211.057 241.384 211.243C241.636 211.429 241.793 211.68 241.852 211.998ZM246.051 209.77V214.74H245.151V210.646H245.122L243.959 211.388V210.563L245.195 209.77H246.051Z" fill="white"/>
<path d="M154.024 219.088V216.051L162.969 201.918H165.502V206.241H163.958L157.936 215.784V215.949H170.422V219.088H154.024ZM164.081 223V218.162L164.122 216.803V201.918H167.725V223H164.081Z" fill="url(#paint15_linear_1139_238)"/>
<g filter="url(#filter4_b_1139_238)">
<rect x="2" y="258" width="142.533" height="37" rx="2.74762" fill="url(#paint16_linear_1139_238)" fill-opacity="0.2"/>
<rect x="2.0791" y="258.079" width="142.375" height="36.8418" rx="2.66852" stroke="url(#paint17_radial_1139_238)" stroke-width="0.158194"/>
<rect x="2.0791" y="258.079" width="142.375" height="36.8418" rx="2.66852" stroke="url(#paint18_radial_1139_238)" stroke-opacity="0.2" stroke-width="0.158194"/>
</g>
<path d="M48.7365 273.067H49.5497V278.398C49.5497 278.863 49.4541 279.068 49.1671 279.197C48.88 279.32 48.4358 279.341 47.7935 279.341C47.7593 279.122 47.6295 278.767 47.5201 278.555C47.9506 278.575 48.4085 278.569 48.552 278.569C48.6819 278.562 48.7365 278.521 48.7365 278.391V273.067ZM47.4244 273.717H48.2103V277.605H47.4244V273.717ZM44.4791 275.418H46.3379V276.129H44.4791V275.418ZM44.1237 275.418H44.9233V278.22C44.9233 278.507 44.9711 278.548 45.2855 278.548C45.429 278.548 46.0372 278.548 46.208 278.548C46.4951 278.548 46.5429 278.411 46.5839 277.68C46.7547 277.81 47.0759 277.933 47.2878 277.981C47.1989 278.951 46.9802 279.238 46.2764 279.238C46.0919 279.238 45.3538 279.238 45.183 279.238C44.3766 279.238 44.1237 279.027 44.1237 278.227V275.418ZM46.0304 275.418H46.8162C46.8162 275.418 46.8094 275.61 46.8026 275.698C46.7547 276.84 46.6864 277.332 46.5224 277.523C46.3925 277.68 46.249 277.735 46.0645 277.762C45.9005 277.783 45.6272 277.79 45.3333 277.776C45.3196 277.564 45.2376 277.277 45.1283 277.086C45.3538 277.113 45.5588 277.12 45.6613 277.12C45.7502 277.12 45.8048 277.106 45.8595 277.045C45.9415 276.942 45.9962 276.553 46.0304 275.528V275.418ZM45.1693 273.771L45.7092 273.293C46.2559 273.874 47.0008 274.667 47.3288 275.179L46.7342 275.746C46.4199 275.22 45.716 274.38 45.1693 273.771ZM45.2445 272.924L45.9894 273.156C45.5315 274.243 44.8071 275.213 43.9119 275.883C43.7889 275.712 43.5019 275.411 43.3242 275.282C44.1579 274.721 44.8823 273.799 45.2445 272.924ZM52.0245 274.27H56.4938V274.899H52.0245V274.27ZM52.4208 276.109H56.0359V276.696H52.4208V276.109ZM52.1201 277.011H56.3434V277.66H52.1201V277.011ZM53.7534 272.992H54.553V278.213H53.7534V272.992ZM52.496 273.375H55.9812V275.808H52.4618V275.186H55.1748V273.997H52.496V273.375ZM50.111 273.313H51.5529V274.031H50.111V273.313ZM51.2728 273.313H51.3753L51.4983 273.286L52.0518 273.436C51.7443 274.243 51.2659 275.309 50.8696 276.163L50.1247 275.972C50.5415 275.131 51.0336 274.004 51.2728 273.402V273.313ZM50.8081 275.247H51.8058V275.965H50.7807L50.8081 275.247ZM51.4778 275.247H51.635L51.7716 275.234L52.25 275.336C52.0791 277.4 51.5529 278.712 50.6646 279.382C50.5415 279.225 50.2272 278.931 50.0495 278.828C50.8969 278.241 51.3479 277.134 51.4778 275.398V275.247ZM50.8491 276.355C51.4026 278.124 52.6532 278.405 54.266 278.411C54.6828 278.411 56.0769 278.411 56.5758 278.391C56.4528 278.575 56.3092 278.951 56.2614 279.191H54.2454C52.2637 279.191 50.9174 278.787 50.2067 276.58L50.8491 276.355ZM60.6154 272.958H61.4355V278.685H60.6154V272.958ZM58.866 278.343C59.8159 278.268 61.2988 278.118 62.6451 277.981L62.6587 278.787C61.3808 278.951 59.9936 279.095 59.0027 279.211L58.866 278.343ZM61.6952 277.284L62.4605 277.072C62.7407 277.708 63.0961 278.555 63.2396 279.081L62.4127 279.348C62.2897 278.822 61.9753 277.954 61.6952 277.284ZM60.0209 274.913V276.245H62.0095V274.913H60.0209ZM59.2145 274.209H62.8637V276.949H59.2145V274.209ZM56.7954 273.491L57.3694 273.061C58.6951 274.14 58.8728 275.377 58.8728 276.703C58.8728 277.653 58.7908 278.575 58.4765 278.992C58.374 279.129 58.2236 279.225 58.0459 279.266C57.7794 279.327 57.4856 279.334 57.1644 279.32C57.1575 279.061 57.0824 278.774 56.9457 278.541C57.2805 278.569 57.5266 278.562 57.6701 278.548C57.7726 278.534 57.8341 278.5 57.8888 278.425C58.0323 278.227 58.0938 277.516 58.0938 276.676C58.0938 275.432 57.9024 274.414 56.7954 273.491ZM58.1758 275.528L58.7771 275.89C58.4423 276.553 57.8067 277.339 57.2532 277.783C57.1234 277.591 56.8979 277.325 56.7065 277.175C57.2532 276.833 57.8751 276.136 58.1758 275.528ZM58.4423 273.081L59.1667 273.443C58.6883 274.291 57.9913 275.104 57.2805 275.651C57.1507 275.487 56.891 275.241 56.7133 275.111C57.4036 274.626 58.0596 273.819 58.4423 273.081ZM66.2679 273.546H69.5617V274.291H66.2679V273.546ZM65.8578 274.872H69.8624V275.63H65.8578V274.872ZM66.0082 276.245H69.7941V277.004H66.0082V276.245ZM67.4843 272.931H68.2975V275.288H67.4843V272.931ZM68.2975 275.548H69.1107V278.439C69.1107 278.856 69.0287 279.081 68.7553 279.204C68.482 279.327 68.0925 279.348 67.5731 279.348C67.5458 279.109 67.4364 278.76 67.3271 278.534C67.6619 278.548 68.0378 278.548 68.154 278.541C68.2633 278.541 68.2975 278.521 68.2975 278.425V275.548ZM66.2474 277.373L66.8556 276.997C67.1562 277.298 67.5184 277.728 67.6824 278.029L67.0332 278.452C66.8897 278.152 66.5412 277.701 66.2474 277.373ZM63.425 276.58C64.0947 276.43 65.0924 276.15 66.0355 275.883L66.1448 276.601C65.2838 276.874 64.3476 277.154 63.6232 277.366L63.425 276.58ZM64.6551 272.938H65.4068V279.355H64.6551V272.938ZM63.753 273.293L64.4364 273.409C64.3476 274.311 64.1836 275.261 63.9375 275.876C63.8145 275.774 63.5207 275.589 63.3567 275.507C63.5754 274.954 63.6915 274.099 63.753 273.293ZM63.9375 274.229H65.974V275.008H63.7872L63.9375 274.229ZM70.9021 274.045H73V278.651H70.9021V277.926H72.2551V274.762H70.9021V274.045ZM70.4237 274.045H71.1686V279.156H70.4237V274.045ZM70.8679 275.869H72.6173V276.58H70.8679V275.869ZM71.3941 272.931L72.2893 273.061C72.1321 273.525 71.9613 274.011 71.8246 274.332L71.1686 274.188C71.2642 273.833 71.3599 273.307 71.3941 272.931ZM73.9021 273.997H75.8975V274.742H73.9021V273.997ZM75.6174 273.997H76.3759C76.3759 273.997 76.3759 274.263 76.3691 274.366C76.2802 277.441 76.1982 278.528 75.918 278.89C75.7267 279.156 75.5354 279.232 75.2552 279.273C74.9955 279.314 74.5786 279.307 74.1823 279.286C74.1686 279.061 74.0593 278.712 73.9089 278.493C74.3531 278.528 74.7631 278.534 74.934 278.534C75.0707 278.534 75.1458 278.507 75.2347 278.411C75.4533 278.179 75.5422 277.004 75.6174 274.154V273.997ZM73.9226 272.938L74.7085 273.122C74.4419 274.134 73.9978 275.172 73.5331 275.828C73.3827 275.692 73.0479 275.459 72.8565 275.35C73.3144 274.776 73.7039 273.847 73.9226 272.938ZM73.5877 275.965L74.2301 275.603C74.565 276.074 75.016 276.73 75.2278 277.134L74.5308 277.557C74.3463 277.14 73.9157 276.471 73.5877 275.965ZM79.2696 278.74H78.3086L80.0583 273.769H81.1697L82.9219 278.74H81.9609L80.6334 274.789H80.5946L79.2696 278.74ZM79.3011 276.791H81.922V277.514H79.3011V276.791ZM87.5045 273.769V278.74H86.7036L84.3618 275.354H84.3206V278.74H83.4202V273.769H84.2259L86.5653 277.157H86.609V273.769H87.5045ZM91.0302 275.136C91.0076 274.924 90.9121 274.759 90.7438 274.641C90.5772 274.523 90.3604 274.464 90.0935 274.464C89.9058 274.464 89.7448 274.492 89.6105 274.548C89.4763 274.605 89.3735 274.682 89.3023 274.779C89.2312 274.876 89.1948 274.987 89.1931 275.111C89.1931 275.215 89.2166 275.305 89.2635 275.381C89.3121 275.457 89.3776 275.522 89.4601 275.575C89.5426 275.627 89.634 275.67 89.7343 275.706C89.8346 275.742 89.9357 275.772 90.0377 275.796L90.5036 275.912C90.6913 275.956 90.8717 276.015 91.0448 276.089C91.2195 276.164 91.3756 276.258 91.5131 276.371C91.6523 276.484 91.7623 276.621 91.8432 276.781C91.9241 276.941 91.9645 277.129 91.9645 277.344C91.9645 277.635 91.8901 277.892 91.7412 278.113C91.5924 278.333 91.3772 278.506 91.0957 278.63C90.8158 278.753 90.4769 278.815 90.0789 278.815C89.6922 278.815 89.3565 278.755 89.0718 278.635C88.7887 278.515 88.567 278.341 88.4069 278.111C88.2483 277.881 88.1626 277.601 88.1496 277.271H89.0354C89.0483 277.444 89.1017 277.588 89.1956 277.703C89.2894 277.818 89.4116 277.904 89.562 277.961C89.7141 278.017 89.884 278.045 90.0716 278.045C90.2674 278.045 90.4389 278.016 90.5861 277.958C90.7349 277.898 90.8514 277.816 90.9356 277.711C91.0197 277.604 91.0626 277.479 91.0642 277.337C91.0626 277.207 91.0245 277.101 90.9501 277.016C90.8757 276.931 90.7713 276.86 90.6371 276.803C90.5044 276.745 90.3491 276.693 90.1711 276.648L89.6057 276.502C89.1964 276.397 88.8728 276.238 88.635 276.024C88.3988 275.809 88.2807 275.523 88.2807 275.167C88.2807 274.874 88.36 274.618 88.5185 274.398C88.6787 274.178 88.8963 274.007 89.1713 273.886C89.4463 273.763 89.7578 273.702 90.1056 273.702C90.4583 273.702 90.7673 273.763 91.0326 273.886C91.2996 274.007 91.5091 274.176 91.6612 274.393C91.8132 274.608 91.8917 274.856 91.8966 275.136H91.0302Z" fill="white"/>
<path d="M23.2225 287.288C21.8499 287.288 20.6215 287.031 19.5372 286.516C18.4529 285.995 17.5916 285.281 16.9534 284.375C16.322 283.469 15.9857 282.433 15.9445 281.266H19.6504C19.719 282.131 20.0931 282.838 20.7725 283.387C21.4519 283.929 22.2685 284.2 23.2225 284.2C23.9705 284.2 24.6362 284.028 25.2195 283.685C25.8029 283.342 26.2627 282.865 26.5989 282.254C26.9352 281.644 27.0999 280.947 27.0931 280.165C27.0999 279.369 26.9318 278.662 26.5886 278.044C26.2455 277.426 25.7754 276.943 25.1783 276.593C24.5813 276.236 23.895 276.057 23.1195 276.057C22.4882 276.05 21.8671 276.167 21.2563 276.407C20.6455 276.648 20.1617 276.963 19.8048 277.354L16.3563 276.788L17.4578 265.918H29.6872V269.109H20.6181L20.0107 274.699H20.1342C20.5254 274.239 21.0779 273.858 21.7916 273.556C22.5053 273.247 23.2877 273.093 24.1386 273.093C25.4151 273.093 26.5543 273.395 27.5563 273.999C28.5582 274.596 29.3475 275.419 29.9239 276.469C30.5004 277.519 30.7886 278.72 30.7886 280.072C30.7886 281.465 30.4661 282.707 29.821 283.799C29.1828 284.883 28.294 285.737 27.1548 286.362C26.0225 286.979 24.7117 287.288 23.2225 287.288Z" fill="url(#paint19_linear_1139_238)"/>
<g filter="url(#filter5_b_1139_238)">
<rect x="143" y="311" width="142.533" height="37" rx="2.74762" fill="url(#paint20_linear_1139_238)" fill-opacity="0.2"/>
<rect x="143.079" y="311.079" width="142.375" height="36.8418" rx="2.66852" stroke="url(#paint21_radial_1139_238)" stroke-width="0.158194"/>
<rect x="143.079" y="311.079" width="142.375" height="36.8418" rx="2.66852" stroke="url(#paint22_radial_1139_238)" stroke-opacity="0.2" stroke-width="0.158194"/>
</g>
<path d="M184.714 327.537H189.942V328.364H184.714V327.537ZM189.593 327.537H190.461C190.461 327.537 190.454 327.81 190.447 327.927C190.358 330.564 190.27 331.548 189.996 331.89C189.805 332.15 189.607 332.225 189.32 332.266C189.06 332.307 188.636 332.3 188.219 332.286C188.206 332.04 188.09 331.671 187.932 331.425C188.356 331.466 188.752 331.466 188.93 331.466C189.067 331.466 189.142 331.439 189.231 331.357C189.436 331.145 189.525 330.127 189.593 327.694V327.537ZM186.839 325.952H187.673V326.881C187.673 328.384 187.481 330.735 185.199 332.232C185.062 332.04 184.748 331.753 184.55 331.617C186.675 330.291 186.839 328.2 186.839 326.874V325.952ZM185.137 326.396L185.855 326.109C186.108 326.409 186.408 326.84 186.538 327.127L185.773 327.455C185.664 327.175 185.383 326.731 185.137 326.396ZM187.509 329.321L188.199 328.999C188.5 329.382 188.869 329.908 189.026 330.257L188.295 330.619C188.151 330.27 187.803 329.724 187.509 329.321ZM191.261 328.651H197.384V329.464H191.261V328.651ZM191.774 326.963H196.886V327.776H191.774V326.963ZM193.865 325.938H194.733V332.355H193.865V325.938ZM193.722 329.122L194.432 329.416C193.776 330.503 192.71 331.494 191.63 332.054C191.494 331.849 191.22 331.521 191.029 331.35C192.081 330.892 193.161 330.004 193.722 329.122ZM194.883 329.129C195.437 330.011 196.517 330.899 197.562 331.35C197.371 331.514 197.097 331.849 196.961 332.068C195.901 331.507 194.856 330.496 194.2 329.416L194.883 329.129ZM197.918 328.924H204.062V329.71H197.918V328.924ZM198.24 326.683H203.789V327.462H198.24V326.683ZM200.549 325.931H201.424V332.348H200.549V325.931ZM202.586 327.441L203.447 327.694C203.194 328.166 202.921 328.651 202.702 328.958L201.991 328.726C202.203 328.378 202.456 327.844 202.586 327.441ZM198.697 327.735L199.429 327.462C199.681 327.831 199.927 328.33 200.016 328.665L199.23 328.972C199.162 328.644 198.93 328.125 198.697 327.735ZM200.413 329.239L201.076 329.505C200.433 330.585 199.374 331.569 198.308 332.109C198.178 331.911 197.912 331.589 197.727 331.425C198.779 330.981 199.859 330.113 200.413 329.239ZM201.581 329.252C202.128 330.12 203.194 330.995 204.24 331.439C204.048 331.603 203.789 331.917 203.659 332.129C202.593 331.589 201.561 330.592 200.918 329.519L201.581 329.252ZM205.225 327.045H207.323V331.651H205.225V330.927H206.578V327.762H205.225V327.045ZM204.746 327.045H205.491V332.157H204.746V327.045ZM205.19 328.87H206.94V329.58H205.19V328.87ZM205.717 325.931L206.612 326.061C206.455 326.526 206.284 327.011 206.147 327.332L205.491 327.188C205.587 326.833 205.682 326.307 205.717 325.931ZM208.225 326.997H210.22V327.742H208.225V326.997ZM209.94 326.997H210.698C210.698 326.997 210.698 327.264 210.692 327.366C210.603 330.441 210.521 331.528 210.241 331.89C210.049 332.157 209.858 332.232 209.578 332.273C209.318 332.314 208.901 332.307 208.505 332.286C208.491 332.061 208.382 331.712 208.231 331.494C208.676 331.528 209.086 331.535 209.256 331.535C209.393 331.535 209.468 331.507 209.557 331.412C209.776 331.179 209.865 330.004 209.94 327.154V326.997ZM208.245 325.938L209.031 326.122C208.764 327.134 208.32 328.173 207.856 328.829C207.705 328.692 207.37 328.46 207.179 328.35C207.637 327.776 208.026 326.847 208.245 325.938ZM207.91 328.965L208.553 328.603C208.887 329.075 209.338 329.731 209.55 330.134L208.853 330.558C208.669 330.141 208.238 329.471 207.91 328.965ZM211.355 326.594L211.813 325.999C212.189 326.157 212.667 326.423 212.9 326.642L212.415 327.291C212.203 327.072 211.724 326.772 211.355 326.594ZM211.109 328.425L211.56 327.817C211.943 327.961 212.428 328.214 212.661 328.419L212.189 329.081C211.964 328.87 211.492 328.589 211.109 328.425ZM211.185 331.876C211.431 331.323 211.765 330.448 212.011 329.635L212.681 330.045C212.462 330.79 212.189 331.596 211.929 332.273L211.185 331.876ZM215.517 326.744H217.547V327.523H215.517V326.744ZM215.415 328.036H217.103V328.747H215.415V328.036ZM215.128 329.662H217.56V330.4H215.128V329.662ZM215.49 325.945L216.269 326.081C216.118 326.983 215.825 327.872 215.456 328.432C215.305 328.316 214.95 328.118 214.759 328.029C215.134 327.537 215.367 326.737 215.49 325.945ZM215.975 329.088H216.734V331.542C216.734 331.911 216.672 332.116 216.426 332.239C216.18 332.355 215.845 332.368 215.387 332.368C215.367 332.15 215.264 331.835 215.175 331.617C215.456 331.63 215.763 331.63 215.859 331.63C215.948 331.63 215.975 331.61 215.975 331.528V329.088ZM216.781 328.036H216.952L217.096 327.988L217.574 328.33C217.301 328.801 216.911 329.334 216.563 329.683C216.46 329.532 216.242 329.307 216.118 329.198C216.371 328.931 216.652 328.473 216.781 328.173V328.036ZM212.688 326.922H215.107V327.701H212.688V326.922ZM213.453 328.453H214.615V329.198H213.453V328.453ZM213.542 325.952H214.328V327.469H213.542V325.952ZM214.314 328.453H215.052C215.052 328.453 215.052 328.678 215.046 328.774C214.977 330.961 214.909 331.781 214.724 332.034C214.588 332.218 214.458 332.286 214.273 332.321C214.116 332.355 213.87 332.355 213.604 332.348C213.59 332.122 213.522 331.815 213.405 331.617C213.61 331.63 213.781 331.637 213.877 331.637C213.966 331.637 214.021 331.617 214.075 331.535C214.191 331.371 214.26 330.66 214.314 328.596V328.453ZM213.187 327.496H213.939C213.898 329.341 213.795 331.2 212.811 332.341C212.688 332.163 212.456 331.931 212.257 331.808C213.125 330.817 213.159 329.129 213.187 327.496ZM217.896 326.669H219.96V327.393H217.896V326.669ZM219.775 326.669H219.919L220.056 326.642L220.582 326.819C220.295 329.102 219.529 330.865 218.327 331.89C218.197 331.685 217.93 331.371 217.732 331.227C218.805 330.421 219.55 328.678 219.775 326.847V326.669ZM217.869 328.152L218.429 327.68C219.201 328.658 220.247 329.977 220.705 330.81L220.069 331.391C219.639 330.537 218.641 329.163 217.869 328.152ZM220.514 327.844L224.04 327.428L224.135 328.166L220.616 328.596L220.514 327.844ZM222.386 326.396L222.967 325.965C223.261 326.245 223.678 326.642 223.876 326.901L223.254 327.387C223.076 327.12 222.673 326.696 222.386 326.396ZM221.183 325.979H222.037C222.065 328.931 222.406 331.193 223.24 331.33C223.397 331.343 223.473 331.009 223.52 330.284C223.678 330.462 224.053 330.694 224.211 330.776C224.033 332.075 223.657 332.375 223.281 332.348C221.634 332.17 221.279 329.772 221.183 325.979ZM223.268 328.391L223.924 328.781C223.363 330.134 222.249 331.46 221.019 332.116C220.862 331.917 220.602 331.665 220.37 331.507C221.655 330.94 222.748 329.676 223.268 328.391ZM227.458 326.191H228.223V326.908C228.223 327.571 228.045 328.371 227.232 328.87C227.136 328.712 226.842 328.384 226.692 328.275C227.369 327.879 227.458 327.346 227.458 326.888V326.191ZM227.84 326.191H229.494V326.949H227.84V326.191ZM229.104 326.191H229.884V327.68C229.884 327.865 229.904 327.886 229.986 327.886C230.02 327.886 230.143 327.886 230.184 327.886C230.28 327.886 230.3 327.79 230.314 327.195C230.464 327.318 230.786 327.434 230.991 327.489C230.922 328.33 230.738 328.562 230.273 328.562C230.15 328.562 229.945 328.562 229.836 328.562C229.268 328.562 229.104 328.364 229.104 327.687V326.191ZM227.088 328.87H229.931V329.608H227.088V328.87ZM229.678 328.87H229.836L229.986 328.842L230.519 329.047C229.993 330.954 228.667 331.911 226.89 332.362C226.808 332.143 226.617 331.794 226.467 331.617C228.066 331.302 229.275 330.448 229.678 328.993V328.87ZM227.997 329.56C228.496 330.599 229.535 331.323 230.997 331.61C230.82 331.781 230.581 332.129 230.464 332.348C228.906 331.979 227.881 331.104 227.259 329.785L227.997 329.56ZM224.423 329.45C225.004 329.334 225.906 329.109 226.774 328.897L226.863 329.608C226.098 329.854 225.298 330.113 224.656 330.305L224.423 329.45ZM224.533 327.209H226.89V327.968H224.533V327.209ZM225.401 325.938H226.207V331.473C226.207 331.87 226.132 332.075 225.899 332.198C225.674 332.321 225.346 332.348 224.861 332.341C224.833 332.136 224.731 331.801 224.635 331.596C224.895 331.603 225.182 331.603 225.271 331.603C225.36 331.596 225.401 331.569 225.401 331.473V325.938ZM235.242 331.166L235.843 330.756C236.363 331.036 237.06 331.466 237.422 331.788L236.773 332.245C236.458 331.938 235.775 331.473 235.242 331.166ZM232.092 329.129H236.657V329.751H232.092V329.129ZM231.279 330.038H237.477V330.687H231.279V330.038ZM231.374 326.163H237.34V326.806H231.374V326.163ZM233.957 330.154H234.791V331.576C234.791 331.938 234.73 332.129 234.463 332.239C234.203 332.355 233.875 332.362 233.424 332.362C233.39 332.143 233.274 331.835 233.178 331.637C233.445 331.651 233.752 331.651 233.841 331.644C233.937 331.644 233.957 331.624 233.957 331.548V330.154ZM232.638 330.742L233.39 331.002C233.001 331.507 232.379 332.013 231.846 332.321C231.709 332.177 231.408 331.904 231.231 331.781C231.764 331.535 232.317 331.138 232.638 330.742ZM232.536 327.756V328.261H236.171V327.756H232.536ZM231.777 327.168H236.985V328.856H231.777V327.168ZM233.219 326.409H233.971V328.617H233.219V326.409ZM234.689 326.409H235.454V328.617H234.689V326.409Z" fill="white"/>
<path d="M164.616 340.288C163.607 340.281 162.622 340.106 161.661 339.763C160.7 339.413 159.836 338.847 159.067 338.065C158.298 337.275 157.688 336.229 157.235 334.925C156.782 333.614 156.559 331.991 156.566 330.056C156.566 328.251 156.758 326.642 157.142 325.228C157.526 323.814 158.079 322.62 158.799 321.646C159.52 320.664 160.388 319.916 161.404 319.401C162.426 318.887 163.569 318.629 164.832 318.629C166.156 318.629 167.33 318.89 168.352 319.412C169.382 319.933 170.212 320.647 170.844 321.553C171.475 322.452 171.866 323.468 172.017 324.6H168.26C168.068 323.79 167.673 323.145 167.076 322.665C166.486 322.177 165.738 321.934 164.832 321.934C163.37 321.934 162.245 322.569 161.455 323.838C160.673 325.108 160.278 326.851 160.271 329.068H160.416C160.752 328.464 161.188 327.946 161.723 327.513C162.258 327.081 162.862 326.748 163.535 326.515C164.214 326.275 164.931 326.154 165.686 326.154C166.921 326.154 168.03 326.45 169.011 327.04C169.999 327.63 170.782 328.443 171.358 329.479C171.935 330.509 172.22 331.689 172.213 333.021C172.22 334.407 171.904 335.652 171.266 336.757C170.627 337.855 169.739 338.72 168.599 339.351C167.46 339.983 166.132 340.295 164.616 340.288ZM164.595 337.2C165.343 337.2 166.012 337.018 166.602 336.654C167.193 336.291 167.659 335.8 168.002 335.182C168.345 334.565 168.514 333.872 168.507 333.103C168.514 332.348 168.349 331.665 168.013 331.054C167.683 330.444 167.227 329.96 166.644 329.603C166.06 329.246 165.395 329.068 164.646 329.068C164.091 329.068 163.572 329.174 163.092 329.387C162.612 329.6 162.193 329.895 161.836 330.272C161.479 330.643 161.198 331.075 160.992 331.569C160.793 332.056 160.69 332.578 160.683 333.134C160.69 333.868 160.862 334.544 161.198 335.162C161.534 335.779 161.997 336.274 162.588 336.644C163.178 337.015 163.847 337.2 164.595 337.2Z" fill="url(#paint23_linear_1139_238)"/>
</g>
<defs>
<filter id="filter0_b_1139_238" x="-1.78445" y="-1.78445" width="149.643" height="44.5689" filterUnits="userSpaceOnUse" color-interpolation-filters="sRGB">
<feFlood flood-opacity="0" result="BackgroundImageFix"/>
<feGaussianBlur in="BackgroundImageFix" stdDeviation="1.89222"/>
<feComposite in2="SourceAlpha" operator="in" result="effect1_backgroundBlur_1139_238"/>
<feBlend mode="normal" in="SourceGraphic" in2="effect1_backgroundBlur_1139_238" result="shape"/>
</filter>
<filter id="filter1_b_1139_238" x="140.216" y="62.2156" width="149.569" height="44.5689" filterUnits="userSpaceOnUse" color-interpolation-filters="sRGB">
<feFlood flood-opacity="0" result="BackgroundImageFix"/>
<feGaussianBlur in="BackgroundImageFix" stdDeviation="1.89222"/>
<feComposite in2="SourceAlpha" operator="in" result="effect1_backgroundBlur_1139_238"/>
<feBlend mode="normal" in="SourceGraphic" in2="effect1_backgroundBlur_1139_238" result="shape"/>
</filter>
<filter id="filter2_b_1139_238" x="-1.79666" y="126.203" width="150.127" height="44.5933" filterUnits="userSpaceOnUse" color-interpolation-filters="sRGB">
<feFlood flood-opacity="0" result="BackgroundImageFix"/>
<feGaussianBlur in="BackgroundImageFix" stdDeviation="1.89833"/>
<feComposite in2="SourceAlpha" operator="in" result="effect1_backgroundBlur_1139_238"/>
<feBlend mode="normal" in="SourceGraphic" in2="effect1_backgroundBlur_1139_238" result="shape"/>
</filter>
<filter id="filter3_b_1139_238" x="139.203" y="190.203" width="150.127" height="44.5933" filterUnits="userSpaceOnUse" color-interpolation-filters="sRGB">
<feFlood flood-opacity="0" result="BackgroundImageFix"/>
<feGaussianBlur in="BackgroundImageFix" stdDeviation="1.89833"/>
<feComposite in2="SourceAlpha" operator="in" result="effect1_backgroundBlur_1139_238"/>
<feBlend mode="normal" in="SourceGraphic" in2="effect1_backgroundBlur_1139_238" result="shape"/>
</filter>
<filter id="filter4_b_1139_238" x="-1.79666" y="254.203" width="150.127" height="44.5933" filterUnits="userSpaceOnUse" color-interpolation-filters="sRGB">
<feFlood flood-opacity="0" result="BackgroundImageFix"/>
<feGaussianBlur in="BackgroundImageFix" stdDeviation="1.89833"/>
<feComposite in2="SourceAlpha" operator="in" result="effect1_backgroundBlur_1139_238"/>
<feBlend mode="normal" in="SourceGraphic" in2="effect1_backgroundBlur_1139_238" result="shape"/>
</filter>
<filter id="filter5_b_1139_238" x="139.203" y="307.203" width="150.127" height="44.5933" filterUnits="userSpaceOnUse" color-interpolation-filters="sRGB">
<feFlood flood-opacity="0" result="BackgroundImageFix"/>
<feGaussianBlur in="BackgroundImageFix" stdDeviation="1.89833"/>
<feComposite in2="SourceAlpha" operator="in" result="effect1_backgroundBlur_1139_238"/>
<feBlend mode="normal" in="SourceGraphic" in2="effect1_backgroundBlur_1139_238" result="shape"/>
</filter>
<linearGradient id="paint0_linear_1139_238" x1="2" y1="2.92758" x2="122.832" y2="74.7417" gradientUnits="userSpaceOnUse">
<stop stop-color="white" stop-opacity="0.4"/>
<stop offset="1" stop-color="white" stop-opacity="0"/>
</linearGradient>
<radialGradient id="paint1_radial_1139_238" cx="0" cy="0" r="1" gradientUnits="userSpaceOnUse" gradientTransform="translate(70.9873 20.5515) rotate(165.028) scale(71.4115 127.625)">
<stop/>
<stop offset="1" stop-opacity="0"/>
</radialGradient>
<radialGradient id="paint2_radial_1139_238" cx="0" cy="0" r="1" gradientUnits="userSpaceOnUse" gradientTransform="translate(78.686 22.7865) rotate(-165.265) scale(79.2937 140.29)">
<stop stop-color="white"/>
<stop offset="1" stop-color="white" stop-opacity="0"/>
</radialGradient>
<linearGradient id="paint3_linear_1139_238" x1="13.9824" y1="17.335" x2="28.2858" y2="17.3976" gradientUnits="userSpaceOnUse">
<stop stop-color="#1056FA"/>
<stop offset="1" stop-color="#00C7F8"/>
</linearGradient>
<linearGradient id="paint4_linear_1139_238" x1="144" y1="66.9276" x2="264.802" y2="138.686" gradientUnits="userSpaceOnUse">
<stop stop-color="white" stop-opacity="0.4"/>
<stop offset="1" stop-color="white" stop-opacity="0"/>
</linearGradient>
<radialGradient id="paint5_radial_1139_238" cx="0" cy="0" r="1" gradientUnits="userSpaceOnUse" gradientTransform="translate(212.951 84.5515) rotate(165.021) scale(71.3765 127.621)">
<stop/>
<stop offset="1" stop-opacity="0"/>
</radialGradient>
<radialGradient id="paint6_radial_1139_238" cx="0" cy="0" r="1" gradientUnits="userSpaceOnUse" gradientTransform="translate(220.646 86.7865) rotate(-165.258) scale(79.2548 140.286)">
<stop stop-color="white"/>
<stop offset="1" stop-color="white" stop-opacity="0"/>
</radialGradient>
<linearGradient id="paint7_linear_1139_238" x1="155" y1="79.22" x2="173.39" y2="79.2828" gradientUnits="userSpaceOnUse">
<stop stop-color="#1056FA"/>
<stop offset="1" stop-color="#00C7F8"/>
</linearGradient>
<linearGradient id="paint8_linear_1139_238" x1="2" y1="130.928" x2="136.15" y2="213.084" gradientUnits="userSpaceOnUse">
<stop stop-color="white" stop-opacity="0.4"/>
<stop offset="1" stop-color="white" stop-opacity="0"/>
</linearGradient>
<radialGradient id="paint9_radial_1139_238" cx="0" cy="0" r="1" gradientUnits="userSpaceOnUse" gradientTransform="translate(71.2099 148.552) rotate(165.074) scale(71.6265 127.652)">
<stop/>
<stop offset="1" stop-opacity="0"/>
</radialGradient>
<radialGradient id="paint10_radial_1139_238" cx="0" cy="0" r="1" gradientUnits="userSpaceOnUse" gradientTransform="translate(78.9334 150.787) rotate(-165.31) scale(79.533 140.319)">
<stop stop-color="white"/>
<stop offset="1" stop-color="white" stop-opacity="0"/>
</radialGradient>
<linearGradient id="paint11_linear_1139_238" x1="14.0215" y1="145.313" x2="33.4329" y2="145.429" gradientUnits="userSpaceOnUse">
<stop stop-color="#1056FA"/>
<stop offset="1" stop-color="#00C7F8"/>
</linearGradient>
<linearGradient id="paint12_linear_1139_238" x1="143" y1="194.928" x2="264.018" y2="267.084" gradientUnits="userSpaceOnUse">
<stop stop-color="white" stop-opacity="0.4"/>
<stop offset="1" stop-color="white" stop-opacity="0"/>
</linearGradient>
<radialGradient id="paint13_radial_1139_238" cx="0" cy="0" r="1" gradientUnits="userSpaceOnUse" gradientTransform="translate(212.21 212.552) rotate(165.074) scale(71.6265 127.652)">
<stop/>
<stop offset="1" stop-opacity="0"/>
</radialGradient>
<radialGradient id="paint14_radial_1139_238" cx="0" cy="0" r="1" gradientUnits="userSpaceOnUse" gradientTransform="translate(219.933 214.787) rotate(-165.31) scale(79.533 140.319)">
<stop stop-color="white"/>
<stop offset="1" stop-color="white" stop-opacity="0"/>
</radialGradient>
<linearGradient id="paint15_linear_1139_238" x1="152.531" y1="207.22" x2="172.965" y2="207.298" gradientUnits="userSpaceOnUse">
<stop stop-color="#1056FA"/>
<stop offset="1" stop-color="#00C7F8"/>
</linearGradient>
<linearGradient id="paint16_linear_1139_238" x1="2" y1="258.928" x2="123.018" y2="331.084" gradientUnits="userSpaceOnUse">
<stop stop-color="white" stop-opacity="0.4"/>
<stop offset="1" stop-color="white" stop-opacity="0"/>
</linearGradient>
<radialGradient id="paint17_radial_1139_238" cx="0" cy="0" r="1" gradientUnits="userSpaceOnUse" gradientTransform="translate(71.2099 276.552) rotate(165.074) scale(71.6265 127.652)">
<stop/>
<stop offset="1" stop-opacity="0"/>
</radialGradient>
<radialGradient id="paint18_radial_1139_238" cx="0" cy="0" r="1" gradientUnits="userSpaceOnUse" gradientTransform="translate(78.9334 278.787) rotate(-165.31) scale(79.533 140.319)">
<stop stop-color="white"/>
<stop offset="1" stop-color="white" stop-opacity="0"/>
</radialGradient>
<linearGradient id="paint19_linear_1139_238" x1="14.0195" y1="271.22" x2="33.4314" y2="271.29" gradientUnits="userSpaceOnUse">
<stop stop-color="#1056FA"/>
<stop offset="1" stop-color="#00C7F8"/>
</linearGradient>
<linearGradient id="paint20_linear_1139_238" x1="143" y1="311.928" x2="271.108" y2="388.429" gradientUnits="userSpaceOnUse">
<stop stop-color="white" stop-opacity="0.4"/>
<stop offset="1" stop-color="white" stop-opacity="0"/>
</linearGradient>
<radialGradient id="paint21_radial_1139_238" cx="0" cy="0" r="1" gradientUnits="userSpaceOnUse" gradientTransform="translate(212.21 329.552) rotate(165.074) scale(71.6265 127.652)">
<stop/>
<stop offset="1" stop-opacity="0"/>
</radialGradient>
<radialGradient id="paint22_radial_1139_238" cx="0" cy="0" r="1" gradientUnits="userSpaceOnUse" gradientTransform="translate(219.933 331.787) rotate(-165.31) scale(79.533 140.319)">
<stop stop-color="white"/>
<stop offset="1" stop-color="white" stop-opacity="0"/>
</radialGradient>
<linearGradient id="paint23_linear_1139_238" x1="155.021" y1="324.22" x2="174.433" y2="324.29" gradientUnits="userSpaceOnUse">
<stop stop-color="#1056FA"/>
<stop offset="1" stop-color="#00C7F8"/>
</linearGradient>
<clipPath id="clip0_1139_238">
<rect width="288" height="350" fill="white"/>
</clipPath>
</defs>
</svg>
