<svg width="72" height="27" viewBox="0 0 72 27" fill="none" xmlns="http://www.w3.org/2000/svg">
<path d="M7.10669 9.45045C6.4137 7.18637 7.38984 4.74513 9.45281 3.58303C12.0286 2.13207 15.2943 3.1989 16.5167 5.89064L21.164 16.1236C21.954 17.8632 21.4108 19.9184 19.8644 21.0404L17.3744 22.8473C15.4643 24.2333 12.822 22.6657 13.1229 20.3249C13.2592 19.2652 12.7558 18.2251 11.8401 17.6744L10.6862 16.9805C9.68041 16.3757 8.93393 15.4202 8.59044 14.298L7.10669 9.45045Z" fill="url(#paint0_linear_1015_37)"/>
<path d="M16.4578 9.49446C17.1616 7.23369 16.1971 4.78782 14.1396 3.61591C11.5708 2.1527 8.30005 3.20397 7.0648 5.88987L2.36889 16.1006C1.5706 17.8363 2.10403 19.8942 3.645 21.0236L6.12643 22.8422C8.02995 24.2373 10.6796 22.6823 10.3899 20.3402C10.2587 19.2797 10.767 18.2421 11.6853 17.6958L12.8425 17.0074C13.8512 16.4074 14.6022 15.4554 14.951 14.3349L16.4578 9.49446Z" fill="url(#paint1_linear_1015_37)"/>
<path d="M7.10669 9.45045C6.4137 7.18637 7.38984 4.74513 9.45281 3.58303C12.0286 2.13207 15.2943 3.1989 16.5167 5.89064L21.164 16.1236C21.954 17.8632 21.4108 19.9184 19.8644 21.0404L17.3744 22.8473C15.4643 24.2333 12.822 22.6657 13.1229 20.3249C13.2592 19.2652 12.7558 18.2251 11.8401 17.6744L10.6862 16.9805C9.68041 16.3757 8.93393 15.4202 8.59044 14.298L7.10669 9.45045Z" fill="url(#paint2_linear_1015_37)" fill-opacity="0.1"/>
<path d="M16.4578 9.49446C17.1616 7.23369 16.1971 4.78782 14.1396 3.61591C11.5708 2.1527 8.30005 3.20397 7.0648 5.88987L2.36889 16.1006C1.5706 17.8363 2.10403 19.8942 3.645 21.0236L6.12643 22.8422C8.02995 24.2373 10.6796 22.6823 10.3899 20.3402C10.2587 19.2797 10.767 18.2421 11.6853 17.6958L12.8425 17.0074C13.8512 16.4074 14.6022 15.4554 14.951 14.3349L16.4578 9.49446Z" fill="url(#paint3_linear_1015_37)" fill-opacity="0.1"/>
<path opacity="0.06" d="M16.9685 8.90057C17.5055 9.31104 17.7477 10.2931 17.3632 10.7971C16.9786 11.3011 16.1126 11.1351 15.5756 10.7272C15.0385 10.3194 14.915 9.57656 15.301 9.0722C15.6871 8.56784 16.4314 8.49123 16.9685 8.90057Z" fill="#12100B"/>
<path opacity="0.06" d="M8.97438 8.19744C9.41517 8.53374 9.35661 9.67702 8.78327 10.4288C8.20993 11.1807 7.33913 11.2549 6.89834 10.9186C6.45754 10.5823 6.56512 9.70076 7.13815 8.94925C7.71118 8.19775 8.53359 7.86114 8.97438 8.19744Z" fill="#12100B"/>
<path d="M19.6231 2.84619C19.7276 4.1477 19.7982 8.32099 16.7454 10.649C16.5838 10.7716 16.3871 10.8391 16.1843 10.8417C15.9814 10.8442 15.7831 10.7817 15.6184 10.6633C15.1636 10.3358 14.623 9.67507 14.5057 8.36361C14.4965 8.25858 14.5225 8.15348 14.5796 8.0648C14.6366 7.97613 14.7214 7.9089 14.8208 7.87368C15.5926 7.60243 17.566 6.56906 19.4097 2.80513C19.4206 2.78294 19.4385 2.76495 19.4606 2.75392C19.4827 2.7429 19.5078 2.73946 19.5321 2.74412C19.5564 2.74879 19.5784 2.76132 19.5949 2.77976C19.6113 2.79821 19.6212 2.82155 19.6231 2.84619Z" fill="url(#paint4_linear_1015_37)"/>
<path d="M3.88872 2.84675C3.7842 4.14826 3.71359 8.32155 6.76641 10.6496C6.92806 10.7721 7.12472 10.8396 7.32756 10.8422C7.53039 10.8448 7.72871 10.7823 7.89341 10.6639C8.34819 10.3363 8.88883 9.67563 9.0061 8.36416C9.01526 8.25913 8.98929 8.15403 8.93226 8.06536C8.87522 7.97668 8.79036 7.90946 8.69099 7.87423C7.91923 7.60298 5.94581 6.56961 4.10242 2.80569C4.09162 2.78335 4.07375 2.7652 4.05157 2.75407C4.0294 2.74293 4.00416 2.73944 3.9798 2.74412C3.95543 2.7488 3.93329 2.7614 3.91682 2.77996C3.90035 2.79852 3.89047 2.822 3.88872 2.84675Z" fill="url(#paint5_linear_1015_37)"/>
<path d="M11.3072 13.357C11.5095 13.0417 11.9704 13.0417 12.1727 13.357L13.0873 14.7828C13.3069 15.125 13.0611 15.5746 12.6546 15.5746H10.8254C10.4188 15.5746 10.1731 15.125 10.3926 14.7828L11.3072 13.357Z" fill="#171922"/>
<path d="M31.7371 11.6426H29.7764L32.3231 4.09478H34.7518L37.2985 11.6426H35.3378L33.5651 5.99648H33.5061L31.7371 11.6426ZM31.4754 8.67212H35.5737V10.0579H31.4754V8.67212ZM39.7616 4.09478V11.6426H37.9594V4.09478H39.7616ZM43.4031 11.7495C42.8109 11.7495 42.2999 11.6328 41.8699 11.3994C41.4424 11.1635 41.1132 10.8281 40.8822 10.3932C40.6537 9.95589 40.5394 9.43624 40.5394 8.83428C40.5394 8.24952 40.6549 7.73847 40.8859 7.30113C41.1168 6.86133 41.4424 6.51981 41.8625 6.27657C42.2827 6.03087 42.7778 5.90803 43.3478 5.90803C43.7507 5.90803 44.1193 5.97068 44.4534 6.09598C44.7876 6.22129 45.0763 6.40679 45.3195 6.65249C45.5627 6.89819 45.7519 7.20162 45.8871 7.5628C46.0222 7.92152 46.0898 8.33306 46.0898 8.79743V9.24706H41.1697V8.20038H44.4129C44.4104 8.00874 44.365 7.83798 44.2765 7.68811C44.1881 7.53823 44.0664 7.42152 43.9116 7.33799C43.7593 7.25199 43.5836 7.209 43.3846 7.209C43.1832 7.209 43.0026 7.25445 42.8429 7.34536C42.6832 7.43381 42.5566 7.55543 42.4633 7.71022C42.3699 7.86255 42.3208 8.03577 42.3158 8.22987V9.29497C42.3158 9.52592 42.3613 9.72862 42.4522 9.90307C42.5431 10.0751 42.6721 10.209 42.8392 10.3048C43.0063 10.4006 43.2053 10.4485 43.4362 10.4485C43.5959 10.4485 43.7409 10.4264 43.8711 10.3822C44.0013 10.338 44.1131 10.2728 44.2065 10.1869C44.2998 10.1009 44.3699 9.99521 44.4166 9.8699L46.0713 9.91781C46.0025 10.2888 45.8514 10.6119 45.618 10.8871C45.3871 11.1598 45.0836 11.3723 44.7077 11.5247C44.3318 11.6745 43.8969 11.7495 43.4031 11.7495ZM49.5009 11.7495C48.9063 11.7495 48.3953 11.6279 47.9678 11.3846C47.5427 11.1389 47.2147 10.7974 46.9837 10.3601C46.7552 9.92027 46.641 9.41045 46.641 8.8306C46.641 8.2483 46.7552 7.73847 46.9837 7.30113C47.2147 6.86133 47.5427 6.51981 47.9678 6.27657C48.3953 6.03087 48.9063 5.90803 49.5009 5.90803C50.0955 5.90803 50.6053 6.03087 51.0304 6.27657C51.4579 6.51981 51.7859 6.86133 52.0144 7.30113C52.2454 7.73847 52.3608 8.2483 52.3608 8.8306C52.3608 9.41045 52.2454 9.92027 52.0144 10.3601C51.7859 10.7974 51.4579 11.1389 51.0304 11.3846C50.6053 11.6279 50.0955 11.7495 49.5009 11.7495ZM49.512 10.3896C49.7282 10.3896 49.9112 10.3232 50.0611 10.1905C50.211 10.0579 50.3252 9.87359 50.4039 9.63772C50.4849 9.40185 50.5255 9.12912 50.5255 8.81954C50.5255 8.50505 50.4849 8.22987 50.4039 7.994C50.3252 7.75813 50.211 7.57386 50.0611 7.44118C49.9112 7.3085 49.7282 7.24216 49.512 7.24216C49.2884 7.24216 49.0992 7.3085 48.9444 7.44118C48.7921 7.57386 48.6754 7.75813 48.5943 7.994C48.5157 8.22987 48.4764 8.50505 48.4764 8.81954C48.4764 9.12912 48.5157 9.40185 48.5943 9.63772C48.6754 9.87359 48.7921 10.0579 48.9444 10.1905C49.0992 10.3232 49.2884 10.3896 49.512 10.3896ZM32.7432 23.8834C32.2052 23.8834 31.7445 23.8084 31.3612 23.6586C30.9779 23.5087 30.6769 23.3035 30.4583 23.0431C30.2396 22.7826 30.1081 22.4878 30.0639 22.1586L31.7703 22.0628C31.8022 22.1782 31.8612 22.279 31.9472 22.365C32.0356 22.451 32.1499 22.5173 32.2899 22.564C32.4324 22.6107 32.5995 22.634 32.7912 22.634C33.0934 22.634 33.3427 22.5603 33.5393 22.4129C33.7383 22.2679 33.8378 22.0136 33.8378 21.65V20.6549H33.7752C33.7039 20.8293 33.5958 20.9854 33.4509 21.123C33.3059 21.2605 33.1253 21.3687 32.9091 21.4473C32.6953 21.5259 32.4496 21.5652 32.172 21.5652C31.7592 21.5652 31.3808 21.4694 31.0369 21.2777C30.6954 21.0836 30.4214 20.7839 30.215 20.3785C30.0111 19.9706 29.9091 19.4461 29.9091 18.8048C29.9091 18.1439 30.0148 17.5997 30.2261 17.1721C30.4374 16.7422 30.7138 16.424 31.0553 16.2176C31.3993 16.0112 31.7691 15.908 32.1646 15.908C32.4619 15.908 32.7162 15.9596 32.9275 16.0628C33.1413 16.1636 33.3169 16.2938 33.4545 16.4535C33.5921 16.6132 33.6965 16.779 33.7678 16.951H33.8194V15.9817H35.6142V21.6647C35.6142 22.1438 35.4938 22.548 35.253 22.8772C35.0123 23.2065 34.6757 23.4559 34.2432 23.6254C33.8108 23.7974 33.3108 23.8834 32.7432 23.8834ZM32.7985 20.2532C33.0172 20.2532 33.2039 20.1954 33.3587 20.08C33.5135 19.9645 33.6327 19.7986 33.7162 19.5824C33.7997 19.3662 33.8415 19.107 33.8415 18.8048C33.8415 18.4977 33.7997 18.2336 33.7162 18.0124C33.6351 17.7888 33.516 17.6169 33.3587 17.4965C33.2039 17.3761 33.0172 17.3159 32.7985 17.3159C32.5749 17.3159 32.3858 17.3773 32.231 17.5001C32.0762 17.623 31.9582 17.7962 31.8772 18.0198C31.7985 18.2409 31.7592 18.5026 31.7592 18.8048C31.7592 19.107 31.7998 19.3662 31.8808 19.5824C31.9619 19.7986 32.0786 19.9645 32.231 20.08C32.3858 20.1954 32.5749 20.2532 32.7985 20.2532ZM38.2072 21.7384C37.846 21.7384 37.5254 21.6782 37.2453 21.5578C36.9677 21.435 36.7478 21.2507 36.5856 21.005C36.4259 20.7569 36.346 20.4461 36.346 20.0726C36.346 19.7581 36.4013 19.4928 36.5119 19.2765C36.6225 19.0603 36.7748 18.8847 36.9689 18.7495C37.163 18.6144 37.3866 18.5124 37.6396 18.4436C37.8927 18.3724 38.163 18.3245 38.4504 18.2999C38.7723 18.2704 39.0315 18.2397 39.2281 18.2078C39.4246 18.1734 39.5671 18.1254 39.6556 18.064C39.7465 18.0001 39.792 17.9105 39.792 17.795V17.7766C39.792 17.5874 39.7268 17.4412 39.5966 17.338C39.4664 17.2348 39.2907 17.1832 39.0696 17.1832C38.8313 17.1832 38.6396 17.2348 38.4947 17.338C38.3497 17.4412 38.2576 17.5837 38.2183 17.7655L36.5561 17.7065C36.6053 17.3626 36.7318 17.0554 36.9357 16.7852C37.1421 16.5124 37.4247 16.2987 37.7834 16.1439C38.1446 15.9866 38.5782 15.908 39.0843 15.908C39.4455 15.908 39.7784 15.951 40.0831 16.037C40.3878 16.1206 40.6531 16.2434 40.8792 16.4056C41.1052 16.5653 41.2797 16.7618 41.4025 16.9952C41.5278 17.2287 41.5905 17.4952 41.5905 17.795V21.6426H39.8951V20.8539H39.8509C39.7502 21.0456 39.6212 21.2077 39.464 21.3404C39.3092 21.4731 39.1261 21.5726 38.9148 21.6389C38.706 21.7053 38.4701 21.7384 38.2072 21.7384ZM38.7637 20.5591C38.9578 20.5591 39.1323 20.5198 39.287 20.4411C39.4443 20.3625 39.5696 20.2544 39.663 20.1168C39.7563 19.9768 39.803 19.8146 39.803 19.6303V19.0923C39.7514 19.1193 39.6888 19.1439 39.6151 19.166C39.5438 19.1881 39.4652 19.209 39.3792 19.2286C39.2932 19.2483 39.2047 19.2655 39.1138 19.2802C39.0229 19.295 38.9357 19.3085 38.8522 19.3208C38.6826 19.3478 38.5377 19.3896 38.4173 19.4461C38.2993 19.5026 38.2084 19.5763 38.1446 19.6672C38.0831 19.7557 38.0524 19.8613 38.0524 19.9841C38.0524 20.1709 38.1188 20.3134 38.2514 20.4117C38.3866 20.5099 38.5573 20.5591 38.7637 20.5591ZM42.5407 21.6426V15.9817H44.2544V17.021H44.317C44.435 16.6771 44.634 16.4056 44.9141 16.2065C45.1942 16.0075 45.5283 15.908 45.9165 15.908C46.3097 15.908 46.6463 16.0088 46.9264 16.2102C47.2065 16.4117 47.3846 16.682 47.4607 17.021H47.5197C47.6254 16.6844 47.8318 16.4154 48.1389 16.2139C48.446 16.01 48.8084 15.908 49.2261 15.908C49.7617 15.908 50.1966 16.08 50.5307 16.424C50.8649 16.7655 51.032 17.2348 51.032 17.8318V21.6426H49.2298V18.2446C49.2298 17.9621 49.1573 17.7471 49.0123 17.5997C48.8674 17.4498 48.6794 17.3748 48.4485 17.3748C48.2003 17.3748 48.005 17.4559 47.8625 17.6181C47.7224 17.7778 47.6524 17.9928 47.6524 18.263V21.6426H45.9202V18.2262C45.9202 17.9633 45.849 17.7557 45.7065 17.6033C45.564 17.451 45.376 17.3748 45.1426 17.3748C44.9853 17.3748 44.8465 17.4129 44.7261 17.4891C44.6057 17.5628 44.5111 17.6684 44.4424 17.806C44.376 17.9436 44.3428 18.1058 44.3428 18.2925V21.6426H42.5407ZM54.6431 21.7495C54.0509 21.7495 53.5399 21.6328 53.1099 21.3994C52.6824 21.1635 52.3532 20.8281 52.1222 20.3932C51.8937 19.9559 51.7795 19.4362 51.7795 18.8343C51.7795 18.2495 51.8949 17.7385 52.1259 17.3011C52.3568 16.8613 52.6824 16.5198 53.1025 16.2766C53.5227 16.0309 54.0178 15.908 54.5878 15.908C54.9907 15.908 55.3593 15.9707 55.6934 16.096C56.0276 16.2213 56.3163 16.4068 56.5595 16.6525C56.8027 16.8982 56.9919 17.2016 57.1271 17.5628C57.2622 17.9215 57.3298 18.3331 57.3298 18.7974V19.2471H52.4097V18.2004H55.6529C55.6504 18.0087 55.605 17.838 55.5165 17.6881C55.4281 17.5382 55.3064 17.4215 55.1517 17.338C54.9993 17.252 54.8236 17.209 54.6246 17.209C54.4232 17.209 54.2426 17.2544 54.0829 17.3454C53.9232 17.4338 53.7966 17.5554 53.7033 17.7102C53.6099 17.8626 53.5608 18.0358 53.5558 18.2299V19.295C53.5558 19.5259 53.6013 19.7286 53.6922 19.9031C53.7831 20.0751 53.9121 20.209 54.0792 20.3048C54.2463 20.4006 54.4453 20.4485 54.6762 20.4485C54.8359 20.4485 54.9809 20.4264 55.1111 20.3822C55.2413 20.338 55.3531 20.2728 55.4465 20.1869C55.5399 20.1009 55.6099 19.9952 55.6566 19.8699L57.3113 19.9178C57.2425 20.2888 57.0914 20.6119 56.858 20.8871C56.6271 21.1598 56.3236 21.3723 55.9477 21.5247C55.5718 21.6745 55.1369 21.7495 54.6431 21.7495ZM63.0407 17.7102L61.3859 17.7544C61.3687 17.6365 61.322 17.5321 61.2458 17.4412C61.1697 17.3478 61.0702 17.2753 60.9473 17.2237C60.8269 17.1697 60.6869 17.1427 60.5272 17.1427C60.3183 17.1427 60.1402 17.1844 59.9928 17.268C59.8478 17.3515 59.7766 17.4645 59.779 17.607C59.7766 17.7176 59.8208 17.8134 59.9117 17.8945C60.0051 17.9756 60.1709 18.0407 60.4092 18.0898L61.5001 18.2962C62.0652 18.4043 62.4854 18.5837 62.7606 18.8343C63.0382 19.0849 63.1782 19.4166 63.1807 19.8294C63.1782 20.2176 63.0628 20.5554 62.8343 20.8429C62.6082 21.1303 62.2986 21.3539 61.9055 21.5136C61.5124 21.6709 61.0628 21.7495 60.5567 21.7495C59.7483 21.7495 59.1107 21.5836 58.6439 21.2519C58.1795 20.9178 57.9142 20.4706 57.8478 19.9104L59.6279 19.8662C59.6672 20.0726 59.7692 20.2298 59.9338 20.338C60.0984 20.4461 60.3085 20.5001 60.564 20.5001C60.795 20.5001 60.9829 20.4571 61.1279 20.3711C61.2729 20.2851 61.3466 20.1709 61.349 20.0284C61.3466 19.9006 61.2901 19.7986 61.1795 19.7225C61.0689 19.6439 60.8957 19.5824 60.6598 19.5382L59.6721 19.3502C59.1046 19.2471 58.682 19.0566 58.4043 18.779C58.1267 18.4989 57.9891 18.1426 57.9916 17.7102C57.9891 17.3318 58.0898 17.0088 58.2938 16.7409C58.4977 16.4707 58.7876 16.2643 59.1635 16.1218C59.5395 15.9793 59.9829 15.908 60.494 15.908C61.2606 15.908 61.865 16.069 62.3072 16.3908C62.7495 16.7102 62.994 17.15 63.0407 17.7102Z" fill="white"/>
<defs>
<linearGradient id="paint0_linear_1015_37" x1="11.0788" y1="1.45495" x2="15.4925" y2="25.9386" gradientUnits="userSpaceOnUse">
<stop stop-color="#00B7FB"/>
<stop offset="1" stop-color="#184DDC"/>
</linearGradient>
<linearGradient id="paint1_linear_1015_37" x1="12.5238" y1="1.48011" x2="7.99364" y2="25.9424" gradientUnits="userSpaceOnUse">
<stop stop-color="#00B7FB"/>
<stop offset="1" stop-color="#1150FA"/>
</linearGradient>
<linearGradient id="paint2_linear_1015_37" x1="11.0788" y1="1.45495" x2="15.4925" y2="25.9386" gradientUnits="userSpaceOnUse">
<stop stop-color="white"/>
<stop offset="1" stop-color="#1150FA"/>
</linearGradient>
<linearGradient id="paint3_linear_1015_37" x1="12.5238" y1="1.48011" x2="7.99364" y2="25.9424" gradientUnits="userSpaceOnUse">
<stop stop-color="white"/>
<stop offset="1" stop-color="#1150FA"/>
</linearGradient>
<linearGradient id="paint4_linear_1015_37" x1="15.3392" y1="9.15552" x2="19.7096" y2="6.79897" gradientUnits="userSpaceOnUse">
<stop stop-color="#3ADEFD"/>
<stop offset="1" stop-color="#16C6E7"/>
</linearGradient>
<linearGradient id="paint5_linear_1015_37" x1="3.85352" y1="5.49617" x2="9.11963" y2="5.51716" gradientUnits="userSpaceOnUse">
<stop stop-color="#1056FA"/>
<stop offset="1" stop-color="#00C7F8"/>
</linearGradient>
</defs>
</svg>
