<svg width="35" height="35" viewBox="0 0 35 35" fill="none" xmlns="http://www.w3.org/2000/svg">
<circle cx="17.5" cy="17.5" r="17.5" fill="url(#paint0_linear_3_211)"/>
<path fill-rule="evenodd" clip-rule="evenodd" d="M11.6355 10.7979C11.6355 9.1191 12.3023 7.5091 13.4894 6.32203C14.6765 5.13496 16.2865 4.46808 17.9653 4.46808C19.6441 4.46808 21.254 5.13496 22.4411 6.32203C23.6282 7.5091 24.2951 9.1191 24.2951 10.7979C24.2951 12.4766 23.6282 14.0866 22.4411 15.2737C21.254 16.4608 19.6441 17.1277 17.9653 17.1277C16.2865 17.1277 14.6765 16.4608 13.4894 15.2737C12.3023 14.0866 11.6355 12.4766 11.6355 10.7979ZM11.6355 20.2925C9.53698 20.2925 7.52454 21.1262 6.04068 22.61C4.55682 24.0938 3.72339 25.0824 3.72339 27.1808C3.72339 28.4399 6.52548 32.0213 7.81913 31.6489C8.70945 32.5392 11.6355 33.6968 11.6355 33.5106L17.5 34.6277L22.7127 33.5106L25.3191 32.766L27.9255 30.9042C29.1846 30.9042 29.2692 29.9328 30.1596 29.0425C31.0499 28.1522 31.6489 28.4399 31.6489 27.1808C31.6489 25.0824 31.3737 24.0938 29.8898 22.61C28.406 21.1262 26.3935 20.2925 24.2951 20.2925H11.6355Z" fill="#F8F8F8"/>
<defs>
<linearGradient id="paint0_linear_3_211" x1="17.5" y1="0" x2="17.5" y2="35" gradientUnits="userSpaceOnUse">
<stop stop-color="#0690FA"/>
<stop offset="1" stop-color="#0F5AFA"/>
</linearGradient>
</defs>
</svg>
