<svg width="35" height="35" viewBox="0 0 35 35" fill="none" xmlns="http://www.w3.org/2000/svg">
<circle cx="17.5" cy="17.5" r="17.5" fill="url(#paint0_linear_3_211)"/>
<mask id="mask0_3_211" style="mask-type:alpha" maskUnits="userSpaceOnUse" x="0" y="0" width="35" height="35">
<circle cx="17.5" cy="17.5" r="17.5" fill="url(#paint1_linear_3_211)"/>
</mask>
<g mask="url(#mask0_3_211)">
<path fill-rule="evenodd" clip-rule="evenodd" d="M11.9121 12.3153C11.9121 10.6404 12.579 9.03405 13.766 7.8497C14.9531 6.66536 16.5631 6 18.2419 6C19.9207 6 21.5306 6.66536 22.7177 7.8497C23.9048 9.03405 24.5717 10.6404 24.5717 12.3153C24.5717 13.9902 23.9048 15.5965 22.7177 16.7809C21.5306 17.9652 19.9207 18.6306 18.2419 18.6306C16.5631 18.6306 14.9531 17.9652 13.766 16.7809C12.579 15.5965 11.9121 13.9902 11.9121 12.3153ZM11.9121 21.7882C9.8136 21.7882 7.80115 22.6199 6.31729 24.1003C4.83344 25.5808 4 26.5671 4 28.6607C4 29.9169 6.8021 33.4901 8.09574 33.1186C8.98606 34.0068 11.9121 35.1618 11.9121 34.976L17.7766 36.0905L22.9894 34.976L25.5957 34.233L28.2021 32.3756C29.4612 32.3756 29.5459 31.4064 30.4362 30.5182C31.3265 29.6299 31.9255 29.9169 31.9255 28.6607C31.9255 26.5671 31.6503 25.5808 30.1665 24.1003C28.6826 22.6199 26.6702 21.7882 24.5717 21.7882H11.9121Z" fill="#171922"/>
</g>
<defs>
<linearGradient id="paint0_linear_3_211" x1="17.5" y1="0" x2="17.5" y2="35" gradientUnits="userSpaceOnUse">
<stop stop-color="#0690FA"/>
<stop offset="1" stop-color="#0F5AFA"/>
</linearGradient>
<linearGradient id="paint1_linear_3_211" x1="17.5" y1="0" x2="17.5" y2="35" gradientUnits="userSpaceOnUse">
<stop stop-color="#0690FA"/>
<stop offset="1" stop-color="#0F5AFA"/>
</linearGradient>
</defs>
</svg>
