<svg width="30" height="24" viewBox="0 0 30 24" fill="none" xmlns="http://www.w3.org/2000/svg">
<path d="M9.63851 18.975H20.4873C22.2866 18.9756 24.0119 19.6837 25.2839 20.9436C26.0851 21.716 26.6838 22.6703 27.028 23.7237C28.699 21.5035 29.7098 18.8651 29.9463 16.1063C30.1827 13.3474 29.6355 10.5781 28.3663 8.11089C27.0971 5.64369 25.1565 3.5769 22.7636 2.14387C20.3708 0.710828 17.6209 -0.031387 14.8244 0.00101745C12.028 0.0334219 9.29644 0.839155 6.93809 2.32725C4.57973 3.81534 2.68854 5.92653 1.47803 8.42246C0.267508 10.9184 -0.214122 13.6997 0.0875106 16.4523C0.389143 19.2049 1.46203 21.8192 3.18503 24C3.55139 22.5593 4.39461 21.2816 5.58013 20.3708C6.76565 19.46 8.22514 18.9686 9.72572 18.975H9.63851ZM11.2257 7.11184C12.1127 6.23295 13.2801 5.68574 14.5289 5.56343C15.7778 5.44112 17.0308 5.75128 18.0745 6.44107C19.1183 7.13086 19.8882 8.1576 20.253 9.34635C20.6179 10.5351 20.5551 11.8123 20.0755 12.9604C19.5958 14.1085 18.7289 15.0564 17.6224 15.6426C16.516 16.2289 15.2385 16.4172 14.0075 16.1754C12.7766 15.9337 11.6684 15.2769 10.8717 14.3169C10.0751 13.357 9.63924 12.1532 9.63851 10.9108C9.6381 10.2054 9.77806 9.50684 10.0504 8.855C10.3227 8.20317 10.7221 7.61083 11.2257 7.11184Z" fill="url(#paint0_linear_379_10)"/>
<defs>
<linearGradient id="paint0_linear_379_10" x1="2.44154e-10" y1="12" x2="30" y2="12" gradientUnits="userSpaceOnUse">
<stop stop-color="#1054FA"/>
<stop offset="1" stop-color="#0597FA"/>
</linearGradient>
</defs>
</svg>
