<svg width="15" height="15" viewBox="0 0 15 15" fill="none" xmlns="http://www.w3.org/2000/svg">
<path d="M13.7385 0H4.38462C4.15204 0 3.92899 0.0923899 3.76454 0.256845C3.60008 0.4213 3.50769 0.644349 3.50769 0.876924V3.50769H0.876924C0.644349 3.50769 0.4213 3.60008 0.256845 3.76454C0.0923899 3.92899 0 4.15204 0 4.38462V13.7385C0 13.971 0.0923899 14.1941 0.256845 14.3585C0.4213 14.523 0.644349 14.6154 0.876924 14.6154H10.2308C10.4634 14.6154 10.6864 14.523 10.8509 14.3585C11.0153 14.1941 11.1077 13.971 11.1077 13.7385V11.1077H13.7385C13.971 11.1077 14.1941 11.0153 14.3585 10.8509C14.523 10.6864 14.6154 10.4634 14.6154 10.2308V0.876924C14.6154 0.644349 14.523 0.4213 14.3585 0.256845C14.1941 0.0923899 13.971 0 13.7385 0ZM9.35385 12.8615H1.75385V5.26154H9.35385V12.8615ZM12.8615 9.35385H11.1077V4.38462C11.1077 4.15204 11.0153 3.92899 10.8509 3.76454C10.6864 3.60008 10.4634 3.50769 10.2308 3.50769H5.26154V1.75385H12.8615V9.35385Z" fill="#F8F8F8"/>
</svg>
