<svg width="113" height="31" viewBox="0 0 113 31" fill="none" xmlns="http://www.w3.org/2000/svg">
<rect x="15.728" y="0.0183868" width="8.05133" height="31.1473" rx="4.02567" transform="rotate(30.3285 15.728 0.0183868)" fill="url(#paint0_linear_6_333)"/>
<rect x="12" y="4.02567" width="8.05133" height="31.1473" rx="4.02567" transform="rotate(-30 12 4.02567)" fill="url(#paint1_linear_6_333)"/>
<path d="M52.7953 26H47.236L54.4568 4.59873H61.3432L68.5641 26H63.0048L57.9784 9.99084H57.8112L52.7953 26ZM52.0533 17.5774H63.6736V21.5066H52.0533V17.5774ZM75.5957 4.59873V26H70.4857V4.59873H75.5957ZM85.9686 26.303C84.2897 26.303 82.8407 25.9721 81.6215 25.3103C80.4093 24.6415 79.4758 23.6906 78.8209 22.4575C78.1731 21.2175 77.8491 19.744 77.8491 18.0372C77.8491 16.3792 78.1765 14.9301 78.8314 13.6901C79.4863 12.4431 80.4093 11.4747 81.6006 10.785C82.7919 10.0884 84.1957 9.74005 85.8119 9.74005C86.9544 9.74005 87.9994 9.9177 88.9468 10.273C89.8943 10.6283 90.7129 11.1543 91.4026 11.8509C92.0922 12.5476 92.6287 13.4079 93.0118 14.432C93.395 15.4491 93.5866 16.616 93.5866 17.9327V19.2076H79.636V16.2398H88.8319C88.8249 15.6965 88.696 15.2123 88.4453 14.7873C88.1945 14.3624 87.8496 14.0314 87.4107 13.7946C86.9788 13.5508 86.4807 13.4288 85.9164 13.4288C85.3451 13.4288 84.8331 13.5577 84.3803 13.8155C83.9274 14.0663 83.5687 14.4111 83.3039 14.85C83.0392 15.2819 82.8999 15.7731 82.8859 16.3234V19.3435C82.8859 19.9983 83.0148 20.573 83.2726 21.0677C83.5303 21.5553 83.8961 21.935 84.3698 22.2067C84.8435 22.4784 85.4078 22.6143 86.0627 22.6143C86.5155 22.6143 86.9265 22.5516 87.2958 22.4262C87.665 22.3008 87.982 22.1161 88.2467 21.8723C88.5114 21.6285 88.71 21.3289 88.8423 20.9736L93.5343 21.1095C93.3393 22.1614 92.9108 23.0775 92.249 23.8578C91.5941 24.6311 90.7338 25.2337 89.6679 25.6656C88.602 26.0906 87.3689 26.303 85.9686 26.303ZM103.306 26.303C101.62 26.303 100.171 25.9582 98.9593 25.2685C97.7541 24.5719 96.824 23.6035 96.1692 22.3635C95.5213 21.1164 95.1973 19.6709 95.1973 18.0268C95.1973 16.3757 95.5213 14.9301 96.1692 13.6901C96.824 12.4431 97.7541 11.4747 98.9593 10.785C100.171 10.0884 101.62 9.74005 103.306 9.74005C104.992 9.74005 106.438 10.0884 107.643 10.785C108.855 11.4747 109.785 12.4431 110.433 13.6901C111.088 14.9301 111.415 16.3757 111.415 18.0268C111.415 19.6709 111.088 21.1164 110.433 22.3635C109.785 23.6035 108.855 24.5719 107.643 25.2685C106.438 25.9582 104.992 26.303 103.306 26.303ZM103.338 22.4471C103.951 22.4471 104.47 22.259 104.895 21.8828C105.32 21.5066 105.644 20.9841 105.867 20.3153C106.097 19.6465 106.211 18.8732 106.211 17.9954C106.211 17.1037 106.097 16.3234 105.867 15.6547C105.644 14.9859 105.32 14.4634 104.895 14.0872C104.47 13.711 103.951 13.5229 103.338 13.5229C102.704 13.5229 102.167 13.711 101.728 14.0872C101.297 14.4634 100.966 14.9859 100.736 15.6547C100.513 16.3234 100.401 17.1037 100.401 17.9954C100.401 18.8732 100.513 19.6465 100.736 20.3153C100.966 20.9841 101.297 21.5066 101.728 21.8828C102.167 22.259 102.704 22.4471 103.338 22.4471Z" fill="white"/>
<defs>
<linearGradient id="paint0_linear_6_333" x1="19.7537" y1="0.0183868" x2="19.7537" y2="31.1657" gradientUnits="userSpaceOnUse">
<stop stop-color="#00B7FB"/>
<stop offset="1" stop-color="#1150FA"/>
</linearGradient>
<linearGradient id="paint1_linear_6_333" x1="16.0257" y1="4.02567" x2="16.0257" y2="35.1729" gradientUnits="userSpaceOnUse">
<stop stop-color="#00C1FA"/>
<stop offset="1" stop-color="#00E9EF"/>
</linearGradient>
</defs>
</svg>
