<svg width="235" height="346" viewBox="0 0 235 346" fill="none" xmlns="http://www.w3.org/2000/svg">
<g filter="url(#filter0_b_1140_1375)">
<rect width="235" height="346" rx="2.45178" fill="url(#paint0_linear_1140_1375)" fill-opacity="0.2"/>
<rect x="0.204315" y="0.204315" width="234.591" height="345.591" rx="2.24746" stroke="url(#paint1_radial_1140_1375)" stroke-width="0.408629"/>
<rect x="0.204315" y="0.204315" width="234.591" height="345.591" rx="2.24746" stroke="url(#paint2_radial_1140_1375)" stroke-opacity="0.2" stroke-width="0.408629"/>
</g>
<ellipse cx="85.4286" cy="183.898" rx="4.46961" ry="4.40656" fill="white"/>
<ellipse cx="107.132" cy="183.898" rx="4.46961" ry="4.40656" fill="white" fill-opacity="0.6"/>
<ellipse cx="128.843" cy="183.898" rx="4.46961" ry="4.40656" fill="white" fill-opacity="0.3"/>
<path d="M73.4668 101.336L76.6257 106.674H76.748L79.9222 101.336H83.6624L78.882 109.168L83.7694 117H79.9604L76.748 111.654H76.6257L73.4132 117H69.6195L74.5223 109.168L69.7113 101.336H73.4668ZM87.7085 121.406C87.2955 121.406 86.9079 121.372 86.5459 121.306C86.189 121.245 85.8932 121.166 85.6587 121.069L86.3929 118.637C86.7754 118.754 87.1195 118.818 87.4255 118.828C87.7365 118.838 88.0042 118.767 88.2286 118.614C88.458 118.461 88.6442 118.201 88.7869 117.834L88.9781 117.337L84.7638 105.252H88.1903L90.6226 113.879H90.745L93.2002 105.252H96.6497L92.0835 118.27C91.8642 118.902 91.5659 119.453 91.1886 119.922C90.8164 120.396 90.3447 120.761 89.7736 121.016C89.2025 121.276 88.5141 121.406 87.7085 121.406ZM97.7052 107.814V105.252H108.352V107.814H104.566V117H101.461V107.814H97.7052ZM110.327 117V105.252H113.586V109.81H114.503L117.701 105.252H121.525L117.372 111.08L121.571 117H117.701L114.802 112.832H113.586V117H110.327ZM126.298 117.222C125.548 117.222 124.88 117.092 124.294 116.832C123.707 116.567 123.243 116.177 122.902 115.661C122.565 115.141 122.397 114.494 122.397 113.719C122.397 113.066 122.517 112.518 122.756 112.074C122.996 111.631 123.322 111.274 123.735 111.003C124.148 110.733 124.617 110.529 125.143 110.392C125.673 110.254 126.229 110.157 126.81 110.101C127.493 110.03 128.044 109.963 128.462 109.902C128.88 109.836 129.184 109.739 129.372 109.611C129.561 109.484 129.655 109.295 129.655 109.045V109C129.655 108.515 129.502 108.14 129.196 107.875C128.896 107.61 128.467 107.477 127.911 107.477C127.325 107.477 126.858 107.608 126.512 107.868C126.165 108.123 125.936 108.444 125.823 108.831L122.81 108.587C122.963 107.873 123.264 107.256 123.712 106.736C124.161 106.21 124.74 105.808 125.449 105.527C126.162 105.242 126.989 105.099 127.927 105.099C128.579 105.099 129.204 105.175 129.801 105.328C130.402 105.481 130.935 105.718 131.399 106.04C131.868 106.361 132.238 106.774 132.508 107.279C132.779 107.778 132.914 108.377 132.914 109.076V117H129.824V115.371H129.732C129.543 115.738 129.291 116.062 128.975 116.342C128.658 116.618 128.279 116.834 127.835 116.992C127.391 117.145 126.879 117.222 126.298 117.222ZM127.231 114.973C127.71 114.973 128.133 114.879 128.5 114.69C128.868 114.496 129.156 114.236 129.365 113.91C129.574 113.584 129.678 113.214 129.678 112.801V111.554C129.576 111.62 129.436 111.682 129.258 111.738C129.084 111.789 128.888 111.837 128.669 111.883C128.449 111.924 128.23 111.962 128.011 111.998C127.792 112.028 127.593 112.056 127.414 112.082C127.032 112.138 126.698 112.227 126.412 112.35C126.127 112.472 125.905 112.638 125.747 112.847C125.589 113.051 125.51 113.306 125.51 113.612C125.51 114.055 125.67 114.394 125.992 114.629C126.318 114.858 126.731 114.973 127.231 114.973Z" fill="white"/>
<defs>
<filter id="filter0_b_1140_1375" x="-9.8071" y="-9.8071" width="254.614" height="365.614" filterUnits="userSpaceOnUse" color-interpolation-filters="sRGB">
<feFlood flood-opacity="0" result="BackgroundImageFix"/>
<feGaussianBlur in="BackgroundImageFix" stdDeviation="4.90355"/>
<feComposite in2="SourceAlpha" operator="in" result="effect1_backgroundBlur_1140_1375"/>
<feBlend mode="normal" in="SourceGraphic" in2="effect1_backgroundBlur_1140_1375" result="shape"/>
</filter>
<linearGradient id="paint0_linear_1140_1375" x1="-1.49491e-06" y1="8.6741" x2="267.505" y2="36.7955" gradientUnits="userSpaceOnUse">
<stop stop-color="#69AEFF" stop-opacity="0.4"/>
<stop offset="1" stop-color="#3793FF" stop-opacity="0.16"/>
</linearGradient>
<radialGradient id="paint1_radial_1140_1375" cx="0" cy="0" r="1" gradientUnits="userSpaceOnUse" gradientTransform="translate(114.109 173.482) rotate(123.482) scale(206.842 681.541)">
<stop/>
<stop offset="1" stop-opacity="0"/>
</radialGradient>
<radialGradient id="paint2_radial_1140_1375" cx="0" cy="0" r="1" gradientUnits="userSpaceOnUse" gradientTransform="translate(109.154 199.986) rotate(-119.339) scale(222.777 610.977)">
<stop stop-color="white"/>
<stop offset="1" stop-color="white" stop-opacity="0"/>
</radialGradient>
</defs>
</svg>
