<svg width="235" height="346" viewBox="0 0 235 346" fill="none" xmlns="http://www.w3.org/2000/svg">
<g filter="url(#filter0_b_1140_1368)">
<rect width="235" height="346" rx="2.45178" fill="url(#paint0_linear_1140_1368)" fill-opacity="0.2"/>
<rect x="0.204315" y="0.204315" width="234.591" height="345.591" rx="2.24746" stroke="url(#paint1_radial_1140_1368)" stroke-width="0.408629"/>
<rect x="0.204315" y="0.204315" width="234.591" height="345.591" rx="2.24746" stroke="url(#paint2_radial_1140_1368)" stroke-opacity="0.2" stroke-width="0.408629"/>
</g>
<ellipse cx="96.0569" cy="209.734" rx="5.02564" ry="5.02564" fill="white"/>
<ellipse cx="120.459" cy="209.734" rx="5.02564" ry="5.02564" fill="white" fill-opacity="0.6"/>
<ellipse cx="144.871" cy="209.734" rx="5.02564" ry="5.02564" fill="white" fill-opacity="0.3"/>
<path d="M78.9454 132.487V116.823H85.1255C86.3136 116.823 87.3258 117.05 88.162 117.504C88.9982 117.952 89.6356 118.577 90.0742 119.378C90.5178 120.173 90.7396 121.091 90.7396 122.131C90.7396 123.171 90.5152 124.089 90.0665 124.885C89.6178 125.68 88.9677 126.3 88.1161 126.743C87.2697 127.187 86.2448 127.409 85.0414 127.409H81.1023V124.755H84.506C85.1434 124.755 85.6686 124.645 86.0816 124.426C86.4997 124.201 86.8107 123.893 87.0147 123.5C87.2238 123.102 87.3283 122.646 87.3283 122.131C87.3283 121.611 87.2238 121.157 87.0147 120.77C86.8107 120.377 86.4997 120.074 86.0816 119.859C85.6635 119.64 85.1332 119.531 84.4907 119.531H82.2573V132.487H78.9454ZM92.8296 132.487V120.739H95.9884V122.789H96.1108C96.325 122.06 96.6845 121.509 97.1893 121.137C97.6941 120.759 98.2754 120.571 98.9331 120.571C99.0963 120.571 99.2722 120.581 99.4609 120.601C99.6496 120.622 99.8153 120.65 99.9581 120.686V123.577C99.8051 123.531 99.5935 123.49 99.3232 123.454C99.053 123.419 98.8057 123.401 98.5813 123.401C98.102 123.401 97.6737 123.505 97.2963 123.714C96.9241 123.918 96.6284 124.204 96.4091 124.571C96.1949 124.938 96.0879 125.361 96.0879 125.841V132.487H92.8296ZM106.404 132.717C105.216 132.717 104.188 132.464 103.322 131.96C102.46 131.45 101.794 130.741 101.325 129.833C100.856 128.921 100.622 127.862 100.622 126.659C100.622 125.445 100.856 124.385 101.325 123.477C101.794 122.565 102.46 121.856 103.322 121.351C104.188 120.841 105.216 120.586 106.404 120.586C107.592 120.586 108.617 120.841 109.479 121.351C110.345 121.856 111.013 122.565 111.483 123.477C111.952 124.385 112.186 125.445 112.186 126.659C112.186 127.862 111.952 128.921 111.483 129.833C111.013 130.741 110.345 131.45 109.479 131.96C108.617 132.464 107.592 132.717 106.404 132.717ZM106.419 130.193C106.96 130.193 107.411 130.04 107.773 129.734C108.135 129.423 108.408 129 108.591 128.464C108.78 127.929 108.874 127.319 108.874 126.636C108.874 125.953 108.78 125.344 108.591 124.808C108.408 124.273 108.135 123.849 107.773 123.538C107.411 123.227 106.96 123.072 106.419 123.072C105.874 123.072 105.415 123.227 105.042 123.538C104.675 123.849 104.397 124.273 104.209 124.808C104.025 125.344 103.933 125.953 103.933 126.636C103.933 127.319 104.025 127.929 104.209 128.464C104.397 129 104.675 129.423 105.042 129.734C105.415 130.04 105.874 130.193 106.419 130.193ZM117.563 125.695V132.487H114.305V120.739H117.41V122.812H117.548C117.808 122.129 118.244 121.588 118.856 121.19C119.468 120.787 120.21 120.586 121.082 120.586C121.897 120.586 122.609 120.765 123.216 121.121C123.822 121.478 124.294 121.988 124.631 122.651C124.967 123.309 125.135 124.094 125.135 125.007V132.487H121.877V125.588C121.882 124.869 121.699 124.308 121.326 123.906C120.954 123.498 120.442 123.294 119.789 123.294C119.35 123.294 118.963 123.388 118.626 123.577C118.295 123.765 118.035 124.041 117.846 124.403C117.663 124.76 117.568 125.191 117.563 125.695ZM133.952 120.739V123.187H126.877V120.739H133.952ZM128.484 117.924H131.742V128.877C131.742 129.178 131.788 129.413 131.879 129.581C131.971 129.744 132.099 129.859 132.262 129.925C132.43 129.991 132.624 130.024 132.843 130.024C132.996 130.024 133.149 130.012 133.302 129.986C133.455 129.956 133.572 129.933 133.654 129.917L134.166 132.342C134.003 132.393 133.774 132.452 133.478 132.518C133.182 132.589 132.823 132.633 132.4 132.648C131.614 132.679 130.926 132.574 130.334 132.334C129.748 132.095 129.292 131.722 128.965 131.218C128.639 130.713 128.478 130.075 128.484 129.305V117.924ZM141.257 132.717C140.069 132.717 139.041 132.464 138.174 131.96C137.313 131.45 136.647 130.741 136.178 129.833C135.709 128.921 135.474 127.862 135.474 126.659C135.474 125.445 135.709 124.385 136.178 123.477C136.647 122.565 137.313 121.856 138.174 121.351C139.041 120.841 140.069 120.586 141.257 120.586C142.445 120.586 143.47 120.841 144.331 121.351C145.198 121.856 145.866 122.565 146.335 123.477C146.804 124.385 147.039 125.445 147.039 126.659C147.039 127.862 146.804 128.921 146.335 129.833C145.866 130.741 145.198 131.45 144.331 131.96C143.47 132.464 142.445 132.717 141.257 132.717ZM141.272 130.193C141.812 130.193 142.264 130.04 142.626 129.734C142.988 129.423 143.261 129 143.444 128.464C143.633 127.929 143.727 127.319 143.727 126.636C143.727 125.953 143.633 125.344 143.444 124.808C143.261 124.273 142.988 123.849 142.626 123.538C142.264 123.227 141.812 123.072 141.272 123.072C140.726 123.072 140.267 123.227 139.895 123.538C139.528 123.849 139.25 124.273 139.062 124.808C138.878 125.344 138.786 125.953 138.786 126.636C138.786 127.319 138.878 127.929 139.062 128.464C139.25 129 139.528 129.423 139.895 129.734C140.267 130.04 140.726 130.193 141.272 130.193Z" fill="white"/>
<defs>
<filter id="filter0_b_1140_1368" x="-9.8071" y="-9.8071" width="254.614" height="365.614" filterUnits="userSpaceOnUse" color-interpolation-filters="sRGB">
<feFlood flood-opacity="0" result="BackgroundImageFix"/>
<feGaussianBlur in="BackgroundImageFix" stdDeviation="4.90355"/>
<feComposite in2="SourceAlpha" operator="in" result="effect1_backgroundBlur_1140_1368"/>
<feBlend mode="normal" in="SourceGraphic" in2="effect1_backgroundBlur_1140_1368" result="shape"/>
</filter>
<linearGradient id="paint0_linear_1140_1368" x1="-1.49491e-06" y1="8.6741" x2="267.505" y2="36.7955" gradientUnits="userSpaceOnUse">
<stop stop-color="#69AEFF" stop-opacity="0.4"/>
<stop offset="1" stop-color="#3793FF" stop-opacity="0.16"/>
</linearGradient>
<radialGradient id="paint1_radial_1140_1368" cx="0" cy="0" r="1" gradientUnits="userSpaceOnUse" gradientTransform="translate(114.109 173.482) rotate(123.482) scale(206.842 681.541)">
<stop/>
<stop offset="1" stop-opacity="0"/>
</radialGradient>
<radialGradient id="paint2_radial_1140_1368" cx="0" cy="0" r="1" gradientUnits="userSpaceOnUse" gradientTransform="translate(109.154 199.986) rotate(-119.339) scale(222.777 610.977)">
<stop stop-color="white"/>
<stop offset="1" stop-color="white" stop-opacity="0"/>
</radialGradient>
</defs>
</svg>
