<svg width="235" height="346" viewBox="0 0 235 346" fill="none" xmlns="http://www.w3.org/2000/svg">
<g filter="url(#filter0_b_1140_1361)">
<rect width="235" height="346" rx="2.45178" fill="url(#paint0_linear_1140_1361)" fill-opacity="0.2"/>
<rect x="0.204315" y="0.204315" width="234.591" height="345.591" rx="2.24746" stroke="url(#paint1_radial_1140_1361)" stroke-width="0.408629"/>
<rect x="0.204315" y="0.204315" width="234.591" height="345.591" rx="2.24746" stroke="url(#paint2_radial_1140_1361)" stroke-opacity="0.2" stroke-width="0.408629"/>
</g>
<ellipse cx="96.0569" cy="209.734" rx="5.02564" ry="5.02564" fill="white"/>
<ellipse cx="120.459" cy="209.734" rx="5.02564" ry="5.02564" fill="white" fill-opacity="0.6"/>
<ellipse cx="144.871" cy="209.734" rx="5.02564" ry="5.02564" fill="white" fill-opacity="0.3"/>
<path d="M92.4376 132.487V116.823H98.7095C99.8619 116.823 100.823 116.994 101.593 117.335C102.363 117.677 102.942 118.151 103.329 118.758C103.717 119.36 103.911 120.053 103.911 120.838C103.911 121.45 103.788 121.988 103.543 122.452C103.299 122.911 102.962 123.289 102.534 123.584C102.111 123.875 101.626 124.081 101.081 124.204V124.357C101.677 124.382 102.235 124.551 102.756 124.862C103.281 125.173 103.707 125.609 104.033 126.17C104.359 126.725 104.522 127.388 104.522 128.158C104.522 128.989 104.316 129.731 103.903 130.384C103.495 131.032 102.891 131.544 102.09 131.921C101.29 132.299 100.303 132.487 99.1301 132.487H92.4376ZM95.7495 129.78H98.4494C99.3724 129.78 100.045 129.604 100.469 129.252C100.892 128.895 101.103 128.421 101.103 127.829C101.103 127.396 100.999 127.013 100.79 126.682C100.581 126.351 100.283 126.091 99.895 125.902C99.5126 125.713 99.0562 125.619 98.5259 125.619H95.7495V129.78ZM95.7495 123.378H98.2047C98.6585 123.378 99.0613 123.299 99.4131 123.141C99.7701 122.978 100.051 122.748 100.254 122.452C100.464 122.157 100.568 121.802 100.568 121.389C100.568 120.823 100.367 120.367 99.9638 120.02C99.5661 119.673 99.0001 119.5 98.2659 119.5H95.7495V123.378ZM109.966 132.709C109.217 132.709 108.549 132.579 107.962 132.319C107.376 132.054 106.912 131.664 106.57 131.149C106.234 130.629 106.066 129.981 106.066 129.206C106.066 128.553 106.185 128.005 106.425 127.562C106.665 127.118 106.991 126.761 107.404 126.491C107.817 126.221 108.286 126.017 108.811 125.879C109.342 125.741 109.897 125.644 110.479 125.588C111.162 125.517 111.713 125.451 112.131 125.389C112.549 125.323 112.852 125.226 113.041 125.099C113.23 124.971 113.324 124.783 113.324 124.533V124.487C113.324 124.002 113.171 123.628 112.865 123.363C112.564 123.097 112.136 122.965 111.58 122.965C110.994 122.965 110.527 123.095 110.18 123.355C109.834 123.61 109.604 123.931 109.492 124.319L106.479 124.074C106.632 123.36 106.932 122.743 107.381 122.223C107.83 121.698 108.409 121.295 109.117 121.014C109.831 120.729 110.657 120.586 111.595 120.586C112.248 120.586 112.873 120.663 113.469 120.816C114.071 120.969 114.604 121.206 115.068 121.527C115.537 121.848 115.907 122.261 116.177 122.766C116.447 123.266 116.582 123.865 116.582 124.563V132.487H113.492V130.858H113.401C113.212 131.225 112.959 131.549 112.643 131.83C112.327 132.105 111.947 132.322 111.504 132.48C111.06 132.633 110.548 132.709 109.966 132.709ZM110.899 130.46C111.379 130.46 111.802 130.366 112.169 130.177C112.536 129.984 112.824 129.724 113.033 129.397C113.242 129.071 113.347 128.701 113.347 128.288V127.042C113.245 127.108 113.105 127.169 112.926 127.225C112.753 127.276 112.557 127.324 112.337 127.37C112.118 127.411 111.899 127.449 111.68 127.485C111.46 127.516 111.261 127.544 111.083 127.569C110.701 127.625 110.367 127.715 110.081 127.837C109.795 127.959 109.574 128.125 109.416 128.334C109.258 128.538 109.178 128.793 109.178 129.099C109.178 129.543 109.339 129.882 109.66 130.116C109.987 130.346 110.4 130.46 110.899 130.46ZM122.369 116.823V132.487H119.11V116.823H122.369ZM129.308 132.679C128.415 132.679 127.607 132.449 126.883 131.99C126.164 131.526 125.593 130.845 125.17 129.948C124.752 129.045 124.543 127.939 124.543 126.628C124.543 125.282 124.759 124.163 125.193 123.271C125.626 122.373 126.202 121.703 126.921 121.259C127.645 120.81 128.438 120.586 129.3 120.586C129.958 120.586 130.506 120.698 130.945 120.923C131.388 121.142 131.745 121.417 132.015 121.749C132.291 122.075 132.5 122.396 132.642 122.712H132.742V116.823H135.993V132.487H132.78V130.606H132.642C132.49 130.932 132.273 131.256 131.992 131.577C131.717 131.893 131.358 132.156 130.914 132.365C130.475 132.574 129.94 132.679 129.308 132.679ZM130.34 130.086C130.865 130.086 131.309 129.943 131.671 129.657C132.038 129.367 132.319 128.961 132.512 128.441C132.711 127.921 132.811 127.312 132.811 126.613C132.811 125.915 132.714 125.308 132.52 124.793C132.326 124.278 132.046 123.88 131.679 123.6C131.312 123.319 130.865 123.179 130.34 123.179C129.805 123.179 129.354 123.324 128.986 123.615C128.619 123.906 128.341 124.308 128.153 124.823C127.964 125.338 127.87 125.935 127.87 126.613C127.87 127.296 127.964 127.901 128.153 128.426C128.347 128.946 128.624 129.354 128.986 129.65C129.354 129.94 129.805 130.086 130.34 130.086Z" fill="white"/>
<defs>
<filter id="filter0_b_1140_1361" x="-9.8071" y="-9.8071" width="254.614" height="365.614" filterUnits="userSpaceOnUse" color-interpolation-filters="sRGB">
<feFlood flood-opacity="0" result="BackgroundImageFix"/>
<feGaussianBlur in="BackgroundImageFix" stdDeviation="4.90355"/>
<feComposite in2="SourceAlpha" operator="in" result="effect1_backgroundBlur_1140_1361"/>
<feBlend mode="normal" in="SourceGraphic" in2="effect1_backgroundBlur_1140_1361" result="shape"/>
</filter>
<linearGradient id="paint0_linear_1140_1361" x1="-1.49491e-06" y1="8.6741" x2="267.505" y2="36.7955" gradientUnits="userSpaceOnUse">
<stop stop-color="#69AEFF" stop-opacity="0.4"/>
<stop offset="1" stop-color="#3793FF" stop-opacity="0.16"/>
</linearGradient>
<radialGradient id="paint1_radial_1140_1361" cx="0" cy="0" r="1" gradientUnits="userSpaceOnUse" gradientTransform="translate(114.109 173.482) rotate(123.482) scale(206.842 681.541)">
<stop/>
<stop offset="1" stop-opacity="0"/>
</radialGradient>
<radialGradient id="paint2_radial_1140_1361" cx="0" cy="0" r="1" gradientUnits="userSpaceOnUse" gradientTransform="translate(109.154 199.986) rotate(-119.339) scale(222.777 610.977)">
<stop stop-color="white"/>
<stop offset="1" stop-color="white" stop-opacity="0"/>
</radialGradient>
</defs>
</svg>
