<svg width="235" height="346" viewBox="0 0 235 346" fill="none" xmlns="http://www.w3.org/2000/svg">
<g filter="url(#filter0_b_1140_1382)">
<rect width="235" height="346" rx="2.45178" fill="url(#paint0_linear_1140_1382)" fill-opacity="0.2"/>
<rect x="0.204315" y="0.204315" width="234.591" height="345.591" rx="2.24746" stroke="url(#paint1_radial_1140_1382)" stroke-width="0.408629"/>
<rect x="0.204315" y="0.204315" width="234.591" height="345.591" rx="2.24746" stroke="url(#paint2_radial_1140_1382)" stroke-opacity="0.2" stroke-width="0.408629"/>
</g>
<ellipse cx="96.0569" cy="209.734" rx="5.02564" ry="5.02564" fill="white"/>
<ellipse cx="120.459" cy="209.734" rx="5.02564" ry="5.02564" fill="white" fill-opacity="0.6"/>
<ellipse cx="144.871" cy="209.734" rx="5.02564" ry="5.02564" fill="white" fill-opacity="0.3"/>
<path d="M92.7665 122.307H89.4164C89.3552 121.874 89.2303 121.489 89.0416 121.152C88.8529 120.81 88.6107 120.52 88.315 120.28C88.0192 120.04 87.6776 119.857 87.2901 119.729C86.9076 119.602 86.4921 119.538 86.0433 119.538C85.2326 119.538 84.5264 119.74 83.9247 120.142C83.323 120.54 82.8564 121.121 82.525 121.886C82.1935 122.646 82.0278 123.569 82.0278 124.655C82.0278 125.772 82.1935 126.71 82.525 127.47C82.8615 128.23 83.3306 128.803 83.9323 129.191C84.534 129.578 85.23 129.772 86.0204 129.772C86.464 129.772 86.8745 129.713 87.2518 129.596C87.6342 129.479 87.9733 129.308 88.2691 129.084C88.5648 128.854 88.8096 128.576 89.0033 128.25C89.2022 127.924 89.3399 127.551 89.4164 127.133L92.7665 127.149C92.6798 127.868 92.4631 128.561 92.1163 129.229C91.7747 129.892 91.3132 130.486 90.7319 131.011C90.1557 131.531 89.4674 131.944 88.6668 132.25C87.8714 132.551 86.9714 132.701 85.9669 132.701C84.5697 132.701 83.3204 132.385 82.219 131.753C81.1227 131.121 80.2559 130.205 79.6185 129.007C78.9862 127.809 78.6701 126.358 78.6701 124.655C78.6701 122.947 78.9913 121.494 79.6338 120.295C80.2763 119.097 81.1482 118.184 82.2496 117.557C83.351 116.925 84.5901 116.609 85.9669 116.609C86.8745 116.609 87.7158 116.736 88.4909 116.991C89.271 117.246 89.962 117.618 90.5637 118.108C91.1654 118.592 91.6549 119.186 92.0322 119.89C92.4146 120.594 92.6594 121.399 92.7665 122.307ZM95.0802 132.487V120.739H98.3385V125.298H99.2563L102.453 120.739H106.278L102.125 126.567L106.324 132.487H102.453L99.5546 128.319H98.3385V132.487H95.0802ZM112.525 132.717C111.337 132.717 110.309 132.464 109.442 131.96C108.581 131.45 107.915 130.741 107.446 129.833C106.977 128.921 106.742 127.862 106.742 126.659C106.742 125.445 106.977 124.385 107.446 123.477C107.915 122.565 108.581 121.856 109.442 121.351C110.309 120.841 111.337 120.586 112.525 120.586C113.713 120.586 114.738 120.841 115.599 121.351C116.466 121.856 117.134 122.565 117.603 123.477C118.072 124.385 118.307 125.445 118.307 126.659C118.307 127.862 118.072 128.921 117.603 129.833C117.134 130.741 116.466 131.45 115.599 131.96C114.738 132.464 113.713 132.717 112.525 132.717ZM112.54 130.193C113.081 130.193 113.532 130.04 113.894 129.734C114.256 129.423 114.529 129 114.712 128.464C114.901 127.929 114.995 127.319 114.995 126.636C114.995 125.953 114.901 125.344 114.712 124.808C114.529 124.273 114.256 123.849 113.894 123.538C113.532 123.227 113.081 123.072 112.54 123.072C111.994 123.072 111.535 123.227 111.163 123.538C110.796 123.849 110.518 124.273 110.33 124.808C110.146 125.344 110.054 125.953 110.054 126.636C110.054 127.319 110.146 127.929 110.33 128.464C110.518 129 110.796 129.423 111.163 129.734C111.535 130.04 111.994 130.193 112.54 130.193ZM120.426 136.893V120.739H123.638V122.712H123.783C123.926 122.396 124.133 122.075 124.403 121.749C124.678 121.417 125.035 121.142 125.474 120.923C125.917 120.698 126.468 120.586 127.126 120.586C127.983 120.586 128.773 120.81 129.497 121.259C130.221 121.703 130.8 122.373 131.233 123.271C131.667 124.163 131.883 125.282 131.883 126.628C131.883 127.939 131.672 129.045 131.248 129.948C130.83 130.845 130.259 131.526 129.535 131.99C128.816 132.449 128.011 132.679 127.118 132.679C126.486 132.679 125.948 132.574 125.504 132.365C125.066 132.156 124.706 131.893 124.426 131.577C124.145 131.256 123.931 130.932 123.783 130.606H123.684V136.893H120.426ZM123.615 126.613C123.615 127.312 123.712 127.921 123.906 128.441C124.1 128.961 124.38 129.367 124.747 129.657C125.114 129.943 125.56 130.086 126.086 130.086C126.616 130.086 127.065 129.94 127.432 129.65C127.799 129.354 128.077 128.946 128.266 128.426C128.459 127.901 128.556 127.296 128.556 126.613C128.556 125.935 128.462 125.338 128.273 124.823C128.085 124.308 127.807 123.906 127.439 123.615C127.072 123.324 126.621 123.179 126.086 123.179C125.555 123.179 125.107 123.319 124.74 123.6C124.377 123.88 124.1 124.278 123.906 124.793C123.712 125.308 123.615 125.915 123.615 126.613ZM139.364 132.717C138.176 132.717 137.148 132.464 136.281 131.96C135.42 131.45 134.754 130.741 134.285 129.833C133.816 128.921 133.581 127.862 133.581 126.659C133.581 125.445 133.816 124.385 134.285 123.477C134.754 122.565 135.42 121.856 136.281 121.351C137.148 120.841 138.176 120.586 139.364 120.586C140.552 120.586 141.577 120.841 142.438 121.351C143.305 121.856 143.973 122.565 144.442 123.477C144.911 124.385 145.146 125.445 145.146 126.659C145.146 127.862 144.911 128.921 144.442 129.833C143.973 130.741 143.305 131.45 142.438 131.96C141.577 132.464 140.552 132.717 139.364 132.717ZM139.379 130.193C139.919 130.193 140.371 130.04 140.733 129.734C141.095 129.423 141.368 129 141.551 128.464C141.74 127.929 141.834 127.319 141.834 126.636C141.834 125.953 141.74 125.344 141.551 124.808C141.368 124.273 141.095 123.849 140.733 123.538C140.371 123.227 139.919 123.072 139.379 123.072C138.833 123.072 138.374 123.227 138.002 123.538C137.635 123.849 137.357 124.273 137.168 124.808C136.985 125.344 136.893 125.953 136.893 126.636C136.893 127.319 136.985 127.929 137.168 128.464C137.357 129 137.635 129.423 138.002 129.734C138.374 130.04 138.833 130.193 139.379 130.193Z" fill="white"/>
<defs>
<filter id="filter0_b_1140_1382" x="-9.8071" y="-9.8071" width="254.614" height="365.614" filterUnits="userSpaceOnUse" color-interpolation-filters="sRGB">
<feFlood flood-opacity="0" result="BackgroundImageFix"/>
<feGaussianBlur in="BackgroundImageFix" stdDeviation="4.90355"/>
<feComposite in2="SourceAlpha" operator="in" result="effect1_backgroundBlur_1140_1382"/>
<feBlend mode="normal" in="SourceGraphic" in2="effect1_backgroundBlur_1140_1382" result="shape"/>
</filter>
<linearGradient id="paint0_linear_1140_1382" x1="-1.49491e-06" y1="8.6741" x2="267.505" y2="36.7955" gradientUnits="userSpaceOnUse">
<stop stop-color="#69AEFF" stop-opacity="0.4"/>
<stop offset="1" stop-color="#3793FF" stop-opacity="0.16"/>
</linearGradient>
<radialGradient id="paint1_radial_1140_1382" cx="0" cy="0" r="1" gradientUnits="userSpaceOnUse" gradientTransform="translate(114.109 173.482) rotate(123.482) scale(206.842 681.541)">
<stop/>
<stop offset="1" stop-opacity="0"/>
</radialGradient>
<radialGradient id="paint2_radial_1140_1382" cx="0" cy="0" r="1" gradientUnits="userSpaceOnUse" gradientTransform="translate(109.154 199.986) rotate(-119.339) scale(222.777 610.977)">
<stop stop-color="white"/>
<stop offset="1" stop-color="white" stop-opacity="0"/>
</radialGradient>
</defs>
</svg>
