<svg width="235" height="346" viewBox="0 0 235 346" fill="none" xmlns="http://www.w3.org/2000/svg">
<g filter="url(#filter0_b_406_2)">
<rect width="235" height="346" rx="8" fill="url(#paint0_linear_406_2)" fill-opacity="0.2"/>
<rect x="0.5" y="0.5" width="234" height="345" rx="7.5" stroke="url(#paint1_radial_406_2)"/>
<rect x="0.5" y="0.5" width="234" height="345" rx="7.5" stroke="url(#paint2_radial_406_2)" stroke-opacity="0.2"/>
</g>
<circle cx="100.5" cy="221.5" r="3.5" fill="white"/>
<circle cx="117.5" cy="221.5" r="3.5" fill="white" fill-opacity="0.6"/>
<circle cx="134.5" cy="221.5" r="3.5" fill="white" fill-opacity="0.3"/>
<path d="M88.4787 140.348C88.3764 139.317 87.9375 138.516 87.1619 137.945C86.3864 137.374 85.3338 137.088 84.0043 137.088C83.1009 137.088 82.3381 137.216 81.7159 137.472C81.0938 137.719 80.6165 138.064 80.2841 138.507C79.9602 138.95 79.7983 139.453 79.7983 140.016C79.7813 140.484 79.8793 140.893 80.0923 141.243C80.3139 141.592 80.6165 141.895 81 142.151C81.3835 142.398 81.8267 142.615 82.3295 142.803C82.8324 142.982 83.3693 143.135 83.9403 143.263L86.2926 143.825C87.4347 144.081 88.483 144.422 89.4375 144.848C90.392 145.274 91.2188 145.798 91.9176 146.42C92.6165 147.043 93.1577 147.776 93.5412 148.619C93.9332 149.463 94.1335 150.43 94.142 151.521C94.1335 153.124 93.7244 154.513 92.9148 155.689C92.1136 156.857 90.9545 157.764 89.4375 158.412C87.929 159.051 86.1094 159.371 83.9787 159.371C81.8651 159.371 80.0241 159.047 78.456 158.399C76.8963 157.751 75.6776 156.793 74.7997 155.523C73.9304 154.244 73.4744 152.663 73.4318 150.78H78.7884C78.848 151.658 79.0994 152.391 79.5426 152.979C79.9943 153.558 80.5952 153.997 81.3452 154.295C82.1037 154.585 82.9602 154.73 83.9148 154.73C84.8523 154.73 85.6662 154.594 86.3565 154.321C87.0554 154.048 87.5966 153.669 87.9801 153.183C88.3636 152.697 88.5554 152.139 88.5554 151.509C88.5554 150.92 88.3807 150.426 88.0312 150.026C87.6903 149.625 87.1875 149.284 86.5227 149.003C85.8665 148.722 85.0611 148.466 84.1065 148.236L81.2557 147.52C79.0483 146.983 77.3054 146.143 76.027 145.001C74.7486 143.859 74.1136 142.321 74.1222 140.386C74.1136 138.801 74.5355 137.416 75.3878 136.232C76.2486 135.047 77.429 134.122 78.929 133.457C80.429 132.793 82.1335 132.46 84.0426 132.46C85.9858 132.46 87.6818 132.793 89.1307 133.457C90.5881 134.122 91.7216 135.047 92.5312 136.232C93.3409 137.416 93.7585 138.788 93.7841 140.348H88.4787ZM105.292 159.384C103.306 159.384 101.588 158.962 100.14 158.118C98.6992 157.266 97.587 156.081 96.8029 154.564C96.0188 153.038 95.6268 151.27 95.6268 149.259C95.6268 147.23 96.0188 145.457 96.8029 143.94C97.587 142.415 98.6992 141.23 100.14 140.386C101.588 139.534 103.306 139.108 105.292 139.108C107.277 139.108 108.99 139.534 110.431 140.386C111.88 141.23 112.996 142.415 113.78 143.94C114.564 145.457 114.956 147.23 114.956 149.259C114.956 151.27 114.564 153.038 113.78 154.564C112.996 156.081 111.88 157.266 110.431 158.118C108.99 158.962 107.277 159.384 105.292 159.384ZM105.317 155.165C106.221 155.165 106.975 154.909 107.58 154.398C108.185 153.878 108.641 153.17 108.948 152.276C109.263 151.381 109.421 150.362 109.421 149.22C109.421 148.078 109.263 147.06 108.948 146.165C108.641 145.27 108.185 144.562 107.58 144.043C106.975 143.523 106.221 143.263 105.317 143.263C104.405 143.263 103.638 143.523 103.016 144.043C102.402 144.562 101.938 145.27 101.623 146.165C101.316 147.06 101.162 148.078 101.162 149.22C101.162 150.362 101.316 151.381 101.623 152.276C101.938 153.17 102.402 153.878 103.016 154.398C103.638 154.909 104.405 155.165 105.317 155.165ZM126.026 159.384C124.04 159.384 122.323 158.962 120.874 158.118C119.434 157.266 118.321 156.081 117.537 154.564C116.753 153.038 116.361 151.27 116.361 149.259C116.361 147.23 116.753 145.457 117.537 143.94C118.321 142.415 119.434 141.23 120.874 140.386C122.323 139.534 124.04 139.108 126.026 139.108C128.012 139.108 129.725 139.534 131.165 140.386C132.614 141.23 133.73 142.415 134.515 143.94C135.299 145.457 135.691 147.23 135.691 149.259C135.691 151.27 135.299 153.038 134.515 154.564C133.73 156.081 132.614 157.266 131.165 158.118C129.725 158.962 128.012 159.384 126.026 159.384ZM126.051 155.165C126.955 155.165 127.709 154.909 128.314 154.398C128.919 153.878 129.375 153.17 129.682 152.276C129.997 151.381 130.155 150.362 130.155 149.22C130.155 148.078 129.997 147.06 129.682 146.165C129.375 145.27 128.919 144.562 128.314 144.043C127.709 143.523 126.955 143.263 126.051 143.263C125.14 143.263 124.372 143.523 123.75 144.043C123.137 144.562 122.672 145.27 122.357 146.165C122.05 147.06 121.897 148.078 121.897 149.22C121.897 150.362 122.05 151.381 122.357 152.276C122.672 153.17 123.137 153.878 123.75 154.398C124.372 154.909 125.14 155.165 126.051 155.165ZM143.334 147.648V159H137.888V139.364H143.078V142.828H143.309C143.743 141.686 144.472 140.783 145.495 140.118C146.517 139.445 147.757 139.108 149.215 139.108C150.578 139.108 151.767 139.406 152.782 140.003C153.796 140.599 154.584 141.452 155.147 142.56C155.709 143.659 155.99 144.972 155.99 146.497V159H150.544V147.469C150.553 146.267 150.246 145.33 149.624 144.656C149.002 143.974 148.145 143.634 147.054 143.634C146.321 143.634 145.674 143.791 145.111 144.107C144.557 144.422 144.122 144.882 143.807 145.487C143.5 146.084 143.343 146.804 143.334 147.648Z" fill="white"/>
<defs>
<filter id="filter0_b_406_2" x="-24" y="-24" width="283" height="394" filterUnits="userSpaceOnUse" color-interpolation-filters="sRGB">
<feFlood flood-opacity="0" result="BackgroundImageFix"/>
<feGaussianBlur in="BackgroundImageFix" stdDeviation="12"/>
<feComposite in2="SourceAlpha" operator="in" result="effect1_backgroundBlur_406_2"/>
<feBlend mode="normal" in="SourceGraphic" in2="effect1_backgroundBlur_406_2" result="shape"/>
</filter>
<linearGradient id="paint0_linear_406_2" x1="-1.49491e-06" y1="8.6741" x2="267.505" y2="36.7955" gradientUnits="userSpaceOnUse">
<stop stop-color="#69AEFF" stop-opacity="0.4"/>
<stop offset="1" stop-color="#3793FF" stop-opacity="0.16"/>
</linearGradient>
<radialGradient id="paint1_radial_406_2" cx="0" cy="0" r="1" gradientUnits="userSpaceOnUse" gradientTransform="translate(114.109 173.482) rotate(123.482) scale(206.842 681.541)">
<stop/>
<stop offset="1" stop-opacity="0"/>
</radialGradient>
<radialGradient id="paint2_radial_406_2" cx="0" cy="0" r="1" gradientUnits="userSpaceOnUse" gradientTransform="translate(109.154 199.986) rotate(-119.339) scale(222.777 610.977)">
<stop stop-color="white"/>
<stop offset="1" stop-color="white" stop-opacity="0"/>
</radialGradient>
</defs>
</svg>
