<svg width="235" height="346" viewBox="0 0 235 346" fill="none" xmlns="http://www.w3.org/2000/svg">
<g filter="url(#filter0_b_1140_1353)">
<rect width="235" height="346" rx="2.45178" fill="url(#paint0_linear_1140_1353)" fill-opacity="0.2"/>
<rect x="0.204315" y="0.204315" width="234.591" height="345.591" rx="2.24746" stroke="url(#paint1_radial_1140_1353)" stroke-width="0.408629"/>
<rect x="0.204315" y="0.204315" width="234.591" height="345.591" rx="2.24746" stroke="url(#paint2_radial_1140_1353)" stroke-opacity="0.2" stroke-width="0.408629"/>
</g>
<ellipse cx="96.0569" cy="209.734" rx="5.02564" ry="5.02564" fill="white"/>
<ellipse cx="120.459" cy="209.734" rx="5.02564" ry="5.02564" fill="white" fill-opacity="0.6"/>
<ellipse cx="144.871" cy="209.734" rx="5.02564" ry="5.02564" fill="white" fill-opacity="0.3"/>
<path d="M102.071 115.192H104.698V132.143L102.071 132.746V115.192ZM103.234 115.192H112.818V125.379H103.234V123.139H110.191V117.453H103.234V115.192ZM103.234 119.198H111.289V121.352H103.234V119.198ZM100.197 131.669C102.243 131.41 105.302 130.958 108.209 130.506L108.382 132.81C105.775 133.284 102.975 133.758 100.843 134.103L100.197 131.669ZM108.532 124.389C109.351 128.029 111.16 130.936 114.434 132.186C113.874 132.681 113.098 133.715 112.732 134.426C109.092 132.767 107.326 129.364 106.292 124.776L108.532 124.389ZM112.108 125.832L113.938 127.253C112.775 128.33 111.268 129.429 110.126 130.118L108.489 128.761C109.609 128.05 111.182 126.801 112.108 125.832ZM99.1416 118.767L101.446 119.693C99.8523 122.343 97.3108 125.143 95.0492 126.887C94.8123 126.327 94.1016 124.992 93.6923 124.432C95.6739 123.053 97.8492 120.899 99.1416 118.767ZM98.4739 114.223L100.929 115.213C99.4646 117.216 97.2462 119.37 95.1785 120.684C94.92 120.103 94.2954 119.047 93.9077 118.509C95.6092 117.453 97.5477 115.666 98.4739 114.223ZM96.9446 123.764L99.3354 121.373L99.4646 121.438V134.426H96.9446V123.764ZM118.138 114.201H120.702V134.426H118.138V114.201ZM116.265 118.466L118.117 118.724C118.031 120.576 117.643 123.139 117.126 124.798L115.209 124.109C115.726 122.666 116.114 120.253 116.265 118.466ZM120.12 118.509L121.886 117.755C122.532 119.069 123.265 120.792 123.545 121.869L121.649 122.752C121.434 121.653 120.745 119.866 120.12 118.509ZM123.2 117.453H134.228V125.164H131.686V119.866H123.2V117.453ZM122.209 123.807H135.585V126.284H122.209V123.807ZM129.834 124.324C130.76 127.878 132.698 130.807 136.037 132.056C135.434 132.616 134.594 133.736 134.206 134.49C130.502 132.767 128.649 129.299 127.508 124.776L129.834 124.324ZM126.926 114.201H129.532V121.847C129.532 126.219 128.649 131.367 123.071 134.533C122.726 133.995 121.843 133.026 121.24 132.53C126.625 129.924 126.926 125.466 126.926 121.826V114.201Z" fill="white"/>
<defs>
<filter id="filter0_b_1140_1353" x="-9.8071" y="-9.8071" width="254.614" height="365.614" filterUnits="userSpaceOnUse" color-interpolation-filters="sRGB">
<feFlood flood-opacity="0" result="BackgroundImageFix"/>
<feGaussianBlur in="BackgroundImageFix" stdDeviation="4.90355"/>
<feComposite in2="SourceAlpha" operator="in" result="effect1_backgroundBlur_1140_1353"/>
<feBlend mode="normal" in="SourceGraphic" in2="effect1_backgroundBlur_1140_1353" result="shape"/>
</filter>
<linearGradient id="paint0_linear_1140_1353" x1="-1.49491e-06" y1="8.6741" x2="267.505" y2="36.7955" gradientUnits="userSpaceOnUse">
<stop stop-color="#69AEFF" stop-opacity="0.4"/>
<stop offset="1" stop-color="#3793FF" stop-opacity="0.16"/>
</linearGradient>
<radialGradient id="paint1_radial_1140_1353" cx="0" cy="0" r="1" gradientUnits="userSpaceOnUse" gradientTransform="translate(114.109 173.482) rotate(123.482) scale(206.842 681.541)">
<stop/>
<stop offset="1" stop-opacity="0"/>
</radialGradient>
<radialGradient id="paint2_radial_1140_1353" cx="0" cy="0" r="1" gradientUnits="userSpaceOnUse" gradientTransform="translate(109.154 199.986) rotate(-119.339) scale(222.777 610.977)">
<stop stop-color="white"/>
<stop offset="1" stop-color="white" stop-opacity="0"/>
</radialGradient>
</defs>
</svg>
