<svg width="39" height="39" viewBox="0 0 39 39" fill="none" xmlns="http://www.w3.org/2000/svg">
<path d="M36.995 9.25C35.7437 9.81875 34.395 10.1925 32.9975 10.3713C34.4275 9.51 35.5325 8.145 36.0525 6.50375C34.7038 7.31625 33.2087 7.885 31.6325 8.21C30.3488 6.8125 28.545 6 26.4975 6C22.6788 6 19.5588 9.12 19.5588 12.9713C19.5588 13.5237 19.6238 14.06 19.7375 14.5638C13.9525 14.2713 8.80125 11.4925 5.3725 7.28375C4.77125 8.3075 4.43 9.51 4.43 10.7775C4.43 13.1988 5.64875 15.3438 7.53375 16.5625C6.38 16.5625 5.3075 16.2375 4.365 15.75V15.7987C4.365 19.1787 6.77 22.0063 9.955 22.64C8.93243 22.9198 7.85891 22.9588 6.81875 22.7537C7.26011 24.139 8.1245 25.3512 9.2904 26.2198C10.4563 27.0884 11.8651 27.5697 13.3188 27.5963C10.8546 29.547 7.80024 30.6014 4.6575 30.5862C4.105 30.5862 3.5525 30.5537 3 30.4888C6.0875 32.4712 9.76 33.625 13.6925 33.625C26.4975 33.625 33.5338 22.9975 33.5338 13.7838C33.5338 13.475 33.5338 13.1825 33.5175 12.8737C34.8825 11.8987 36.0525 10.6638 36.995 9.25Z" fill="#0C6BFA"/>
</svg>
