<svg width="24" height="25" viewBox="0 0 24 25" fill="none" xmlns="http://www.w3.org/2000/svg">
<g clip-path="url(#clip0_72_981)">
<mask id="mask0_72_981" style="mask-type:luminance" maskUnits="userSpaceOnUse" x="0" y="0" width="24" height="25">
<path d="M24 0.640137H0V24.6401H24V0.640137Z" fill="white"/>
</mask>
<g mask="url(#mask0_72_981)">
<path d="M23.954 5.20923C23.069 5.59823 22.124 5.86323 21.129 5.98423C22.143 5.37323 22.923 4.41023 23.292 3.26123C22.341 3.81623 21.287 4.22023 20.165 4.44523C19.269 3.48623 17.992 2.88623 16.574 2.88623C13.857 2.88623 11.654 5.08923 11.654 7.80323C11.654 8.19323 11.699 8.56823 11.781 8.92723C7.691 8.73423 4.066 6.77023 1.64 3.80123C1.213 4.52323 0.974 5.36223 0.974 6.27623C0.974 7.98623 1.844 9.48923 3.162 10.3722C2.355 10.3462 1.596 10.1242 0.934 9.75623V9.81723C0.934 12.2023 2.627 14.1913 4.88 14.6443C4.467 14.7553 4.031 14.8153 3.584 14.8153C3.27 14.8153 2.969 14.7853 2.668 14.7293C3.299 16.6823 5.113 18.1063 7.272 18.1463C5.592 19.4653 3.463 20.2513 1.17 20.2513C0.78 20.2513 0.391 20.2283 0 20.1843C2.189 21.5783 4.768 22.3933 7.557 22.3933C16.611 22.3933 21.556 14.8973 21.556 8.40723C21.556 8.19823 21.556 7.98723 21.541 7.77723C22.502 7.08823 23.341 6.21723 24.001 5.22923L23.954 5.20923Z" fill="white"/>
</g>
</g>
<defs>
<clipPath id="clip0_72_981">
<rect width="24" height="24" fill="white" transform="translate(0 0.640137)"/>
</clipPath>
</defs>
</svg>
