<svg width="37" height="40" viewBox="0 0 37 40" fill="none" xmlns="http://www.w3.org/2000/svg">
<path d="M4.79167 39.0833C3.71459 39.0833 2.79221 38.6995 2.02454 37.9318C1.25688 37.1642 0.873698 36.2424 0.875003 35.1667V26.2562L6.26042 20.1365L9.05105 22.9271L5.13438 27.3333H31.8656L28.0469 23.025L30.8375 20.2344L36.125 26.2562V35.1667C36.125 36.2437 35.7412 37.1661 34.9735 37.9338C34.2058 38.7015 33.2841 39.0846 32.2083 39.0833H4.79167ZM15.7583 24.2L8.95313 17.2969C8.20243 16.5462 7.82709 15.616 7.82709 14.5062C7.82709 13.3965 8.20243 12.4663 8.95313 11.7156L18.549 2.11979C19.2997 1.36909 20.2299 0.993744 21.3396 0.993744C22.4493 0.993744 23.3795 1.36909 24.1302 2.11979L31.0333 8.92499C31.784 9.67569 32.1679 10.5974 32.1848 11.6902C32.2018 12.7829 31.8343 13.7053 31.0823 14.4573L21.2906 24.249C20.5399 24.9996 19.6176 25.3672 18.5235 25.3515C17.4294 25.3358 16.5077 24.952 15.7583 24.2ZM28.2917 11.6667L21.3396 4.81249L11.6458 14.5062L18.5979 21.3604L28.2917 11.6667Z" fill="#0C6BFA"/>
</svg>
