<svg width="31" height="32" viewBox="0 0 31 32" fill="none" xmlns="http://www.w3.org/2000/svg">
<path d="M5.50082 29.2233C4.7904 29.2233 4.18202 28.962 3.67569 28.4393C3.16936 27.9166 2.91662 27.2891 2.91748 26.5566V20.4899L6.46957 16.3233L8.31019 18.2233L5.72686 21.2233H23.3581L20.8394 18.2899L22.68 16.3899L26.1675 20.4899V26.5566C26.1675 27.2899 25.9143 27.9179 25.408 28.4406C24.9016 28.9633 24.2937 29.2242 23.5841 29.2233H5.50082ZM12.7341 19.0899L8.24561 14.3899C7.75047 13.8788 7.5029 13.2455 7.5029 12.4899C7.5029 11.7344 7.75047 11.1011 8.24561 10.5899L14.5748 4.05661C15.0699 3.5455 15.6835 3.28995 16.4154 3.28995C17.1473 3.28995 17.7609 3.5455 18.256 4.05661L22.8091 8.68995C23.3043 9.20106 23.5575 9.82861 23.5687 10.5726C23.5798 11.3166 23.3374 11.9446 22.8414 12.4566L16.3831 19.1233C15.888 19.6344 15.2796 19.8846 14.558 19.8739C13.8364 19.8633 13.2284 19.6019 12.7341 19.0899ZM21.0008 10.5566L16.4154 5.88995L10.0216 12.4899L14.6071 17.1566L21.0008 10.5566Z" fill="#0C6BFA"/>
</svg>
