<svg width="30" height="27" viewBox="0 0 30 27" fill="none" xmlns="http://www.w3.org/2000/svg">
<g clip-path="url(#clip0_379_2)">
<path d="M24.3655 6.15132V4.23558C24.3666 3.7587 24.259 3.28783 24.0508 2.85864C23.8411 2.43332 23.5391 2.06007 23.1667 1.76607C22.8115 1.47927 22.3969 1.2748 21.9529 1.1674C21.4893 1.06263 21.008 1.06263 20.5444 1.1674L3.68621 3.96618C2.93756 4.0974 2.2599 4.48995 1.77411 5.07384C1.28832 5.65772 1.02598 6.39497 1.03386 7.1541V10.2971" stroke="#0C6BFA" stroke-width="1.37" stroke-linejoin="round"/>
<path d="M26.5233 5.43292H3.44639C2.51367 5.45648 1.62805 5.84722 0.982489 6.52003C0.336925 7.19284 -0.0162747 8.09319 -0.000162659 9.02494V23.408C-0.0101073 23.8699 0.0711631 24.3292 0.239006 24.7598C0.406848 25.1903 0.657973 25.5836 0.978036 25.9171C1.2981 26.2507 1.68083 26.518 2.10435 26.7038C2.52788 26.8896 2.98391 26.9903 3.44639 27H26.5233C26.9871 26.9922 27.4447 26.893 27.87 26.7081C28.2952 26.5231 28.6797 26.2561 29.0014 25.9224C29.323 25.5886 29.5755 25.1947 29.7442 24.7632C29.913 24.3317 29.9948 23.8711 29.9848 23.408V9.02494C30.0009 8.09066 29.6457 7.18809 28.9969 6.51486C28.3481 5.84162 27.4587 5.45258 26.5233 5.43292ZM21.2786 20.1303C20.4178 20.1332 19.5756 19.8808 18.8586 19.405C18.1417 18.9292 17.5824 18.2515 17.2516 17.4578C16.9208 16.6641 16.8335 15.7902 17.0007 14.9468C17.1679 14.1035 17.5821 13.3287 18.1908 12.7208C18.7994 12.1129 19.5751 11.6992 20.4195 11.5322C21.2638 11.3653 22.1388 11.4525 22.9335 11.7828C23.7282 12.1132 24.4067 12.6718 24.8831 13.3879C25.3595 14.1039 25.6122 14.9452 25.6092 15.8049C25.6092 16.952 25.153 18.0522 24.3408 18.8634C23.5286 19.6746 22.4271 20.1303 21.2786 20.1303Z" fill="#0C6BFA"/>
<path d="M25.2647 6.97451H4.72021C4.31554 6.97254 3.91447 7.05044 3.54004 7.20375C3.1656 7.35706 2.82518 7.58275 2.53834 7.86785C2.25149 8.15295 2.02388 8.49185 1.86856 8.86508C1.71325 9.23831 1.6333 9.63851 1.6333 10.0427V22.3603C1.6333 23.178 1.95853 23.9622 2.53744 24.5404C3.11634 25.1186 3.90151 25.4435 4.72021 25.4435H25.2647C26.0834 25.4435 26.8685 25.1186 27.4474 24.5404C28.0264 23.9622 28.3516 23.178 28.3516 22.3603V10.0427C28.3516 9.63851 28.2716 9.23831 28.1163 8.86508C27.961 8.49185 27.7334 8.15295 27.4465 7.86785C27.1597 7.58275 26.8193 7.35706 26.4448 7.20375C26.0704 7.05044 25.6693 6.97254 25.2647 6.97451ZM23.6313 17.6308C23.3936 17.8711 23.0998 18.0486 22.7763 18.1472C22.4528 18.2458 22.1099 18.2624 21.7783 18.1956C21.4468 18.1288 21.1371 17.9806 20.8772 17.7645C20.6174 17.5483 20.4154 17.2709 20.2896 16.9573C20.1231 16.5864 20.0811 16.1717 20.1698 15.775C20.2438 15.3776 20.4372 15.0122 20.7242 14.7273C21.0103 14.4389 21.3751 14.241 21.7732 14.1585C22.1761 14.0848 22.5917 14.1263 22.972 14.2783C23.344 14.4321 23.6621 14.6925 23.886 15.0266C24.1096 15.3696 24.2293 15.7698 24.2307 16.1791C24.2312 16.4485 24.1785 16.7154 24.0757 16.9645C23.9728 17.2136 23.8218 17.44 23.6313 17.6308Z" fill="url(#paint0_linear_379_2)"/>
</g>
<defs>
<linearGradient id="paint0_linear_379_2" x1="1.6333" y1="16.209" x2="28.3516" y2="16.209" gradientUnits="userSpaceOnUse">
<stop stop-color="#1054FA"/>
<stop offset="1" stop-color="#0597FA"/>
</linearGradient>
<clipPath id="clip0_379_2">
<rect width="30" height="27" fill="white"/>
</clipPath>
</defs>
</svg>
