<svg width="41" height="41" viewBox="0 0 41 41" fill="none" xmlns="http://www.w3.org/2000/svg">
<path d="M33.3125 11.5312H7.6875C5.56466 11.5312 3.84375 13.2522 3.84375 15.375V30.75C3.84375 32.8728 5.56466 34.5938 7.6875 34.5938H33.3125C35.4353 34.5938 37.1562 32.8728 37.1562 30.75V15.375C37.1562 13.2522 35.4353 11.5312 33.3125 11.5312Z" fill="url(#paint0_linear_3_203)" stroke="#0C6BFA" stroke-width="2.5625" stroke-linejoin="round"/>
<path d="M32.9409 11.5312V9.1289C32.9407 8.53969 32.8105 7.95778 32.5595 7.4247C32.3086 6.89162 31.943 6.4205 31.489 6.04495C31.035 5.66941 30.5037 5.39869 29.933 5.25213C29.3623 5.10557 28.7663 5.08676 28.1875 5.19706L7.09813 8.79658C6.18229 8.9711 5.35607 9.45977 4.76196 10.1783C4.16786 10.8968 3.84312 11.8001 3.84375 12.7324V16.6562" stroke="#0C6BFA" stroke-width="2.5625" stroke-linejoin="round"/>
<path d="M29.4688 25.625C28.9619 25.625 28.4665 25.4747 28.0451 25.1931C27.6237 24.9116 27.2953 24.5114 27.1013 24.0431C26.9074 23.5749 26.8566 23.0597 26.9555 22.5626C27.0544 22.0655 27.2984 21.6089 27.6568 21.2505C28.0152 20.8922 28.4718 20.6481 28.9688 20.5492C29.4659 20.4504 29.9811 20.5011 30.4494 20.6951C30.9176 20.889 31.3178 21.2175 31.5994 21.6389C31.881 22.0603 32.0313 22.5557 32.0313 23.0625C32.0313 23.7421 31.7613 24.3939 31.2807 24.8745C30.8002 25.355 30.1484 25.625 29.4688 25.625Z" fill="#12141D"/>
<defs>
<linearGradient id="paint0_linear_3_203" x1="4" y1="21.5" x2="37" y2="27" gradientUnits="userSpaceOnUse">
<stop stop-color="#1054FA"/>
<stop offset="1" stop-color="#0597FA"/>
</linearGradient>
</defs>
</svg>
