<svg width="10" height="10" viewBox="0 0 10 10" fill="none" xmlns="http://www.w3.org/2000/svg">
<path d="M5 0C7.7615 0 10 2.2385 10 5C10 7.7615 7.7615 10 5 10C2.2385 10 0 7.7615 0 5C0 2.2385 2.2385 0 5 0ZM7.002 5.439C6.8295 5.1765 6.705 4.9875 6.231 5.0625C5.336 5.2045 5.2365 5.361 5.194 5.619L5.182 5.697L5.1695 5.78C5.121 6.1215 5.1225 6.2505 5.2795 6.415C5.912 7.079 6.291 7.5575 6.406 7.8375C6.462 7.974 6.606 8.3875 6.507 8.7965C7.11391 8.55476 7.65413 8.17124 8.0825 7.678C8.1375 7.491 8.1775 7.258 8.1775 6.976V6.9235C8.1775 6.4625 8.1775 6.252 7.8515 6.0655C7.74673 6.00608 7.6391 5.95185 7.529 5.903C7.3455 5.8195 7.224 5.765 7.06 5.525C7.04021 5.49665 7.02087 5.46798 7.002 5.439ZM5 0.9165C3.8415 0.9165 2.795 1.3995 2.052 2.1745C2.1405 2.236 2.2175 2.3225 2.2705 2.4415C2.3725 2.67 2.3725 2.9055 2.3725 3.114C2.3725 3.278 2.3725 3.434 2.425 3.5465C2.497 3.7005 2.808 3.7665 3.0825 3.8235C3.181 3.8445 3.282 3.8655 3.374 3.891C3.627 3.961 3.823 4.1885 3.9795 4.371C4.0445 4.4465 4.141 4.558 4.1895 4.586C4.2145 4.568 4.295 4.4805 4.3345 4.337C4.3655 4.227 4.3565 4.13 4.312 4.077C4.032 3.747 4.0475 3.112 4.134 2.8775C4.27 2.508 4.695 2.5355 5.006 2.5555C5.122 2.563 5.231 2.5705 5.313 2.56C5.624 2.521 5.72 2.0475 5.7875 1.955C5.9335 1.755 6.3805 1.4535 6.6575 1.2675C6.13575 1.0355 5.57101 0.915904 5 0.9165Z" fill="#F8F8F8"/>
</svg>
