<?xml version="1.0" encoding="utf-8"?>
<!-- Generator: Adobe Illustrator 27.5.0, SVG Export Plug-In . SVG Version: 6.00 Build 0)  -->
<svg version="1.1" id="Layer_1" xmlns="http://www.w3.org/2000/svg" xmlns:xlink="http://www.w3.org/1999/xlink" x="0px" y="0px"
	 viewBox="0 0 72 72" style="enable-background:new 0 0 72 72;" xml:space="preserve">
<style type="text/css">
	.st0{fill:#F3F7FF;}
	.st1{fill:url(#SVGID_1_);}
</style>
<path class="st0" d="M26.3,16.9c-0.4-1.1-0.6-2.3-0.6-3.5C25.7,7.6,30.3,3,36,3s10.3,4.6,10.3,10.3c0,1.7-0.4,3.3-1.1,4.7
	c1,0.1,2,0.5,2.7,1.4c3.9,4.5,7.4,10.9,7.4,18.3c0,5.3-1.8,9.2-4.3,12.1l4.7,0.8c1.9,0.3,3.3,2,3.3,3.9V62c0,1.1-0.4,2.1-1.2,2.8
	C57,65.6,56,66,55,66H17c-2.2,0-4-1.8-4-4v-7.5c0-1.9,1.4-3.6,3.3-3.9l4.2-0.7C18,47,16.2,43,16.2,37.7c0-5.8,2.2-10.8,4.9-14.7
	C22.7,20.6,24.6,18.5,26.3,16.9z"/>
<linearGradient id="SVGID_1_" gradientUnits="userSpaceOnUse" x1="17" y1="39.5" x2="55.1" y2="39.5" gradientTransform="matrix(1 0 0 -1 0 74)">
	<stop  offset="0" style="stop-color:#244AED"/>
	<stop  offset="1" style="stop-color:#4EA5F1"/>
</linearGradient>
<path class="st1" d="M38,37.1h-4c0-7.3,2.2-14.7,7.2-20c0.8-1.1,1.2-2.3,1.2-3.8C42.4,9.8,39.5,7,36,7s-6.3,2.8-6.3,6.3
	c0,1.7,0.7,3.3,1.8,4.4c-4,2.8-11.3,10.4-11.3,19.9c0,9.6,7.5,13.4,11.4,14.2L17,54.5V62h38.1v-7.5l-15-2.6
	c4-0.9,11.3-4.8,11.3-14.2c0-6.2-2.9-11.7-6.4-15.7C41.2,25,38,32,38,37.1z"/>
</svg>
