<?xml version="1.0" encoding="utf-8"?>
<!-- Generator: Adobe Illustrator 27.5.0, SVG Export Plug-In . SVG Version: 6.00 Build 0)  -->
<svg version="1.1" id="Layer_1" xmlns="http://www.w3.org/2000/svg" xmlns:xlink="http://www.w3.org/1999/xlink" x="0px" y="0px"
	 viewBox="0 0 72 72" style="enable-background:new 0 0 72 72;" xml:space="preserve">
<style type="text/css">
	.st0{fill-rule:evenodd;clip-rule:evenodd;fill:#F1F6FF;}
	.st1{fill-rule:evenodd;clip-rule:evenodd;fill:url(#SVGID_1_);}
</style>
<path class="st0" d="M30,3.9C30.1,1.7,31.8,0,34,0h6c2.2,0,3.9,1.7,4,3.9V5h2c2.2,0,4,1.8,4,4v2.4c4.4-1,9.1-0.3,13.1,3
	c8.3,6.9,7.5,21.4-2.3,29.3c-2.4,1.9-4.2,3.5-5.5,5.1c-0.3,0.4-0.5,0.7-0.8,1.1l4.1,0.5c2,0.3,3.5,2,3.5,4V62c0,2.2-1.8,4-4,4H16
	c-2.2,0-4-1.8-4-4v-7.5c0-2,1.5-3.7,3.5-4l4.1-0.5c-0.2-0.4-0.5-0.7-0.8-1.1c-1.3-1.6-3.2-3.2-5.5-5.1C3.5,35.9,2.7,21.4,11,14.5
	c4-3.3,8.7-4,13.1-3V9c0-2.2,1.8-4,4-4h2L30,3.9z"/>
<linearGradient id="SVGID_1_" gradientUnits="userSpaceOnUse" x1="9.2429" y1="41" x2="64.7451" y2="41" gradientTransform="matrix(1 0 0 -1 0 74)">
	<stop  offset="0" style="stop-color:#124BF7"/>
	<stop  offset="1" style="stop-color:#13A9F9"/>
</linearGradient>
<path class="st1" d="M34,4h6l0.2,5H46v6h-5.7l0.3,6.8c0.1-0.1,0.2-0.3,0.3-0.4c5.5-5.8,13.6-8.9,19.5-3.9c6,5,6,16.5-2.3,23.2
	c-4.7,3.8-8.9,7.4-8.7,12.7l8.4,1.1V62H16v-7.5l8.4-1.1c0.2-5.3-4-8.9-8.7-12.7C7.5,34,7.5,22.5,13.5,17.5s14.1-1.9,19.5,3.9
	c0.1,0.1,0.2,0.3,0.3,0.4l0.3-6.8H28V9h5.8L34,4z M28.3,27c3.7,6,4.2,13,4.2,16.1c-1.8,0-8.8-3-12.4-8c-2.6-3.6-3.3-8.9-1.1-11
	S26.1,23.2,28.3,27z M45.7,27c-3.7,6-4.2,13-4.2,16.1c1.8,0,8.8-3,12.4-8c2.6-3.6,3.3-8.9,1.1-11S47.9,23.2,45.7,27z"/>
</svg>
