<?xml version="1.0" encoding="utf-8"?>
<!-- Generator: Adobe Illustrator 27.5.0, SVG Export Plug-In . SVG Version: 6.00 Build 0)  -->
<svg version="1.1" id="Layer_1" xmlns="http://www.w3.org/2000/svg" xmlns:xlink="http://www.w3.org/1999/xlink" x="0px" y="0px"
	 viewBox="0 0 72 72" style="enable-background:new 0 0 72 72;" xml:space="preserve">
<style type="text/css">
	.st0{fill:#F1F6FF;}
	.st1{fill-rule:evenodd;clip-rule:evenodd;fill:url(#SVGID_1_);}
</style>
<path class="st0" d="M29.7,0.5c1.3-0.1,2.6,0.4,3.5,1.4l8.2,9.5c9.4,2.3,14.8,9.4,17.8,18.2c3,9.1,3.8,20.6,3.8,32.4
	c0,2.2-1.8,4-4,4H21.7c-2.1,0-3.9-1.7-4-3.8c-0.1-1.9,0.3-5.2,1.7-8.5v-0.1c-3.8,2-7.9,1.5-11.1-0.7C4.6,50.3,2.5,45,4.9,39.8
	c1.7-3.7,3.6-5.7,5-7.2c1.3-1.4,1.9-2,2.3-3.6c2.4-9.4,7.2-14.8,12.4-17.3c-0.1-1.1,0-2.1,0.1-3c0.3-2.3,1.1-4.5,2-6.1
	C27.2,1.4,28.4,0.7,29.7,0.5z"/>
<linearGradient id="SVGID_1_" gradientUnits="userSpaceOnUse" x1="7.8543" y1="40.75" x2="59" y2="40.75" gradientTransform="matrix(1 0 0 -1 0 74)">
	<stop  offset="0" style="stop-color:#124BF7"/>
	<stop  offset="1" style="stop-color:#13A9F9"/>
</linearGradient>
<path class="st1" d="M39.2,15l-9-10.5c-1.3,2.5-2.6,6.9-0.8,10c-0.9,0.1-1.7,0.2-2.4,0.5c-4.2,1.7-8.8,6-11,15
	c-0.7,2.6-1.8,3.9-3.2,5.3c-1.3,1.4-2.8,3-4.3,6.2c-3,6.5,5.1,13,11,7.1c3.3-3.3,6.2-4.7,8.7-5.8c3.5-1.7,6-2.9,7.5-8.8
	c0.7,2.8,0.4,9.2-6.1,13.2s-8,12.3-7.9,14.8H59C59,38.5,55.9,18.2,39.2,15z"/>
<circle class="st0" cx="28" cy="27" r="3"/>
</svg>
