<?xml version="1.0" encoding="utf-8"?>
<!-- Generator: Adobe Illustrator 27.5.0, SVG Export Plug-In . SVG Version: 6.00 Build 0)  -->
<svg version="1.1" id="Layer_1" xmlns="http://www.w3.org/2000/svg" xmlns:xlink="http://www.w3.org/1999/xlink" x="0px" y="0px"
	 viewBox="0 0 72 72" style="enable-background:new 0 0 72 72;" xml:space="preserve">
<style type="text/css">
	.st0{fill:#F1F6FF;}
	.st1{fill:url(#SVGID_1_);}
</style>
<path class="st0" d="M23.1,41.1c-0.5,0.7-1,1.3-1.7,2c-2.3,2.5-5.2,4.5-7.1,5.5L14,48.9c-1.2,0.7-2,2-2,3.5V62c0,2.2,1.8,4,4,4h39
	c2.2,0,4-1.8,4-4v-9.6c0-1.4-0.8-2.8-2-3.5l-0.3-0.2c-1.9-1.1-4.7-3.1-7.1-5.5c-0.7-0.7-1.2-1.4-1.7-2c1.8-0.4,3.1-2,3.1-3.9v-6.5
	c0-1.3-0.6-2.5-1.7-3.3l-1.7-1.2c1-1.9,1.5-4.1,1.5-6.4C49.1,12.2,42.9,6,35.2,6s-13.9,6.2-13.9,13.9c0,2.4,0.6,4.7,1.7,6.7
	l-1.2,0.9c-1.1,0.7-1.7,2-1.7,3.3v6.5C20,39.1,21.4,40.7,23.1,41.1z"/>
<linearGradient id="SVGID_1_" gradientUnits="userSpaceOnUse" x1="16" y1="38" x2="55" y2="38" gradientTransform="matrix(1 0 0 -1 0 74)">
	<stop  offset="0" style="stop-color:#124BF7"/>
	<stop  offset="1" style="stop-color:#13A9F9"/>
</linearGradient>
<path class="st1" d="M45.1,19.9c0,2.9-1.2,5.5-3.2,7.3l5,3.6v6.5H42c0.2,3,2.2,6,4.7,8.7c2.7,2.8,5.9,5.1,8,6.3l0.3,0.2V62H16v-9.6
	l0.3-0.2c2.1-1.2,5.3-3.5,8-6.3c2.5-2.6,4.4-5.7,4.7-8.7h-5v-6.5l4.7-3.3c-2.1-1.8-3.5-4.5-3.5-7.5c0-5.5,4.4-9.9,9.9-9.9
	C40.7,10,45.1,14.4,45.1,19.9z"/>
</svg>
