<?xml version="1.0" encoding="utf-8"?>
<!-- Generator: Adobe Illustrator 27.5.0, SVG Export Plug-In . SVG Version: 6.00 Build 0)  -->
<svg version="1.1" id="Layer_1" xmlns="http://www.w3.org/2000/svg" xmlns:xlink="http://www.w3.org/1999/xlink" x="0px" y="0px"
	 viewBox="0 0 72 72" style="enable-background:new 0 0 72 72;" xml:space="preserve">
<style type="text/css">
	.st0{fill:#F1F6FF;}
	.st1{fill:url(#SVGID_1_);}
</style>
<path class="st0" d="M18,10c0,1,0.2,1.9,0.5,2.8l-2,0.9c-1.7-1.6-4-2.7-6.5-2.7c-5,0-9,4-9,9c0,4.4,3.2,8.1,7.4,8.9l4.7,16.3
	c0.1,0.3,0.2,0.7,0.4,1l2.7,4.5l0,0c-1.9,0.3-3.3,2-3.3,3.9V62c0,2.2,1.8,4,4,4H55c1.1,0,2.1-0.4,2.8-1.2C58.6,64,59,63,59,62v-7.5
	c0-1.9-1.4-3.6-3.3-3.9h-0.1l2.7-4.5c0.2-0.3,0.3-0.6,0.4-1l4.7-16.3c4.2-0.7,7.4-4.4,7.4-8.9c0-5-4-9-9-9c-2.5,0-4.8,1.1-6.5,2.8
	l-2-0.9C53.8,11.9,54,11,54,10c0-5-4-9-9-9s-9,4-9,9c0-5-4-9-9-9S18,5,18,10z"/>
<linearGradient id="SVGID_1_" gradientUnits="userSpaceOnUse" x1="5" y1="40.5" x2="67" y2="40.5" gradientTransform="matrix(1 0 0 -1 0 74)">
	<stop  offset="0" style="stop-color:#124BF7"/>
	<stop  offset="1" style="stop-color:#13A9F9"/>
</linearGradient>
<path class="st1" d="M28.8,14.7C30.7,14,32,12.2,32,10c0-2.8-2.2-5-5-5s-5,2.2-5,5c0,2.6,1.9,4.7,4.4,5l-2.2,18l-10.7-9.3
	c1-0.9,1.6-2.2,1.6-3.7c0-2.8-2.2-5-5-5s-5,2.2-5,5s2.2,5,5,5c0.5,0,1-0.1,1.4-0.2L17,44l5.8,9.5l-5.8,1V62h38.1v-7.5l-5.9-1L55,44
	l5.6-19.2C61,24.9,61.5,25,62,25c2.8,0,5-2.2,5-5s-2.2-5-5-5s-5,2.2-5,5c0,1.4,0.6,2.8,1.6,3.7L47.8,33l-2.2-18
	c2.5-0.3,4.4-2.4,4.4-5c0-2.8-2.2-5-5-5s-5,2.2-5,5c0,2.1,1.3,3.9,3.2,4.7L36,31L28.8,14.7z"/>
</svg>
